<?xml version="1.0" encoding="UTF-8" standalone="no"?>
<svg
   width="64"
   height="64"
   viewBox="0 0 16.933333 16.933333"
   version="1.1"
   id="svg4904"
   inkscape:version="1.2 (dc2aeda, 2022-05-15)"
   sodipodi:docname="instagram.svg"
   xml:space="preserve"
   xmlns:inkscape="http://www.inkscape.org/namespaces/inkscape"
   xmlns:sodipodi="http://sodipodi.sourceforge.net/DTD/sodipodi-0.dtd"
   xmlns="http://www.w3.org/2000/svg"
   xmlns:svg="http://www.w3.org/2000/svg"
   xmlns:rdf="http://www.w3.org/1999/02/22-rdf-syntax-ns#"
   xmlns:cc="http://creativecommons.org/ns#"
   xmlns:dc="http://purl.org/dc/elements/1.1/"><defs
     id="defs4898"><style
       type="text/css"
       id="style117">  .fil0 {fill:#F0F0F0} .fil1 {fill:#011627;fill-rule:nonzero}  </style></defs><sodipodi:namedview
     id="base"
     pagecolor="#fad1d1"
     bordercolor="#666666"
     borderopacity="1.0"
     inkscape:pageopacity="0"
     inkscape:pageshadow="2"
     inkscape:zoom="7.919596"
     inkscape:cx="44.572981"
     inkscape:cy="27.71606"
     inkscape:document-units="mm"
     inkscape:current-layer="layer1"
     inkscape:document-rotation="0"
     showgrid="false"
     inkscape:window-width="952"
     inkscape:window-height="1011"
     inkscape:window-x="0"
     inkscape:window-y="30"
     inkscape:window-maximized="0"
     units="px"
     inkscape:pagecheckerboard="0"
     inkscape:showpageshadow="2"
     inkscape:deskcolor="#fad1d1" /><metadata
     id="metadata4901"><rdf:RDF><cc:Work
         rdf:about=""><dc:format>image/svg+xml</dc:format><dc:type
           rdf:resource="http://purl.org/dc/dcmitype/StillImage" /></cc:Work></rdf:RDF></metadata><g
     inkscape:label="Layer 1"
     inkscape:groupmode="layer"
     id="layer1"
     transform="translate(-94.8953,-99.929952)"><g
       id="Camada_x0020_1"
       inkscape:label="Camada 1"
       inkscape:groupmode="layer"
       transform="matrix(0.07465214,0,0,0.07465214,96.294395,101.11741)"
       style="clip-rule:evenodd;fill-rule:evenodd;image-rendering:optimizeQuality;shape-rendering:geometricPrecision;text-rendering:geometricPrecision"><metadata
         id="CorelCorpID_0Corel-Layer" /><path
         id="polygon122"
         class="fil0"
         d="m 43.005821,9.7649451 c -10.346479,0 -19.777443,4.4037079 -26.591991,11.4969409 C 9.5992827,28.355119 5.3685915,38.150139 5.3685915,48.941367 V 152.23419 c 0,10.76959 4.2306912,20.58625 11.0452385,27.67946 6.814548,7.09323 16.224736,11.49695 26.591991,11.49695 H 142.2404 c 10.34647,0 19.77743,-4.40372 26.59197,-11.49695 6.81455,-7.09321 11.04526,-16.88824 11.04526,-27.67946 V 48.941367 c 0,-10.791228 -4.23071,-20.586248 -11.04526,-27.679481 C 162.01783,14.168653 152.60766,9.7649451 142.2404,9.7649451 Z m 0,7.3652279 H 142.2404 c 8.39352,0 16.03992,3.567199 21.5871,9.341261 5.52644,5.752441 8.97427,13.733147 8.97427,22.469933 V 152.23419 c 0,8.73677 -3.42706,16.69588 -8.97427,22.46993 -5.54718,5.75243 -13.19358,9.34126 -21.5871,9.34126 H 43.005821 c -8.393529,0 -16.039909,-3.56722 -21.587117,-9.34126 -5.526431,-5.77405 -8.974258,-13.73316 -8.974258,-22.46993 V 48.941367 c 0,-8.736786 3.427052,-16.695867 8.974258,-22.469933 5.547208,-5.752435 13.193588,-9.341261 21.587117,-9.341261 z M 145.70642,34.92947 c -2.76323,0 -5.25397,1.172439 -7.06148,3.053877 v 0.01491 c -1.80752,1.88144 -2.93389,4.480696 -2.93389,7.335288 0,2.854594 1.12637,5.423909 2.93389,7.305345 l 0.0145,0.02995 c 1.80752,1.903064 4.30468,3.053876 7.04712,3.053876 2.63855,0 5.03023,-1.062673 6.81698,-2.814356 0.0831,-0.08651 0.16143,-0.153024 0.2445,-0.23952 1.80752,-1.881437 2.93388,-4.480693 2.93388,-7.335286 0,-2.876219 -1.12636,-5.468822 -2.93388,-7.350257 -1.80752,-1.903063 -4.29827,-3.053876 -7.06148,-3.053876 z m 0,7.380198 c 0.78949,0 1.52282,0.342586 2.04223,0.883229 h 0.0433 c 0.5194,0.562266 0.84854,1.297304 0.84854,2.140706 0,0.821776 -0.32914,1.585094 -0.84854,2.125735 l -0.12948,0.119761 c -0.51939,0.475766 -1.17923,0.763468 -1.92716,0.763468 -0.81027,0 -1.53721,-0.320959 -2.05659,-0.883229 -0.51941,-0.540641 -0.83416,-1.303958 -0.83416,-2.125734 0,-0.843403 0.31475,-1.600065 0.83416,-2.140707 0.51938,-0.540642 1.23833,-0.883228 2.02783,-0.883228 z m -53.083312,7.724506 c -13.400561,0 -25.555519,5.657628 -34.343793,14.805303 -8.788273,9.147676 -14.223622,21.77809 -14.223622,35.748293 0,13.94859 5.435349,26.60063 14.223622,35.7483 8.788274,9.14767 20.922457,14.82026 34.343793,14.82026 13.400572,0 25.555522,-5.67259 34.343812,-14.82026 8.78825,-9.14767 14.23798,-21.77808 14.23798,-35.7483 0,-13.948578 -5.44973,-26.600617 -14.23798,-35.748293 -8.78829,-9.147675 -20.92247,-14.805303 -34.343812,-14.805303 z m 0,7.365227 c 11.447612,0 21.838762,4.842747 29.338942,12.649625 7.50012,7.806882 12.15262,18.622982 12.15262,30.538744 0,11.91576 -4.6525,22.73186 -12.15262,30.53875 -7.50018,7.80687 -17.89133,12.64962 -29.338942,12.64962 -11.447612,0 -21.838762,-4.84275 -29.338918,-12.64962 -7.520933,-7.80689 -12.152639,-18.62299 -12.152639,-30.53875 0,-11.915762 4.652482,-22.731862 12.152639,-30.538744 7.500156,-7.828505 17.891306,-12.649625 29.338918,-12.649625 z"
         style="stroke-width:2.11967" /></g></g></svg>
