<?xml version="1.0" encoding="UTF-8" standalone="no"?>
<svg
   xmlns:dc="http://purl.org/dc/elements/1.1/"
   xmlns:cc="http://creativecommons.org/ns#"
   xmlns:rdf="http://www.w3.org/1999/02/22-rdf-syntax-ns#"
   xmlns:svg="http://www.w3.org/2000/svg"
   xmlns="http://www.w3.org/2000/svg"
   xmlns:sodipodi="http://sodipodi.sourceforge.net/DTD/sodipodi-0.dtd"
   xmlns:inkscape="http://www.inkscape.org/namespaces/inkscape"
   width="77.544189mm"
   height="77.544189mm"
   viewBox="0 0 77.544189 77.544189"
   version="1.1"
   id="svg4904"
   inkscape:version="1.0.2 (e86c870879, 2021-01-15, custom)"
   sodipodi:docname="chat.svg">
  <defs
     id="defs4898" />
  <sodipodi:namedview
     id="base"
     pagecolor="#ffffff"
     bordercolor="#666666"
     borderopacity="1.0"
     inkscape:pageopacity="0.0"
     inkscape:pageshadow="2"
     inkscape:zoom="0.49497475"
     inkscape:cx="209.21891"
     inkscape:cy="242.59365"
     inkscape:document-units="mm"
     inkscape:current-layer="layer1"
     inkscape:document-rotation="0"
     showgrid="false"
     inkscape:window-width="1920"
     inkscape:window-height="992"
     inkscape:window-x="0"
     inkscape:window-y="52"
     inkscape:window-maximized="0" />
  <metadata
     id="metadata4901">
    <rdf:RDF>
      <cc:Work
         rdf:about="">
        <dc:format>image/svg+xml</dc:format>
        <dc:type
           rdf:resource="http://purl.org/dc/dcmitype/StillImage" />
        <dc:title></dc:title>
      </cc:Work>
    </rdf:RDF>
  </metadata>
  <g
     inkscape:label="Layer 1"
     inkscape:groupmode="layer"
     id="layer1"
     transform="translate(-61.769578,-67.817258)">
    <g
       id="g4813"
       transform="matrix(0.2726114,0,0,0.2726114,-320.51635,-1249.1817)"
       style="display:inline;opacity:0.999;mix-blend-mode:normal"
       inkscape:label="Dialogue">
      <g
         id="g4771"
         transform="matrix(0.67087155,0,0,-0.67087155,1686.7604,4973.2735)"
         style="opacity:0.999;mix-blend-mode:normal">
        <path
           d="m 0,0 c 0,-117.084 -94.916,-212 -212,-212 -117.084,0 -212,94.916 -212,212 0,117.084 94.916,212 212,212 C -94.916,212 0,117.084 0,0"
           style="fill:#ff7f2a;fill-opacity:1;fill-rule:nonzero;stroke:none"
           id="path4769" />
      </g>
      <g
         id="g4811">
        <g
           id="g4775"
           transform="matrix(0.67087155,0,0,-0.67087155,1585.3029,4971.9317)"
           style="opacity:0.999;mix-blend-mode:normal;fill:#ba6832;fill-opacity:1">
          <path
             d="m 0,0 c 0,48.601 -46.115,88 -103,88 -56.886,0 -103,-39.399 -103,-88 0,-41.563 33.726,-76.39 79.071,-85.607 v -25.518 l 41.785,24.125 -0.447,0.258 C -36.997,-79.673 0,-43.53 0,0"
             style="fill:#ba6832;fill-opacity:1;fill-rule:nonzero;stroke:none"
             id="path4773" />
        </g>
        <g
           id="g4779"
           transform="matrix(0.67087155,0,0,-0.67087155,1647.3349,4971.9317)"
           style="opacity:0.999;mix-blend-mode:normal;fill:#ba6832;fill-opacity:1">
          <path
             d="m 0,0 c 0,43.63 -41.397,79 -92.465,79 -12.116,0 -23.685,-1.994 -34.289,-5.614 25.167,-17.222 41.289,-43.694 41.289,-73.386 0,-29.692 -16.122,-56.163 -41.289,-73.387 10.177,-3.473 21.248,-5.429 32.833,-5.583 L -93.973,-79 -64.364,-96.094 V -75.28 C -27.038,-65.118 0,-35.259 0,0"
             style="fill:#ba6832;fill-opacity:1;fill-rule:nonzero;stroke:none"
             id="path4777" />
        </g>
        <g
           id="g4783"
           transform="matrix(0.67087155,0,0,-0.67087155,1579.9359,4973.2735)"
           style="opacity:0.999;mix-blend-mode:normal">
          <path
             d="m 0,0 c 0,48.601 -46.115,88 -103,88 -56.886,0 -103,-39.399 -103,-88 0,-41.563 33.727,-76.39 79.071,-85.607 v -25.518 l 41.785,24.125 -0.447,0.258 C -36.997,-79.673 0,-43.53 0,0"
             style="fill:#ffffff;fill-opacity:1;fill-rule:nonzero;stroke:none"
             id="path4781" />
        </g>
        <path
           d="m 1641.9679,4973.2735 c 0,-29.2701 -27.7721,-52.9989 -62.0321,-52.9989 -8.1283,0 -15.8896,1.3378 -23.0036,3.7663 16.8839,11.5538 27.6997,29.3131 27.6997,49.2326 0,19.9195 -10.8158,37.6782 -27.6997,49.2333 6.8275,2.3299 14.2547,3.6421 22.0268,3.7454 l -0.035,0.02 19.8638,11.4678 v -13.9635 c 25.041,-6.8174 43.18,-26.8489 43.18,-50.5032"
           style="opacity:0.999;mix-blend-mode:normal;fill:#ffffff;fill-opacity:1;fill-rule:nonzero;stroke:none;stroke-width:0.670872"
           id="path4785" />
        <g
           id="g4789"
           transform="matrix(0.67087155,0,0,-0.67087155,1486.6845,4993.2319)"
           style="opacity:0.999;mix-blend-mode:normal">
          <path
             d="m 0,0 c 0,-5.937 -4.813,-10.75 -10.75,-10.75 -5.937,0 -10.75,4.813 -10.75,10.75 0,5.937 4.813,10.75 10.75,10.75 C -4.813,10.75 0,5.937 0,0"
             style="fill:#ff7f2a;fill-opacity:1;fill-rule:nonzero;stroke:none"
             id="path4787" />
        </g>
        <g
           id="g4793"
           transform="matrix(0.67087155,0,0,-0.67087155,1484.718,4992.5231)"
           style="opacity:0.999;mix-blend-mode:normal">
          <path
             d="M 0,0 C -0.444,0 -0.849,0.297 -0.967,0.746 -1.581,3.089 -3.4,4.99 -5.715,5.709 -6.243,5.873 -6.537,6.434 -6.374,6.961 -6.209,7.489 -5.647,7.781 -5.122,7.619 -2.153,6.697 0.18,4.258 0.968,1.254 1.108,0.72 0.789,0.173 0.254,0.032 0.169,0.011 0.084,0 0,0"
             style="fill:#ffffff;fill-opacity:1;fill-rule:nonzero;stroke:none"
             id="path4791" />
        </g>
        <g
           id="g4797"
           transform="matrix(0.67087155,0,0,-0.67087155,1517.824,4993.2319)"
           style="opacity:0.999;mix-blend-mode:normal;fill:#ff7f2a;fill-opacity:1">
          <path
             d="m 0,0 c 0,-5.937 -4.813,-10.75 -10.75,-10.75 -5.937,0 -10.75,4.813 -10.75,10.75 0,5.937 4.813,10.75 10.75,10.75 C -4.813,10.75 0,5.937 0,0"
             style="fill:#ff7f2a;fill-opacity:1;fill-rule:nonzero;stroke:none"
             id="path4795" />
        </g>
        <g
           id="g4801"
           transform="matrix(0.67087155,0,0,-0.67087155,1515.8575,4992.5231)"
           style="opacity:0.999;mix-blend-mode:normal">
          <path
             d="M 0,0 C -0.444,0 -0.849,0.297 -0.967,0.746 -1.581,3.089 -3.4,4.99 -5.715,5.709 -6.243,5.873 -6.537,6.434 -6.374,6.961 -6.209,7.489 -5.647,7.781 -5.122,7.619 -2.153,6.697 0.18,4.258 0.968,1.254 1.108,0.72 0.789,0.173 0.254,0.032 0.169,0.011 0.084,0 0,0"
             style="fill:#ffffff;fill-opacity:1;fill-rule:nonzero;stroke:none"
             id="path4799" />
        </g>
        <g
           id="g4805"
           transform="matrix(0.67087155,0,0,-0.67087155,1548.9638,4993.2319)"
           style="opacity:0.999;mix-blend-mode:normal">
          <path
             d="m 0,0 c 0,-5.937 -4.813,-10.75 -10.75,-10.75 -5.937,0 -10.75,4.813 -10.75,10.75 0,5.937 4.813,10.75 10.75,10.75 C -4.813,10.75 0,5.937 0,0"
             style="fill:#ff7f2a;fill-opacity:1;fill-rule:nonzero;stroke:none"
             id="path4803" />
        </g>
        <g
           id="g4809"
           transform="matrix(0.67087155,0,0,-0.67087155,1546.997,4992.5231)"
           style="opacity:0.999;mix-blend-mode:normal">
          <path
             d="M 0,0 C -0.443,0 -0.849,0.297 -0.967,0.746 -1.581,3.089 -3.4,4.99 -5.714,5.709 -6.242,5.873 -6.537,6.434 -6.373,6.961 -6.209,7.489 -5.646,7.781 -5.122,7.619 -2.153,6.697 0.181,4.258 0.968,1.254 1.108,0.72 0.789,0.173 0.254,0.032 0.169,0.011 0.084,0 0,0"
             style="fill:#ffffff;fill-opacity:1;fill-rule:nonzero;stroke:none"
             id="path4807" />
        </g>
      </g>
    </g>
  </g>
</svg>
