<?xml version="1.0" encoding="UTF-8" standalone="no"?>
<svg
   width="136.16mm"
   height="110.98mm"
   version="1.1"
   viewBox="0 0 136.16 110.98"
   id="svg24"
   sodipodi:docname="dialogue.svg"
   inkscape:version="1.1.1 (3bf5ae0d25, 2021-09-20, custom)"
   xmlns:inkscape="http://www.inkscape.org/namespaces/inkscape"
   xmlns:sodipodi="http://sodipodi.sourceforge.net/DTD/sodipodi-0.dtd"
   xmlns="http://www.w3.org/2000/svg"
   xmlns:svg="http://www.w3.org/2000/svg"
   xmlns:rdf="http://www.w3.org/1999/02/22-rdf-syntax-ns#"
   xmlns:cc="http://creativecommons.org/ns#"
   xmlns:dc="http://purl.org/dc/elements/1.1/">
  <defs
     id="defs28" />
  <sodipodi:namedview
     id="namedview26"
     pagecolor="#505050"
     bordercolor="#eeeeee"
     borderopacity="1"
     inkscape:pageshadow="0"
     inkscape:pageopacity="0"
     inkscape:pagecheckerboard="0"
     inkscape:document-units="mm"
     showgrid="false"
     inkscape:zoom="0.69454433"
     inkscape:cx="357.78854"
     inkscape:cy="92.146746"
     inkscape:window-width="1920"
     inkscape:window-height="1012"
     inkscape:window-x="0"
     inkscape:window-y="32"
     inkscape:window-maximized="1"
     inkscape:current-layer="g20" />
  <metadata
     id="metadata2">
    <rdf:RDF>
      <cc:Work
         rdf:about="">
        <dc:format>image/svg+xml</dc:format>
        <dc:type
           rdf:resource="http://purl.org/dc/dcmitype/StillImage" />
      </cc:Work>
    </rdf:RDF>
  </metadata>
  <g
     transform="translate(-56.651,-117.62)"
     id="g22">
    <g
       transform="matrix(0.27617,0,0,0.34713,-33.905,-1173.4)"
       opacity="0.999"
       style="mix-blend-mode:normal"
       id="g20">
      <g
         transform="matrix(-1.0022,0,0,0.72722,826.49,3701.9)"
         fill-rule="evenodd"
         id="g8">
        <path
           d="m 89.69,40.064 336.96,2.3983 c 20.813,0.1481 56.056,5.474 63.554,34.775 8.661,38.533 11.547,211.95 -2.399,238.63 -10.281,21.521 -19.828,28.698 -29.977,34.774 -30.065,14.443 -170.28,11.991 -170.28,11.991 l 131.91,100.73 -195.46,-101.93 -145.1,10e-4 c -20.36,0 -38.979,-12.804 -45.567,-40.772 -11.472,-50.783 -13.705,-193.21 -2.3984,-226.64 10.714,-30.538 28.721,-54.175 58.758,-53.961 z"
           fill-opacity="0.5"
           id="path4" />
        <path
           d="m 76.745,28.737 336.96,2.3983 c 20.813,0.1481 56.056,5.474 63.554,34.775 8.661,38.533 11.547,211.95 -2.399,238.63 -10.281,21.521 -19.828,28.698 -29.977,34.774 -30.065,14.443 -170.28,11.991 -170.28,11.991 l 131.91,100.73 -195.46,-101.93 -145.1,10e-4 c -20.36,0 -38.979,-12.804 -45.567,-40.772 -11.472,-50.783 -13.705,-193.21 -2.3984,-226.64 10.714,-30.538 28.721,-54.175 58.758,-53.961 z"
           fill="#ffffff"
           stroke="#000000"
           stroke-linejoin="round"
           stroke-width="10"
           id="path6" />
      </g>
      <text
         transform="matrix(0.6473,0,0,0.6473,387.75824,3824.5082)"
         x="451.50644"
         fill="#000000"
         font-family="sans-serif"
         font-size="42.667px"
         letter-spacing="0px"
         word-spacing="0px"
         style="line-height:1.25;white-space:pre;shape-inside:url(#rect4177)"
         xml:space="preserve"
         id="text18"><tspan
           x="0"
           y="0"
           id="tspan16405">Boost your business with 
</tspan><tspan
           x="0"
           y="53.33375"
           id="tspan16409"><tspan
   style="font-weight:bold;-inkscape-font-specification:'sans-serif Bold'"
   id="tspan16407">ethical</tspan> copy-hacks</tspan></text>
    </g>
  </g>
</svg>
