<?xml version="1.0" encoding="UTF-8"?>
<svg width="136.16mm" height="110.98mm" version="1.1" viewBox="0 0 136.16 110.98" xmlns="http://www.w3.org/2000/svg" xmlns:cc="http://creativecommons.org/ns#" xmlns:dc="http://purl.org/dc/elements/1.1/" xmlns:rdf="http://www.w3.org/1999/02/22-rdf-syntax-ns#">
<metadata>
<rdf:RDF>
<cc:Work rdf:about="">
<dc:format>image/svg+xml</dc:format>
<dc:type rdf:resource="http://purl.org/dc/dcmitype/StillImage"/>
<dc:title/>
</cc:Work>
</rdf:RDF>
</metadata>
<g transform="translate(-56.651 -117.62)">
<g transform="matrix(.27617 0 0 .34713 -33.905 -1173.4)" opacity=".999" style="mix-blend-mode:normal">
<g transform="matrix(-1.0022 0 0 .72722 826.49 3701.9)" fill-rule="evenodd">
<path d="m89.69 40.064 336.96 2.3983c20.813 0.1481 56.056 5.474 63.554 34.775 8.661 38.533 11.547 211.95-2.399 238.63-10.281 21.521-19.828 28.698-29.977 34.774-30.065 14.443-170.28 11.991-170.28 11.991l131.91 100.73-195.46-101.93-145.1 1e-3c-20.36 0-38.979-12.804-45.567-40.772-11.472-50.783-13.705-193.21-2.3984-226.64 10.714-30.538 28.721-54.175 58.758-53.961z" fill-opacity=".5"/>
<path d="m76.745 28.737 336.96 2.3983c20.813 0.1481 56.056 5.474 63.554 34.775 8.661 38.533 11.547 211.95-2.399 238.63-10.281 21.521-19.828 28.698-29.977 34.774-30.065 14.443-170.28 11.991-170.28 11.991l131.91 100.73-195.46-101.93-145.1 1e-3c-20.36 0-38.979-12.804-45.567-40.772-11.472-50.783-13.705-193.21-2.3984-226.64 10.714-30.538 28.721-54.175 58.758-53.961z" fill="#fff" stroke="#000" stroke-linejoin="round" stroke-width="10"/>
</g>
<text transform="matrix(.6473 0 0 .6473 300.64 2936.4)" x="451.50644" fill="#000000" font-family="sans-serif" font-size="42.667px" letter-spacing="0px" word-spacing="0px" style="line-height:1.25;shape-inside:url(#rect4177);white-space:pre" xml:space="preserve"><tspan x="389.42774" y="1364.0489"><tspan fill="#000000" font-family="Poppins" font-size="42.667px" font-weight="500" text-align="center" text-anchor="middle">Boom your business with </tspan></tspan><tspan x="425.63032" y="1417.7989"><tspan fill="#000000" font-family="Poppins" font-size="42.667px" font-weight="500" text-align="center" text-anchor="middle">priceless copy-hacks</tspan></tspan></text>
</g>
</g>
</svg>
