<?xml version="1.0" encoding="UTF-8" standalone="no"?>
<svg
   width="249.47971mm"
   height="141.9409mm"
   viewBox="0 0 249.47971 141.94091"
   version="1.1"
   id="svg152"
   inkscape:version="1.1 (c4e8f9ed74, 2021-05-24)"
   sodipodi:docname="hand.svg"
   xmlns:inkscape="http://www.inkscape.org/namespaces/inkscape"
   xmlns:sodipodi="http://sodipodi.sourceforge.net/DTD/sodipodi-0.dtd"
   xmlns="http://www.w3.org/2000/svg"
   xmlns:svg="http://www.w3.org/2000/svg"
   xmlns:rdf="http://www.w3.org/1999/02/22-rdf-syntax-ns#"
   xmlns:cc="http://creativecommons.org/ns#"
   xmlns:dc="http://purl.org/dc/elements/1.1/">
  <defs
     id="defs146" />
  <sodipodi:namedview
     id="base"
     pagecolor="#ffffff"
     bordercolor="#666666"
     borderopacity="1.0"
     inkscape:pageopacity="0.0"
     inkscape:pageshadow="2"
     inkscape:zoom="0.98994949"
     inkscape:cx="645.55192"
     inkscape:cy="352.79455"
     inkscape:document-units="mm"
     inkscape:current-layer="layer1"
     inkscape:document-rotation="0"
     showgrid="false"
     inkscape:window-width="1920"
     inkscape:window-height="1006"
     inkscape:window-x="0"
     inkscape:window-y="38"
     inkscape:window-maximized="1"
     inkscape:pagecheckerboard="0"
     fit-margin-top="0"
     fit-margin-left="0"
     fit-margin-right="0"
     fit-margin-bottom="0"
     inkscape:rotation="1"
     showguides="false"
     inkscape:snap-nodes="false" />
  <metadata
     id="metadata149">
    <rdf:RDF>
      <cc:Work
         rdf:about="">
        <dc:format>image/svg+xml</dc:format>
        <dc:type
           rdf:resource="http://purl.org/dc/dcmitype/StillImage" />
      </cc:Work>
    </rdf:RDF>
  </metadata>
  <g
     inkscape:label="Layer 1"
     inkscape:groupmode="layer"
     id="layer1"
     transform="translate(-51.799579,-43.54001)"
     style="display:inline">
    <path
       style="display:none;fill:none;stroke:#000000;stroke-width:0.565;stroke-linecap:butt;stroke-linejoin:miter;stroke-miterlimit:4;stroke-dasharray:none;stroke-opacity:1"
       d="m 161.4739,79.993116 c 0,0 30.79414,-10.441154 33.19741,-10.518796 2.40328,-0.07764 9.72402,36.3249 9.72402,36.3249 0,0 -29.68896,3.89459 -33.11503,4.31315 -10.60554,0.33594 -15.10388,-28.821115 -9.8064,-30.119254 z"
       id="path50"
       sodipodi:nodetypes="csccc"
       inkscape:label="Outline" />
    <rect
       style="display:none;fill:#dfc3ae;fill-opacity:1;stroke:none;stroke-width:0.521341;stroke-miterlimit:4;stroke-dasharray:none"
       id="rect14778"
       width="238.72423"
       height="128.35443"
       x="-11.141411"
       y="61.975513"
       sodipodi:insensitive="true"
       inkscape:label="BG" />
    <g
       id="g192"
       style="display:inline"
       inkscape:label="Hand">
      <path
         class="st8"
         d="m 126.41261,148.41165 c 0.21278,-0.1268 0.4551,-0.2695 0.73891,-0.41657 0.28479,-0.14257 0.60812,-0.30302 0.98872,-0.39583 0.3806,-0.0928 0.83098,-0.12543 1.30657,-0.0645 0.47207,0.0664 0.99932,0.2339 1.43097,0.61102 0.21484,0.18406 0.39904,0.42201 0.54062,0.7023 0.1361,0.27678 0.22059,0.59788 0.25206,0.93532 0.0604,0.68485 -0.0813,1.43756 -0.32652,2.21295 -0.24523,0.77539 -0.59706,1.60244 -0.9341,2.49699 -0.34604,0.89653 -0.71274,1.84947 -1.11064,2.87528 -0.19495,0.50966 -0.39945,1.04029 -0.61,1.5864 -0.21055,0.5461 -0.42264,1.10669 -0.67172,1.67067 -0.49564,1.11797 -1.14838,2.29394 -2.26076,3.0942 -0.54494,0.39766 -1.16447,0.67016 -1.78743,0.75474 -0.62647,0.0901 -1.24485,-0.0198 -1.79489,-0.2483 -0.55455,-0.22756 -1.03627,-0.57485 -1.46793,-0.95197 -0.42715,-0.37811 -0.80523,-0.79056 -1.15981,-1.20343 -0.69665,-0.8332 -1.29935,-1.66812 -1.91833,-2.40514 -0.60646,-0.74448 -1.18112,-1.42988 -1.73198,-2.04975 -2.19742,-2.49494 -3.88679,-4.09178 -5.07991,-5.18886 -1.20114,-1.0906 -1.90953,-1.67596 -2.31037,-1.99852 -0.34301,-0.2739 -0.4557,-0.3577 -0.48412,-0.37978 0.0229,0.0186 0.1196,0.11531 0.45052,0.42016 0.37777,0.34648 1.05959,0.96124 2.22965,2.08224 0.85011,0.82317 1.96178,1.91451 3.34758,3.41747 -0.14784,-0.0289 -0.3791,-0.0726 -0.76214,-0.16322 -0.21523,-0.0566 -0.47842,-0.11689 -0.79451,-0.2033 -0.31004,-0.10189 -0.68408,-0.19447 -1.10991,-0.35119 -0.85769,-0.29794 -1.95032,-0.74253 -3.30045,-1.47975 -1.34465,-0.73371 -2.31864,-1.41183 -3.04165,-1.95625 -0.72399,-0.54892 -1.20953,-0.95669 -1.53947,-1.25705 -0.33696,-0.28937 -0.51284,-0.46782 -0.6185,-0.56259 -0.0817,-0.0717 -0.11664,-0.10181 -0.12663,-0.10434 0.007,0.0125 0.0333,0.0446 0.10708,0.12277 0.0932,0.10223 0.25947,0.30164 0.57688,0.60945 0.3194,0.31681 0.79439,0.74104 1.51234,1.30544 0.72147,0.55891 1.69392,1.25152 3.04953,1.99225 1.35562,0.74074 2.46626,1.18139 3.32999,1.46386 0.43033,0.15572 0.8114,0.23733 1.12946,0.33275 0.31862,0.0764 0.58884,0.12572 0.80659,0.17235 0.42257,0.0772 0.6669,0.0945 0.80827,0.11539 0.49711,0.54673 1.03207,1.13707 1.60082,1.79547 0.54285,0.62634 1.10751,1.30922 1.70948,2.05468 0.26341,0.31964 0.52274,0.66376 0.79657,1.00942 -0.0128,0.0924 -0.0322,0.2193 -0.0542,0.39865 -0.0342,0.25277 -0.0803,0.60247 -0.14723,1.09353 -0.0724,0.48755 -0.16678,1.11197 -0.35053,1.88804 -0.18376,0.77608 -0.46846,1.71577 -1.01982,2.75161 -0.27892,0.51391 -0.63336,1.04909 -1.10316,1.55293 -0.47528,0.50032 -1.051,0.99435 -1.76629,1.36801 -0.70727,0.36719 -1.56465,0.63048 -2.47952,0.56675 -0.91993,-0.0438 -1.87583,-0.42396 -2.71548,-1.07019 -0.85216,-0.63877 -1.57809,-1.54103 -2.1786,-2.60283 -0.60852,-1.05533 -1.10161,-2.27274 -1.66252,-3.54133 -2.22505,-5.09728 -3.93888,-9.02358 -5.259149,-12.03613 -0.66914,-1.5043 -1.18349,-2.79723 -1.52141,-3.93071 -0.33693,-1.12898 -0.49644,-2.094 -0.54253,-2.88576 -0.0308,-0.39891 -0.009,-0.75267 -0.003,-1.07 0.0349,-0.31425 0.0488,-0.59557 0.10497,-0.83429 0.0779,-0.48403 0.19936,-0.81251 0.27257,-1.05967 0.16417,-0.4133 0.21055,-0.5461 0.21912,-0.57156 -0.0176,0.0274 -0.0839,0.15517 -0.27103,0.54992 -0.0797,0.23914 -0.22362,0.57255 -0.32504,1.05701 -0.0652,0.24069 -0.088,0.52398 -0.13647,0.84119 -0.0195,0.32028 -0.0445,0.67954 -0.0263,1.0859 0.0256,0.80569 0.16651,1.79364 0.48938,2.94457 0.32287,1.15092 0.82767,2.46482 1.47979,3.97757 0.41044,0.94778 0.858609,1.98164 1.347449,3.11508 -0.0423,-0.0426 -0.0902,-0.0887 -0.14,-0.14386 -0.419009,-0.42706 -1.239839,-1.18118 -2.680209,-2.65332 -1.42982,-1.48861 -2.16994,-2.32644 -2.58796,-2.749 -0.4155,-0.43255 -0.50286,-0.4653 -0.50286,-0.4653 0,0 0.0187,0.0855 0.37559,0.57336 0.36037,0.48236 1.04086,1.37099 2.47815,2.87211 0.8694,0.8897 1.53475,1.49392 2.02874,1.91871 0.039,0.15654 0.0907,0.41408 0.16242,0.8276 0.15853,0.96052 0.444449,2.76102 0.725639,6.13326 0.2577,3.37267 0.27568,5.19885 0.32421,6.17403 0.0412,0.92018 0.0697,1.09319 0.0726,1.10669 0.006,-0.0155 0.048,-0.18976 0.0918,-1.10969 0.0354,-0.97943 0.096,-2.81337 -0.16021,-6.20053 -0.28414,-3.38574 -0.65053,-5.18748 -0.892039,-6.13926 -0.08,-0.32208 -0.15278,-0.5467 -0.21527,-0.70281 0.27815,0.23623 0.505509,0.41283 0.670539,0.54176 0.15757,0.11642 0.26928,0.19572 0.35257,0.25295 1.05215,2.43451 2.29389,5.30389 3.75944,8.69969 0.55739,1.27408 1.05597,2.495 1.68489,3.57888 0.22968,0.4025 0.47341,0.78305 0.74471,1.1387 -0.0837,0.0702 -0.20995,0.18278 -0.4154,0.36457 -0.44944,0.38147 -1.22919,1.08528 -2.7352,2.15572 -0.75674,0.52896 -1.69616,1.14983 -2.89355,1.79891 -1.197389,0.64907 -2.647809,1.34886 -4.447669,1.91765 -0.89592,0.28117 -1.88524,0.54505 -2.95592,0.60979 -0.53535,0.0324 -1.09349,0.004 -1.64731,-0.13441 -0.54932,-0.13909 -1.08981,-0.3886 -1.55691,-0.77683 -0.95025,-0.7635 -1.5688,-1.97229 -2.06459,-3.28816 -0.24888,-0.66243 -0.47668,-1.35779 -0.7139,-2.07466 -0.23722,-0.71688 -0.47487,-1.45724 -0.69397,-2.22054 -0.44465,-1.53461 -0.76255,-3.00736 -0.89125,-4.41308 -0.12771,-1.40122 -0.0382,-2.73681 0.062,-3.98041 0.10372,-1.24909 0.2197,-2.42068 0.23752,-3.5236 0.0258,-1.1094 -0.0615,-2.13267 -0.18362,-3.07759 -0.24517,-1.89433 -0.59925,-3.46765 -0.83806,-4.81623 -0.24782,-1.3466 -0.40639,-2.45805 -0.48008,-3.37584 -0.15387,-1.84358 -0.006,-2.89013 0.0649,-3.47164 0.0663,-0.4296 0.0928,-0.60993 0.098,-0.67238 -0.0187,0.0654 -0.0607,0.2397 -0.15144,0.66522 -0.10068,0.57392 -0.28928,1.62935 -0.17845,3.49179 0.0457,0.76828 0.14438,1.67114 0.30912,2.72464 l -0.005,9.8e-4 c -0.0925,0.0297 -0.26765,0.0917 -0.59042,0.23311 -0.30125,0.13203 -0.72514,0.32865 -1.31779,0.63772 -0.59068,0.31806 -1.36208,0.73703 -2.27321,1.42246 -0.91367,0.69541 -1.50241,1.36681 -1.89539,1.91986 -0.39748,0.55403 -0.5947,0.98873 -0.72107,1.2947 -0.12087,0.30949 -0.16091,0.49278 -0.1862,0.59266 -0.0198,0.10339 -0.0194,0.12688 -0.0194,0.12688 0,0 0.015,-0.0175 0.0658,-0.10875 0.0507,-0.0913 0.12722,-0.25899 0.282,-0.54289 0.16027,-0.28038 0.38887,-0.6795 0.79424,-1.19753 0.40635,-0.51353 0.98948,-1.14597 1.87361,-1.82547 0.8906,-0.6715 1.64104,-1.10003 2.2123,-1.44214 0.57224,-0.33761 0.97826,-0.57277 1.25911,-0.73335 0.28788,-0.17155 0.44412,-0.27652 0.52625,-0.33225 0.0354,0.20451 0.0662,0.41 0.10456,0.62802 0.18403,1.12002 0.44603,2.4022 0.65647,3.87963 -0.0145,-0.002 -0.028,10e-4 -0.047,8.5e-4 -0.19593,0.01 -0.60439,0.0617 -1.10797,0.49742 -0.24454,0.21866 -0.52226,0.50119 -0.80431,0.89315 -0.28655,0.39294 -0.55042,0.88941 -0.84156,1.47675 -0.58972,1.16217 -1.41581,2.64496 -2.66968,4.45731 -1.26034,1.80434 -2.34627,3.11294 -3.20232,4.09288 -0.85957,0.98544 -1.49375,1.64321 -1.93641,2.09866 -0.3725,0.38819 -0.61113,0.63385 -0.75652,0.78834 0.27587,-0.82928 0.3453,-1.48125 0.35769,-1.9415 0.007,-0.54871 -0.0589,-0.85027 -0.0909,-1.01779 -0.042,-0.17004 -0.0534,-0.20056 -0.0534,-0.20056 0,0 -0.001,0.038 0.008,0.21042 0.004,0.16894 0.0241,0.47585 -0.0215,0.99996 -0.0546,0.52609 -0.17629,1.28386 -0.60909,2.27957 -0.2169,0.49561 -0.51142,1.04596 -0.90804,1.64698 -0.39663,0.60101 -0.89184,1.24721 -1.47973,1.96559 -2.36252,2.8665 -3.67795,4.37631 -4.36413,5.20584 -0.3466,0.42026 -0.53923,0.66056 -0.63709,0.7952 0.12147,-0.67281 0.0694,-1.14724 0.005,-1.42081 -0.0489,-0.20155 -0.0935,-0.31913 -0.12277,-0.38818 -0.0248,-0.07 -0.0332,-0.0871 -0.0332,-0.0871 l 0.0207,0.0945 c 0.0203,0.071 0.0514,0.19156 0.0868,0.39607 0.0543,0.39847 0.0989,1.16224 -0.39245,2.36418 -0.2367,0.599 -0.60713,1.29805 -1.05699,2.15129 -0.45085,0.84873 -0.99308,1.84012 -1.74501,2.92933 -0.75939,1.07669 -1.749,2.26514 -3.20722,3.23078 -0.72159,0.47409 -1.56641,0.88085 -2.52311,1.09986 -0.94771,0.21703 -2.02024,0.23029 -3.07583,-0.0668 -0.52429,-0.15401 -1.0154,-0.37189 -1.44084,-0.65603 -0.21848,-0.1361 -0.4139,-0.29611 -0.59681,-0.46358 l -0.0643,-0.0567 -0.0353,-0.0536 c -0.0289,-0.0456 -0.0597,-0.10013 -0.0805,-0.15217 -0.0462,-0.10309 -0.0843,-0.21266 -0.11347,-0.32419 -0.0538,-0.22406 -0.0506,-0.44644 -0.009,-0.66771 0.0472,-0.23674 0.0899,-0.4725 0.13905,-0.70025 0.0213,-0.11787 0.0527,-0.23323 0.0795,-0.34759 -0.0114,0.12041 -0.0219,0.2878 -0.009,0.52073 0.008,0.12096 0.0237,0.25894 0.0672,0.4145 0.0425,0.15106 0.11093,0.33418 0.26289,0.48956 0.0728,0.0737 0.18248,0.14398 0.2818,0.18826 0.10031,0.0488 0.20863,0.0911 0.32243,0.13691 0.23015,0.0816 0.4918,0.15641 0.79057,0.1853 0.29525,0.0344 0.63311,0.0264 0.98079,-0.0875 0.34867,-0.1094 0.69377,-0.36423 0.93223,-0.71834 0.45286,-0.68881 0.83071,-1.52627 1.25395,-2.50102 0.20887,-0.48914 0.41985,-1.01175 0.63644,-1.57333 0.1078,-0.28304 0.20913,-0.5741 0.31749,-0.87612 0.0514,-0.15278 0.10189,-0.31005 0.14686,-0.47084 0.0505,-0.15727 0.092,-0.35505 0.097,-0.52595 0.0476,-0.70852 -0.18258,-1.43637 -0.71806,-1.85678 -0.25873,-0.21218 -0.57525,-0.32209 -0.87599,-0.35998 -0.30173,-0.0424 -0.59767,-0.0153 -0.86673,0.0484 -0.50662,0.12042 -0.93669,0.375 -1.26349,0.69186 0.11908,-0.21004 0.23267,-0.4236 0.34472,-0.62266 0.28187,-0.50041 0.54112,-0.95341 0.77477,-1.37251 0.42611,-0.76784 0.78686,-1.40345 1.08434,-1.9403 1.39185,-2.32369 3.6271,-6.07265 7.18767,-12.12601 0.0259,0.0321 0.0538,0.0731 0.0981,0.12474 0.16983,0.19392 0.49051,0.5812 1.27777,1.03136 0.80133,0.42821 1.29788,0.49868 1.55164,0.53743 0.21831,0.0276 0.27781,0.0193 0.29131,0.0164 -0.006,-0.008 -0.0594,-0.0342 -0.27558,-0.0953 -0.24364,-0.0787 -0.71559,-0.18757 -1.49047,-0.60271 -0.76081,-0.43709 -1.10061,-0.78245 -1.30053,-0.94148 -0.0533,-0.0496 -0.0937,-0.0832 -0.1286,-0.11333 0.39534,-0.67149 0.80726,-1.37491 1.23775,-2.10126 0.005,-9.9e-4 0.005,0.004 0.005,0.004 0.17022,0.0665 0.46521,0.18581 1.00583,0.39284 0.53106,0.228 0.82254,0.35282 0.99375,0.4238 0.16023,0.064 0.19173,0.0571 0.19173,0.0571 0,0 -0.0114,-0.0305 -0.15054,-0.12739 -0.13914,-0.0969 -0.41348,-0.27262 -0.96901,-0.50468 -0.54259,-0.21604 -0.85924,-0.28346 -1.03606,-0.31548 0.60131,-1.0232 1.23325,-2.10028 1.90837,-3.23869 0.0265,0.0131 0.0529,0.0261 0.0938,0.0408 0.19611,0.0985 0.58648,0.24415 1.17276,0.72419 0.5632,0.50396 0.76699,0.8744 0.8904,1.05019 0.11638,0.18676 0.1493,0.20785 0.1493,0.20785 0,0 0.0111,-0.0354 -0.0732,-0.2481 -0.0913,-0.20168 -0.26602,-0.61151 -0.85765,-1.13755 -0.61118,-0.5076 -1.04163,-0.62084 -1.25236,-0.67845 -0.0354,-0.0111 -0.0599,-0.0152 -0.0889,-0.0183 1.19206,-2.02994 2.49715,-4.25443 3.92132,-6.68897 0.95446,-1.62884 1.86267,-3.16737 2.63432,-4.66182 0.77164,-1.49446 1.40474,-2.95385 1.86428,-4.36579 0.45856,-1.41644 0.77746,-2.75984 1.18994,-3.97751 0.40798,-1.21669 0.90953,-2.30765 1.54941,-3.1978 0.6389,-0.89464 1.41261,-1.58298 2.17342,-2.13642 0.7317,-0.51404 2.15863,-1.2134 2.15863,-1.2134 l 0.0475,-0.0198 c 0,0 0.0465,-0.0244 0.0771,-0.0358 1.46971,-0.63326 2.77593,-0.91468 3.83954,-1.11937 1.07008,-0.19668 1.92147,-0.29356 2.58339,-0.37252 0.6639,-0.07 1.14381,-0.1185 1.48926,-0.15643 0.5909,-0.0587 0.77938,-0.0811 0.82438,-0.091 -0.037,0.003 -0.22589,0.002 -0.83072,0.0405 -0.34489,0.019 -0.82875,0.0495 -1.49659,0.10143 -0.54589,0.0488 -1.22174,0.10726 -2.04471,0.22622 0.12405,-0.0366 0.27961,-0.0801 0.45668,-0.13306 0.2256,-0.0683 0.49621,-0.14643 0.81984,-0.24091 0.16006,-0.0445 0.33713,-0.0974 0.52222,-0.15685 0.18411,-0.0639 0.38523,-0.13627 0.59986,-0.21159 0.42826,-0.15513 0.91405,-0.32758 1.47438,-0.52579 0.55583,-0.19723 1.16185,-0.46677 1.85087,-0.74506 2.73816,-1.15169 6.59691,-3.00165 11.729329,-6.2721 2.5667,-1.63297 5.44782,-3.61783 8.69693,-5.98989 3.25558,-2.36404 6.85326,-5.14735 10.98298,-8.19343 8.28337,-6.069099 14.90873,-10.383539 20.05551,-13.609963 5.15227,-3.222908 8.82596,-5.357799 11.40269,-6.837315 2.57224,-1.478529 4.04302,-2.300697 4.86251,-2.758504 0.46508,-0.266969 0.7209,-0.412627 0.85957,-0.490172 -0.009,0.02546 -0.0354,0.139827 -0.0979,0.478976 -0.0522,0.407648 -0.18337,1.1439 -0.0918,2.444556 0.048,0.649834 -0.0563,1.441294 0.43365,2.367178 0.26809,0.922369 0.72217,1.983233 1.45843,3.10492 0.36813,0.560843 0.7952,1.13236 1.22862,1.754371 0.4299,0.627498 0.87613,1.30802 1.18807,2.10758 0.31545,0.794073 0.49211,1.70817 0.55063,2.68588 0.064,0.981224 0.0208,2.033092 -0.0175,3.149943 -0.0384,1.116851 -0.0596,2.18278 0.0519,3.18663 0.10593,1.00035 0.35897,1.94016 0.75235,2.74546 0.38888,0.80629 0.87309,1.48793 1.33604,2.09404 0.46844,0.60962 0.93657,1.15327 1.35083,1.66628 0.84102,1.01855 1.48045,1.93504 1.88116,2.79534 0.40873,0.85383 0.56284,1.62193 0.5934,2.25672 0.0261,0.63577 -0.0579,1.13528 -0.16398,1.51228 -0.11059,0.37799 -0.2388,0.63248 -0.33679,0.8096 -0.006,0.0155 -0.0131,0.0265 -0.0236,0.0429 -0.0605,0.004 -0.18047,0.016 -0.42844,0.0467 -0.38947,0.0523 -1.08543,0.14815 -2.30207,0.38636 -1.21565,0.24272 -2.94847,0.62231 -5.38491,1.32112 -2.43448,0.70781 -5.59003,1.7198 -9.47719,3.5477 -3.8797,1.84041 -6.65044,3.68316 -8.64622,5.25239 -1.9993,1.57471 -3.19227,2.91147 -3.99474,3.85609 -0.19164,0.24481 -0.3667,0.45768 -0.51771,0.65113 -0.15552,0.19444 -0.28797,0.36496 -0.3899,0.52407 -0.20836,0.31922 -0.36148,0.54615 -0.46692,0.71075 -0.0186,0.0229 -0.0281,0.0439 -0.0432,0.0613 0.0952,-0.72836 0.13617,-1.40242 0.13852,-2.01612 -0.006,-1.25341 -0.17958,-2.26245 -0.40613,-3.03827 -0.22655,-0.77581 -0.51127,-1.32191 -0.73799,-1.71091 -0.22671,-0.38899 -0.42145,-0.61048 -0.53445,-0.76025 l -0.11398,-0.15427 0.0549,0.18608 c 0.12714,0.42968 0.15895,0.48875 0.15895,0.48875 0,0 -0.002,-0.0515 -0.0545,-0.31352 0.094,0.14921 0.21784,0.34849 0.35943,0.62879 0.19521,0.3959 0.44546,0.93539 0.64106,1.69912 0.1911,0.76471 0.33908,1.74169 0.32538,2.97106 -0.0192,1.22585 -0.19754,2.69412 -0.64546,4.39595 -0.65646,2.40787 -1.47585,4.15806 -2.145,5.47441 -0.68013,1.30932 -1.22802,2.18875 -1.62366,2.79427 -0.24604,0.38407 -0.43178,0.65588 -0.56183,0.85889 0.46589,-1.36144 0.86739,-3.08141 0.99575,-5.20851 0.15772,-2.74671 -0.002,-4.89566 -0.42473,-6.48218 -0.207,-0.79425 -0.4549,-1.45218 -0.72118,-1.97874 -0.12513,-0.26974 -0.26136,-0.50404 -0.38717,-0.71232 -0.11779,-0.21476 -0.24669,-0.39406 -0.36363,-0.56183 -0.4638,-0.65309 -0.7922,-0.96793 -0.97159,-1.14089 -0.15744,-0.1589 -0.2088,-0.19953 -0.21977,-0.20656 0.006,0.008 0.0428,0.0661 0.17969,0.23893 0.15633,0.19688 0.45266,0.5376 0.87146,1.20055 0.10695,0.16524 0.22235,0.3475 0.33114,0.56423 0.11681,0.21025 0.23855,0.44301 0.35017,0.71571 0.24181,0.52248 0.46874,1.17086 0.6538,1.95105 0.3846,1.56191 0.52518,3.66783 0.36352,6.39654 -0.16363,2.71971 -0.75901,4.76044 -1.35173,6.25343 -0.59723,1.49399 -1.18138,2.46626 -1.61118,3.13114 -0.43079,0.66039 -0.70723,1.01339 -0.85627,1.21584 -0.0477,0.0623 -0.0803,0.10721 -0.11037,0.1421 -0.14622,-0.23683 -0.31901,-0.44425 -0.5164,-0.61327 -0.48456,-0.40327 -1.05329,-0.56641 -1.55786,-0.6304 -0.50611,-0.0495 -0.96901,-0.009 -1.37014,0.0973 -0.40464,0.11222 -0.72952,0.28716 -1.01234,0.43873 -0.28183,0.15608 -0.52218,0.30778 -0.7275,0.44709 -0.41613,0.27512 -0.70513,0.48464 -0.91396,0.62944 -0.18381,0.12989 -0.3025,0.21249 -0.38013,0.26723 -0.68246,-0.89763 -1.16324,-1.39135 -1.44873,-1.68257 -0.37919,-0.37447 -0.45909,-0.3947 -0.45909,-0.3947 0,0 0.0178,0.081 0.33183,0.50276 0.30606,0.42822 0.93095,1.19224 1.97045,2.68617 1.02346,1.50687 1.51616,2.35645 1.81069,2.79663 0.28201,0.44764 0.35236,0.48883 0.35236,0.48883 0,0 0.006,-0.0814 -0.20919,-0.56736 -0.22393,-0.48395 -0.64801,-1.3863 -1.68441,-2.9092 -0.23585,-0.34454 -0.45734,-0.64507 -0.66194,-0.91156 0.0841,-0.0467 0.20927,-0.12131 0.40053,-0.23868 0.26174,-0.11865 0.56466,-0.30765 0.98825,-0.57024 z"
         stroke="#000000"
         stroke-width="0.276453"
         id="path62"
         sodipodi:nodetypes="ccsccccsccscccccccccccccccccccccccccscccccccccsccccccccccccccccccsccccccccccccccccccccccccscscccscccccccccccccsccccccsccccccccccccccccccccccscccccccccccccccccccccccccccccccccccccccccccccccccccccccccsccccccccccccsccccccccccccccccccccccccccccccscccsccccccccccccccccccccssccccccccccccccccccccccccccccccccccccccccccccccc"
         style="mix-blend-mode:normal;fill:#e9bba3" />
      <path
         class="st16"
         d="m 171.61191,115.15746 c 0.098,-0.17711 0.2262,-0.43161 0.33679,-0.80959 0.11157,-0.37349 0.19005,-0.87651 0.16398,-1.51228 -0.0306,-0.63479 -0.18116,-1.40838 -0.5934,-2.25672 -0.0715,-0.15414 -0.15299,-0.31081 -0.23898,-0.4665 -1.02015,-0.28594 -2.12881,-0.22232 -3.19512,-0.11609 -15.88906,1.53731 -30.45282,9.72743 -42.88562,19.74312 -2.16073,1.74214 -4.30624,3.57529 -5.85394,5.87652 -5.56686,8.28524 -1.93233,19.79522 5.30104,25.81418 0.70938,0.58986 1.40016,1.05172 2.07079,1.40008 0.56525,-0.67097 0.97041,-1.44838 1.30552,-2.20101 0.24908,-0.56398 0.46567,-1.12556 0.67172,-1.67067 0.20956,-0.55061 0.41055,-1.07575 0.61,-1.5864 0.39439,-1.02033 0.76461,-1.97875 1.11065,-2.87528 0.33704,-0.89455 0.68886,-1.7216 0.93409,-2.49699 0.24424,-0.77989 0.38594,-1.5326 0.32652,-2.21295 -0.0315,-0.33744 -0.11595,-0.65854 -0.25205,-0.93532 -0.14511,-0.27481 -0.32578,-0.51823 -0.54063,-0.7023 -0.43165,-0.37712 -0.95889,-0.54463 -1.43097,-0.61102 -0.4791,-0.0554 -0.92499,-0.0238 -1.30657,0.0645 -0.38158,0.0883 -0.70843,0.25424 -0.98872,0.39583 -0.28381,0.14707 -0.52613,0.28977 -0.73891,0.41657 -0.42359,0.2626 -0.72651,0.45159 -0.94731,0.58486 -0.19126,0.11737 -0.31643,0.19195 -0.40053,0.23868 0.2046,0.26649 0.42609,0.56701 0.66193,0.91156 1.03641,1.5229 1.46048,2.42525 1.68442,2.9092 0.21043,0.4869 0.20918,0.56736 0.20918,0.56736 0,0 -0.0713,-0.0457 -0.35235,-0.48883 -0.29453,-0.44018 -0.78723,-1.28976 -1.8107,-2.79663 -1.04399,-1.49294 -1.66438,-2.25795 -1.97045,-2.68617 -0.31506,-0.42625 -0.33182,-0.50276 -0.33182,-0.50276 0,0 0.0799,0.0202 0.45909,0.3947 0.2845,0.28672 0.76176,0.78592 1.44873,1.68257 0.0776,-0.0547 0.19632,-0.13735 0.38012,-0.26723 0.20884,-0.1448 0.49784,-0.35433 0.91397,-0.62944 0.20631,-0.13481 0.44566,-0.29102 0.7275,-0.44709 0.28732,-0.15256 0.6122,-0.3275 1.01234,-0.43873 0.40113,-0.10674 0.86305,-0.15133 1.37014,-0.0973 0.50358,0.0595 1.07232,0.22263 1.55785,0.6304 0.1974,0.16901 0.37019,0.37644 0.51641,0.61327 0.0246,-0.0384 0.0572,-0.0833 0.11037,-0.1421 0.14904,-0.20246 0.42548,-0.55545 0.85626,-1.21584 0.42629,-0.6594 1.00946,-1.63617 1.61119,-3.13114 0.58822,-1.49201 1.1881,-3.53373 1.35173,-6.25343 0.15716,-2.72773 0.0211,-4.83463 -0.36352,-6.39655 -0.18506,-0.78018 -0.41199,-1.42856 -0.6538,-1.95104 -0.11064,-0.2682 -0.23688,-0.49997 -0.35017,-0.71571 -0.1088,-0.21673 -0.22869,-0.398 -0.33114,-0.56423 -0.4188,-0.66295 -0.71513,-1.00368 -0.87146,-1.20056 -0.13691,-0.17283 -0.17772,-0.22993 -0.17969,-0.23893 0.011,0.007 0.0623,0.0477 0.21977,0.20657 0.17939,0.17296 0.50877,0.4923 0.97159,1.14088 0.11244,0.16876 0.24584,0.34708 0.36363,0.56183 0.1268,0.21278 0.26303,0.44708 0.38717,0.71233 0.26276,0.53204 0.51417,1.18449 0.72118,1.97873 0.42301,1.58652 0.58244,3.73548 0.42473,6.48219 -0.12836,2.1271 -0.53436,3.84805 -0.99575,5.20851 0.13554,-0.1995 0.32028,-0.47581 0.56183,-0.8589 0.39113,-0.60453 0.94353,-1.48494 1.62366,-2.79426 0.66915,-1.31635 1.48404,-3.06556 2.145,-5.47441 0.44792,-1.70184 0.62627,-3.1701 0.64546,-4.39595 0.0137,-1.22938 -0.13428,-2.20635 -0.32538,-2.97107 -0.1956,-0.76372 -0.44684,-1.30772 -0.64106,-1.69912 -0.14159,-0.28029 -0.26543,-0.47957 -0.35943,-0.62878 0.0527,0.26203 0.0545,0.31351 0.0545,0.31351 0,0 -0.0328,-0.0636 -0.15894,-0.48875 l -0.0549,-0.18607 0.11398,0.15427 c 0.113,0.14977 0.30774,0.37125 0.53445,0.76025 0.22672,0.389 0.51045,0.93059 0.73799,1.71091 0.22655,0.77581 0.39943,1.78035 0.40613,3.03827 -0.003,0.6092 -0.0489,1.28424 -0.13852,2.01612 0.0141,-0.022 0.0246,-0.0384 0.0432,-0.0613 0.10544,-0.1646 0.25855,-0.39153 0.46692,-0.71075 0.0964,-0.16263 0.23438,-0.32964 0.38989,-0.52407 0.15102,-0.19346 0.32607,-0.40633 0.51772,-0.65113 0.80247,-0.94463 1.99642,-2.27688 3.99473,-3.8561 1.99579,-1.56922 4.76653,-3.41198 8.64623,-5.25239 3.88815,-1.82339 7.04271,-2.83988 9.47718,-3.5477 2.43645,-0.69881 4.16828,-1.0829 5.38492,-1.32111 1.21664,-0.23822 1.9126,-0.33407 2.30207,-0.38637 0.24797,-0.0307 0.36795,-0.0429 0.42843,-0.0467 -0.0149,-0.025 -0.009,-0.0405 -0.003,-0.056 z"
         id="path66"
         style="mix-blend-mode:normal;fill:#d4aa94;stroke-width:0.0460755" />
      <path
         class="st11"
         d="m 57.354961,175.28886 c 0.42629,0.33113 0.63184,0.94645 0.59095,1.57803 -0.006,0.1664 -0.0389,0.29624 -0.0848,0.45253 -0.0424,0.1508 -0.0929,0.30807 -0.1453,0.45634 -0.0994,0.30006 -0.20618,0.5876 -0.31047,0.86515 -0.21209,0.56059 -0.41406,1.08123 -0.61943,1.56488 -0.40622,0.96631 -0.78209,1.81278 -1.19389,2.47372 -0.20584,0.30923 -0.48287,0.53029 -0.78104,0.63334 -0.29718,0.10755 -0.6041,0.12761 -0.87839,0.1028 -0.27781,-0.0193 -0.52651,-0.0781 -0.7492,-0.1472 -0.21917,-0.0746 -0.43088,-0.13673 -0.55048,-0.25204 -0.12958,-0.11783 -0.20009,-0.26747 -0.24965,-0.40756 -0.0496,-0.14008 -0.0736,-0.27159 -0.0893,-0.38608 -0.0323,-0.23349 -0.0373,-0.40692 -0.0404,-0.52887 -7.3e-4,-0.0895 -0.005,-0.14994 -0.004,-0.19242 0.0613,-0.25869 0.12349,-0.51288 0.1922,-0.75906 0.007,-0.0345 0.0187,-0.0654 0.0298,-0.10086 0.0615,-0.19272 0.13969,-0.41738 0.24244,-0.68044 0.13703,-0.36492 0.32525,-0.79764 0.52131,-1.34529 0.19606,-0.54765 0.38393,-1.19727 0.73537,-1.89687 0.17896,-0.3458 0.40293,-0.70145 0.71173,-1.01437 0.29881,-0.31545 0.71734,-0.55807 1.20244,-0.66905 0.47765,-0.1235 1.04677,-0.0878 1.47054,0.25332 z"
         id="path68"
         style="mix-blend-mode:normal;fill:#ffdcc9;stroke-width:0.0460755" />
      <path
         class="st10"
         d="m 89.438491,130.78096 c -0.41067,-1.70243 -6.73597,-1.09981 -7.10563,-0.65564 -4.53439,5.4837 -2.3437,7.56032 -2.8936,9.7656 -1.66781,6.66229 -3.78135,16.28531 -9.37132,23.45302 -1.49057,1.91608 -3.11775,3.72531 -4.55149,5.68554 -2.14082,2.93114 -3.8223,6.17202 -5.30909,9.48345 -0.79899,1.77874 -1.60779,3.6634 -3.14668,4.86368 -0.90719,0.70342 -2.00492,1.11841 -3.02454,1.65308 0.0973,0.0353 0.1937,0.0661 0.29007,0.0968 1.0601,0.29606 2.12812,0.28379 3.07583,0.0667 0.9522,-0.21802 1.79604,-0.62928 2.52311,-1.09986 1.4547,-0.96015 2.44432,-2.14859 3.20722,-3.23077 0.75643,-1.0902 1.29768,-2.08609 1.74501,-2.92934 0.44986,-0.85323 0.82029,-1.55228 1.05699,-2.15128 0.49139,-1.20194 0.44672,-1.96571 0.39245,-2.36419 -0.0354,-0.20451 -0.0665,-0.32504 -0.0868,-0.39607 l -0.0207,-0.0945 c 0,0 0.008,0.017 0.0332,0.0871 0.0293,0.0691 0.0739,0.18664 0.12277,0.38819 0.0656,0.27806 0.11669,0.74799 -0.005,1.4208 0.10236,-0.13562 0.29049,-0.37494 0.63709,-0.79519 0.68168,-0.82855 2.00161,-2.33934 4.36413,-5.20584 0.58789,-0.71839 1.0831,-1.36458 1.47973,-1.9656 0.39662,-0.60101 0.69114,-1.15136 0.90804,-1.64697 0.4328,-0.99572 0.55453,-1.75349 0.60909,-2.27957 0.0446,-0.52862 0.0255,-0.83103 0.0215,-0.99996 -0.009,-0.17245 -0.008,-0.21043 -0.008,-0.21043 0,0 0.0169,0.034 0.0534,0.20057 0.032,0.16752 0.099,0.47357 0.0909,1.01779 -0.0124,0.46024 -0.0773,1.11123 -0.35769,1.94149 0.1499,-0.15547 0.38402,-0.40015 0.75652,-0.78834 0.44266,-0.45545 1.07684,-1.11322 1.93641,-2.09865 0.85605,-0.97995 1.94198,-2.28855 3.20232,-4.09288 1.25387,-1.81235 2.08094,-3.29065 2.66968,-4.45731 0.29212,-0.58284 0.55501,-1.08381 0.84156,-1.47676 0.28205,-0.39196 0.55527,-0.6735 0.80431,-0.89314 0.49907,-0.43479 0.90754,-0.48653 1.10797,-0.49742 0.019,5.5e-4 0.0325,-0.002 0.047,-8.6e-4 -0.21044,-1.47743 -0.47596,-2.75412 -0.65647,-3.87963 -0.0383,-0.21801 -0.0692,-0.42351 -0.10456,-0.62801 -0.0866,0.0567 -0.23837,0.1607 -0.52625,0.33225 -0.27986,0.16507 -0.68138,0.39925 -1.25911,0.73335 -0.57126,0.34211 -1.3217,0.77064 -2.2123,1.44213 -0.88511,0.67501 -1.46824,1.30744 -1.87361,1.82547 -0.40636,0.51353 -0.63397,0.91715 -0.79424,1.19753 -0.15478,0.2839 -0.23575,0.45258 -0.282,0.54289 -0.0507,0.0913 -0.0658,0.10875 -0.0658,0.10875 0,0 -4.3e-4,-0.0235 0.0194,-0.12688 0.0198,-0.10339 0.0653,-0.28317 0.1862,-0.59265 0.12637,-0.30598 0.32359,-0.74067 0.72107,-1.29471 0.39298,-0.55305 0.98623,-1.22544 1.89539,-1.91986 0.91563,-0.68641 1.68253,-1.10439 2.27321,-1.42246 0.59166,-0.31356 1.02005,-0.51118 1.31779,-0.63772 0.31827,-0.14047 0.49338,-0.20241 0.59042,-0.2331 l 0.005,-9.9e-4 c -0.16474,-1.05349 -0.26895,-1.95987 -0.30912,-2.72463 -0.11533,-1.86146 0.0788,-2.91337 0.17845,-3.49179 0.0898,-0.43003 0.13176,-0.60432 0.15144,-0.66523 1.08427,-4.56755 4.86618,-7.45725 4.65001,-8.35797 z"
         id="path70"
         style="mix-blend-mode:normal;fill:#c79f8b;stroke-width:0.0460755" />
      <path
         class="st10"
         d="m 115.6954,157.79682 c -0.56874,-0.65841 -1.0992,-1.24973 -1.60082,-1.79548 -0.14137,-0.0209 -0.38668,-0.0427 -0.80826,-0.11538 -0.21776,-0.0466 -0.48798,-0.0959 -0.8066,-0.17236 -0.31707,-0.0909 -0.69913,-0.17702 -1.12945,-0.33275 -0.86824,-0.28148 -1.97438,-0.72311 -3.32999,-1.46385 -1.35562,-0.74074 -2.32708,-1.42884 -3.04953,-1.99225 -0.71796,-0.5644 -1.19295,-0.98863 -1.51234,-1.30545 -0.32192,-0.30682 -0.48275,-0.50271 -0.57689,-0.60945 -0.0692,-0.0792 -0.0996,-0.11024 -0.10707,-0.12276 0.011,0.007 0.0459,0.0371 0.12662,0.10433 0.10566,0.0948 0.28154,0.27322 0.61851,0.5626 0.32993,0.30035 0.81547,0.70812 1.53947,1.25705 0.72301,0.54442 1.697,1.22254 3.04164,1.95624 1.34464,0.73371 2.44277,1.18181 3.30046,1.47976 0.42681,0.16121 0.80085,0.2538 1.10991,0.35118 0.31608,0.0864 0.57928,0.14668 0.7945,0.20331 0.38206,0.0861 0.61782,0.1288 0.76215,0.16322 -1.38679,-1.50747 -2.50297,-2.59782 -3.34759,-3.41748 -1.17006,-1.12099 -1.85089,-1.73126 -2.22965,-2.08223 -0.32993,-0.30035 -0.43208,-0.40061 -0.45052,-0.42016 0.0274,0.0176 0.14013,0.10137 0.48413,0.37978 l 0.0853,0.0662 c -0.10215,-0.10026 -0.1863,-0.20446 -0.22192,-0.32401 -0.36381,-1.16554 -0.78415,-2.30926 -1.25753,-3.43666 -0.24266,-0.56946 -0.50629,-1.14848 -0.9568,-1.56863 -1.09239,-1.02481 -3.01189,-0.72225 -4.02375,0.38617 -1.01186,1.10841 -1.23024,2.75996 -0.95032,4.23161 0.11214,0.59805 0.30376,1.19284 0.65007,1.69715 0.43187,0.6365 1.07918,1.09373 1.5832,1.67198 0.61109,0.70101 1.00631,1.55779 1.4111,2.39361 1.92258,3.97491 4.28916,7.71577 6.64828,11.44411 0.54165,0.85772 1.09526,1.72698 1.83632,2.41839 0.17742,0.16395 0.37284,0.32397 0.59244,0.42208 0.64778,-0.35887 1.17441,-0.81856 1.6151,-1.28301 0.4698,-0.50384 0.82425,-1.03901 1.10317,-1.55293 0.55136,-1.03584 0.83507,-1.98003 1.01981,-2.7516 0.18376,-0.77608 0.2781,-1.4005 0.35054,-1.88804 0.0679,-0.48657 0.11847,-0.83725 0.14723,-1.09354 0.022,-0.17935 0.0404,-0.31073 0.0542,-0.39864 -0.27031,-0.35115 -0.52866,-0.69077 -0.79657,-1.00943 -0.61096,-0.74349 -1.17563,-1.42636 -1.71848,-2.0527 z"
         id="path72"
         style="mix-blend-mode:normal;fill:#c79f8b;stroke-width:0.0460755" />
      <path
         class="st10"
         d="m 104.41739,163.3946 c -1.46555,-3.3958 -2.70828,-6.26968 -3.75945,-8.69969 -0.0833,-0.0572 -0.19499,-0.13653 -0.35257,-0.25295 -0.17051,-0.13245 -0.393369,-0.31004 -0.670539,-0.54176 0.058,0.1571 0.13079,0.38171 0.21528,0.70281 0.241509,0.95178 0.607889,2.75352 0.892039,6.13926 0.26065,3.38617 0.19564,5.2211 0.1602,6.20052 -0.0392,0.91895 -0.0813,1.09324 -0.0918,1.1097 -0.004,-0.018 -0.0369,-0.19002 -0.0726,-1.10669 -0.0485,-0.97518 -0.0665,-2.80137 -0.3242,-6.17403 -0.2802,-3.36774 -0.567119,-5.17275 -0.725639,-6.13327 -0.0717,-0.41351 -0.12342,-0.67105 -0.16243,-0.82759 -0.49398,-0.42479 -1.15934,-1.02901 -2.02874,-1.91871 -1.43728,-1.50112 -2.11876,-2.39425 -2.47814,-2.87211 -0.35588,-0.48334 -0.37559,-0.57336 -0.37559,-0.57336 0,0 0.0828,0.0337 0.50285,0.4653 0.42351,0.42607 1.15814,1.26039 2.58797,2.749 1.44037,1.47214 2.2612,2.22626 2.680209,2.65332 0.0498,0.0551 0.0976,0.10125 0.14,0.14386 -0.48885,-1.13344 -0.937009,-2.1673 -1.347459,-3.11508 -0.65212,-1.51275 -1.15691,-2.82665 -1.47978,-3.97757 -0.32287,-1.15093 -0.46284,-2.13438 -0.48938,-2.94457 -0.0183,-0.40636 0.007,-0.76562 0.0263,-1.08591 0.0484,-0.3172 0.0703,-0.60499 0.13648,-0.84118 0.10043,-0.48897 0.24535,-0.81787 0.32503,-1.05702 0.0332,-0.0639 0.0583,-0.12126 0.0845,-0.17416 -0.0713,-0.0457 -0.14814,-0.0949 -0.22397,-0.13961 -1.75547,-1.05879 -3.95107,-1.67213 -5.8634,-0.92775 -1.51206,0.59065 -2.58856,1.92077 -3.59194,3.19713 -0.31707,0.40435 -0.64468,0.82516 -0.76114,1.32707 -0.13725,0.60079 0.0468,1.22555 0.28494,1.796 0.39596,0.94624 0.94704,1.82549 1.61737,2.60314 0.68679,0.78819 1.50733,1.47634 2.03985,2.37852 0.59515,1.01581 0.77344,2.21728 0.97084,3.37682 0.30985,1.82356 0.7062,3.63289 1.2401,5.40266 0.50617,1.68622 1.13892,3.32585 1.76815,4.97096 0.67484,1.7672 1.36263,3.55042 2.45995,5.093 0.75731,0.93784 1.51599,1.75274 2.504589,2.38992 0.18621,-0.0974 0.36791,-0.1938 0.54512,-0.28922 1.1964,-0.65358 2.14131,-1.27093 2.89354,-1.79891 1.50602,-1.07044 2.29027,-1.77523 2.73521,-2.15571 0.20545,-0.18179 0.33173,-0.29436 0.4154,-0.36457 -0.2713,-0.35565 -0.51503,-0.7362 -0.74471,-1.13871 -0.6264,-1.09386 -1.12498,-2.31479 -1.68236,-3.58886 z"
         id="path74"
         style="mix-blend-mode:normal;fill:#c79f8b;stroke-width:0.0460755" />
      <path
         d="m 54.544461,175.39982 c -1.44308,2.81353 -1.89956,4.86581 -2.48106,6.74185"
         fill="none"
         stroke="#000000"
         stroke-width="0.276453"
         id="path76"
         style="mix-blend-mode:normal" />
    </g>
    <path
       style="fill:#4d4d4d;fill-opacity:1;stroke:#000000;stroke-width:0.264583px;stroke-linecap:butt;stroke-linejoin:miter;stroke-opacity:1"
       d="m 191.14186,64.340277 c 3.84135,-1.57972 25.56624,-6.618371 34.09132,-8.218102 8.52508,-1.599732 29.1751,-7.43943 36.59608,-8.752511 7.42098,-1.31308 17.106,-2.845511 21.47964,-3.636337 4.37364,-0.790825 8.99223,6.334553 9.69772,11.158266 0.70549,4.823713 4.21665,25.392656 4.87663,27.75446 0.65998,2.361805 4.44779,16.557987 2.47371,17.792567 -1.97407,1.23459 -37.57674,3.71202 -39.07679,3.91725 -1.50005,0.20522 -19.83824,1.7423 -24.10592,2.93052 -4.26769,1.18823 -17.35614,2.65046 -21.23279,3.65396 -3.87665,1.00351 -8.35501,1.46348 -8.35501,1.46348 0,0 -3.45119,2.68183 -4.3614,2.78741 -0.91021,0.10558 -1.32063,-3.67362 -1.32063,-3.67362"
       id="path17258" />
    <path
       style="display:inline;fill:#1a1a1a;fill-opacity:1;stroke:#000000;stroke-width:0.264583px;stroke-linecap:butt;stroke-linejoin:miter;stroke-opacity:1"
       d="m 192.19409,70.278214 c 0.10299,-3.129065 -2.57566,-7.072167 0.53148,-5.773466 3.10714,1.298701 6.28146,11.414982 6.28146,11.414982 0,0 2.94581,11.165594 3.83343,13.552259 0.88761,2.386665 4.86812,21.951901 4.04304,23.202821 -0.82508,1.25092 -3.56659,1.92281 -3.75791,1.30365 -0.19133,-0.61917 -1.22117,-2.46084 -1.22117,-2.46084 z"
       id="path15097"
       inkscape:label="Portal"
       sodipodi:nodetypes="cscssscc" />
    <g
       id="g14280"
       style="display:inline">
      <path
         style="display:inline;fill:#e9bba3;fill-opacity:1;stroke:none;stroke-width:0.264583px;stroke-linecap:butt;stroke-linejoin:miter;stroke-opacity:1"
         d="m 161.4739,79.993116 c 0,0 30.79407,-10.44325 33.19741,-10.518796 2.32383,-0.07305 9.50577,36.33752 9.72402,36.3249 0,0 -6.0478,1.38275 -13.11828,2.26612 -7.34634,0.91782 -15.76813,1.43212 -18.96377,1.97491 -10.66031,1.81068 -14.40181,-29.885677 -10.83938,-30.047134 z"
         id="path4462"
         sodipodi:nodetypes="cscssc"
         inkscape:label="Skin" />
      <path
         style="display:inline;fill:#d4aa94;fill-opacity:1;stroke:none;stroke-width:0.265;stroke-linecap:butt;stroke-linejoin:miter;stroke-miterlimit:4;stroke-dasharray:none;stroke-opacity:1"
         d="m 171.61477,115.21347 c 0,0 30.58705,-4.0961 32.38272,-3.70537 1.79567,0.39073 0.39784,-5.70888 0.39784,-5.70888 l -33.11503,4.31315"
         id="path9442" />
    </g>
    <path
       style="display:inline;fill:none;stroke:#000000;stroke-width:0.264583px;stroke-linecap:butt;stroke-linejoin:miter;stroke-opacity:1"
       d="m 161.4739,79.993116 c 1.391,-0.528493 31.63005,-10.712295 32.99174,-10.623652 1.3617,0.08864 2.77857,5.740532 3.94924,9.543794 1.17066,3.803262 1.96446,8.736347 2.18989,10.316175 0.22544,1.579828 3.79056,16.569787 3.79056,16.569787 0,0 1.09163,5.5502 -0.059,5.55119 -1.15058,0.001 -32.72161,3.86306 -32.72161,3.86306"
       id="path14383"
       sodipodi:nodetypes="cssscsc"
       sodipodi:insensitive="true" />
    <rect
       style="display:inline;fill:#d4aa94;fill-opacity:1;stroke:none;stroke-width:0.264999;stroke-miterlimit:4;stroke-dasharray:none"
       id="rect14776"
       width="0.89274371"
       height="0.63151491"
       x="151.98033"
       y="58.122551" />
    <path
       style="fill:#0d1a1a;fill-opacity:0.338704;stroke:none;stroke-width:0.264583px;stroke-linecap:butt;stroke-linejoin:miter;stroke-opacity:1"
       d="m 206.34979,106.99412 c 3.84135,-1.57972 15.0068,-3.05203 23.53188,-4.65177 8.52508,-1.59973 26.7534,-4.501509 34.17438,-5.81459 7.42098,-1.31308 25.33313,-2.461589 29.70677,-3.252415 -1.69304,1.962936 3.45506,-2.847094 7.04424,0.97913 0.65998,2.361805 0.88866,5.397184 -1.08542,6.631765 -1.97407,1.23459 -37.57674,3.71202 -39.07679,3.91725 -1.50005,0.20522 -19.83824,1.7423 -24.10592,2.93052 -4.26769,1.18823 -17.35614,2.65046 -21.23279,3.65396 -3.87665,1.00351 -5.59311,0.16996 -5.59311,0.16996 0,0 0.029,-1.04492 -0.0518,-0.13217 -0.16311,1.84455 -3.10919,1.59555 -3.10919,1.59555"
       id="path17637"
       sodipodi:nodetypes="cssccsssscsc" />
  </g>
</svg>
