<?xml version="1.0" encoding="UTF-8" standalone="no"?>
<!-- Created with Inkscape (http://www.inkscape.org/) -->

<svg
   xmlns:dc="http://purl.org/dc/elements/1.1/"
   xmlns:cc="http://creativecommons.org/ns#"
   xmlns:rdf="http://www.w3.org/1999/02/22-rdf-syntax-ns#"
   xmlns:svg="http://www.w3.org/2000/svg"
   xmlns="http://www.w3.org/2000/svg"
   xmlns:sodipodi="http://sodipodi.sourceforge.net/DTD/sodipodi-0.dtd"
   xmlns:inkscape="http://www.inkscape.org/namespaces/inkscape"
   width="9.0598526mm"
   height="6.7705245mm"
   viewBox="0 0 9.0598526 6.7705245"
   version="1.1"
   id="svg6368"
   inkscape:version="0.92.5 (2060ec1f9f, 2020-04-08)"
   sodipodi:docname="Keyboard-Logo.svg">
  <defs
     id="defs6362" />
  <sodipodi:namedview
     id="base"
     pagecolor="#ffffff"
     bordercolor="#666666"
     borderopacity="1.0"
     inkscape:pageopacity="0.0"
     inkscape:pageshadow="2"
     inkscape:zoom="1.979899"
     inkscape:cx="39.23276"
     inkscape:cy="56.207484"
     inkscape:document-units="mm"
     inkscape:current-layer="layer1"
     showgrid="false"
     inkscape:window-width="1172"
     inkscape:window-height="976"
     inkscape:window-x="8"
     inkscape:window-y="59"
     inkscape:window-maximized="0" />
  <metadata
     id="metadata6365">
    <rdf:RDF>
      <cc:Work
         rdf:about="">
        <dc:format>image/svg+xml</dc:format>
        <dc:type
           rdf:resource="http://purl.org/dc/dcmitype/StillImage" />
        <dc:title></dc:title>
      </cc:Work>
    </rdf:RDF>
  </metadata>
  <g
     inkscape:label="Layer 1"
     inkscape:groupmode="layer"
     id="layer1"
     transform="translate(-24.952216,-0.30521409)">
    <g
       style="display:inline;enable-background:new"
       id="g4346"
       transform="matrix(0.01013978,-0.00565975,0.00553895,0.01036093,22.594912,4.2722118)">
      <path
         d="m 171.75,124.02 h 750 a 8,8 0 0 1 8,8 v 221 a 8,8 0 0 1 -8,8 h -750 a 8,8 0 0 1 -8,-8 v -221 a 8,8 0 0 1 8,-8"
         id="path3675"
         inkscape:connector-curvature="0"
         style="fill:#ffffff;fill-rule:evenodd;stroke:#b4b4b4;stroke-width:4" />
      <g
         transform="translate(-2.002,-52.97)"
         id="g3695"
         style="fill:#eeeeee">
        <path
           d="m 193.14,233.61 c -4.364,0 -7.877,3.513 -7.877,7.876 v 149.66 c 0,4.363 3.513,7.877 7.877,7.877 h 465.73 c 4.364,0 7.877,-3.514 7.877,-7.877 v -149.66 c 0,-4.363 -3.513,-7.876 -7.877,-7.876 z"
           id="path3677"
           inkscape:connector-curvature="0" />
        <path
           d="m 184.803,195.435 h 32.985 c 0.308,0 0.558,0.25 0.558,0.558 v 23.824 c 0,0.308 -0.25,0.558 -0.558,0.558 h -32.985 c -0.308,0 -0.558,-0.25 -0.558,-0.558 v -23.824 c 0,-0.308 0.25,-0.558 0.558,-0.558 z"
           id="path3679"
           inkscape:connector-curvature="0" />
        <path
           d="m 247.986,193.908 h 127.508 c 1.191,0 2.157,0.965 2.157,2.157 v 23.171 c 0,1.191 -0.966,2.156 -2.157,2.156 H 247.986 c -1.191,0 -2.156,-0.965 -2.156,-2.156 v -23.171 c 0,-1.192 0.965,-2.157 2.156,-2.157 z"
           id="path3681"
           inkscape:connector-curvature="0" />
        <path
           d="m 394.067,193.399 h 128 c 1.196,0 2.165,0.969 2.165,2.165 v 24.172 c 0,1.196 -0.969,2.165 -2.165,2.165 h -128 c -1.196,0 -2.165,-0.969 -2.165,-2.165 v -24.172 c 0,-1.196 0.969,-2.165 2.165,-2.165 z"
           id="path3683"
           inkscape:connector-curvature="0" />
        <path
           d="m 539.122,192.89 h 128 c 1.196,0 2.165,0.969 2.165,2.165 v 24.681 c 0,1.196 -0.969,2.165 -2.165,2.165 h -128 c -1.196,0 -2.165,-0.969 -2.165,-2.165 v -24.681 c 0,-1.196 0.969,-2.165 2.165,-2.165 z"
           id="path3685"
           inkscape:connector-curvature="0" />
        <path
           d="m 791.435,234.116 h 120.124 c 1.122,0 2.031,0.91 2.031,2.032 v 157.278 c 0,1.122 -0.909,2.031 -2.031,2.031 H 791.435 c -1.122,0 -2.032,-0.909 -2.032,-2.031 V 236.147 c -10e-4,-1.122 0.909,-2.031 2.032,-2.031 z"
           id="path3687"
           inkscape:connector-curvature="0" />
        <path
           d="m 681.558,233.607 h 93.539 c 0.874,0 1.582,0.708 1.582,1.582 v 51.295 c 0,0.873 -0.708,1.582 -1.582,1.582 h -93.539 c -0.874,0 -1.582,-0.709 -1.582,-1.582 v -51.295 c 0,-0.874 0.708,-1.582 1.582,-1.582 z"
           id="path3689"
           inkscape:connector-curvature="0" />
        <path
           d="m 711.866,330.608 h 33.109 v 32.391 h 32.391 v 33.829 h -97.171 l 0.72,-33.109 30.231,-0.72 z"
           id="path3691"
           inkscape:connector-curvature="0" />
        <path
           d="m 683.093,193.399 h 94.031 c 0.878,0 1.591,0.712 1.591,1.59 v 25.321 c 0,0.878 -0.713,1.59 -1.591,1.59 h -94.031 c -0.878,0 -1.591,-0.712 -1.591,-1.59 v -25.321 c 0,-0.878 0.713,-1.59 1.591,-1.59 z"
           id="path3693"
           inkscape:connector-curvature="0" />
      </g>
      <path
         d="m 234.429,216.812 h 28.467 c 0.266,0 0.481,0.216 0.481,0.481 v 26.953 c 0,0.266 -0.215,0.48 -0.481,0.48 h -28.467 c -0.266,0 -0.481,-0.215 -0.481,-0.48 v -26.953 c 0,-0.265 0.215,-0.481 0.481,-0.481 z"
         id="path3697"
         inkscape:connector-curvature="0"
         style="fill:#b7b7b5;fill-opacity:0.99199997" />
      <path
         d="m 235.074,217.282 h 24.123 c 0.226,0 0.408,0.184 0.408,0.408 v 23.614 c 0,0.226 -0.183,0.408 -0.408,0.408 h -24.123 c -0.226,0 -0.408,-0.183 -0.408,-0.408 V 217.69 c 0,-0.224 0.183,-0.408 0.408,-0.408 z"
         id="path3699"
         inkscape:connector-curvature="0"
         style="fill:#ffffff;fill-opacity:0.50800003" />
      <path
         d="m 266.239,217.067 h 28.467 c 0.266,0 0.481,0.215 0.481,0.48 V 244.5 c 0,0.266 -0.216,0.481 -0.481,0.481 h -28.467 c -0.266,0 -0.481,-0.216 -0.481,-0.481 v -26.953 c 0,-0.265 0.216,-0.48 0.481,-0.48 z"
         id="path3701"
         inkscape:connector-curvature="0"
         style="fill:#b7b7b5;fill-opacity:0.99199997" />
      <path
         d="m 266.884,217.537 h 24.124 c 0.225,0 0.408,0.183 0.408,0.408 v 23.614 c 0,0.225 -0.183,0.408 -0.408,0.408 h -24.124 c -0.225,0 -0.408,-0.184 -0.408,-0.408 v -23.614 c 10e-4,-0.226 0.183,-0.408 0.408,-0.408 z"
         id="path3703"
         inkscape:connector-curvature="0"
         style="fill:#ffffff;fill-opacity:0.50800003" />
      <path
         d="m 298.304,217.067 h 28.467 c 0.266,0 0.481,0.215 0.481,0.48 V 244.5 c 0,0.266 -0.216,0.481 -0.481,0.481 h -28.467 c -0.266,0 -0.481,-0.216 -0.481,-0.481 v -26.953 c 0,-0.265 0.215,-0.48 0.481,-0.48 z"
         id="path3705"
         inkscape:connector-curvature="0"
         style="fill:#b7b7b5;fill-opacity:0.99199997" />
      <path
         d="m 298.949,217.537 h 24.123 c 0.226,0 0.408,0.183 0.408,0.407 v 23.615 c 0,0.225 -0.183,0.408 -0.408,0.408 h -24.123 c -0.226,0 -0.408,-0.184 -0.408,-0.408 v -23.615 c 0,-0.225 0.183,-0.407 0.408,-0.407 z"
         id="path3707"
         inkscape:connector-curvature="0"
         style="fill:#ffffff;fill-opacity:0.50800003" />
      <path
         d="m 330.369,217.575 h 28.467 c 0.266,0 0.481,0.216 0.481,0.482 v 26.952 c 0,0.267 -0.216,0.481 -0.481,0.481 h -28.467 c -0.267,0 -0.481,-0.215 -0.481,-0.481 v -26.952 c 0,-0.266 0.214,-0.482 0.481,-0.482 z"
         id="path3709"
         inkscape:connector-curvature="0"
         style="fill:#b7b7b5;fill-opacity:0.99199997" />
      <path
         d="m 331.014,218.046 h 24.123 c 0.226,0 0.408,0.183 0.408,0.408 v 23.614 c 0,0.226 -0.183,0.407 -0.408,0.407 h -24.123 c -0.226,0 -0.408,-0.182 -0.408,-0.407 v -23.614 c -10e-4,-0.226 0.182,-0.408 0.408,-0.408 z"
         id="path3711"
         inkscape:connector-curvature="0"
         style="fill:#ffffff;fill-opacity:0.50800003" />
      <path
         d="m 362.942,217.067 h 28.467 c 0.267,0 0.481,0.215 0.481,0.48 V 244.5 c 0,0.266 -0.215,0.481 -0.481,0.481 h -28.467 c -0.266,0 -0.481,-0.216 -0.481,-0.481 v -26.953 c 0,-0.265 0.216,-0.48 0.481,-0.48 z"
         id="path3713"
         inkscape:connector-curvature="0"
         style="fill:#b7b7b5;fill-opacity:0.99199997" />
      <path
         d="m 363.588,217.537 h 24.123 c 0.226,0 0.408,0.183 0.408,0.407 v 23.615 c 0,0.225 -0.183,0.408 -0.408,0.408 h -24.123 c -0.226,0 -0.408,-0.184 -0.408,-0.408 v -23.615 c 0,-0.225 0.182,-0.407 0.408,-0.407 z"
         id="path3715"
         inkscape:connector-curvature="0"
         style="fill:#ffffff;fill-opacity:0.50800003" />
      <path
         d="m 395.517,216.557 h 28.467 c 0.266,0 0.481,0.216 0.481,0.481 v 26.952 c 0,0.267 -0.216,0.482 -0.481,0.482 h -28.467 c -0.267,0 -0.481,-0.216 -0.481,-0.482 v -26.952 c -10e-4,-0.265 0.214,-0.481 0.481,-0.481 z"
         id="path3717"
         inkscape:connector-curvature="0"
         style="fill:#b7b7b5;fill-opacity:0.99199997" />
      <path
         d="m 396.161,217.028 h 24.123 c 0.226,0 0.408,0.183 0.408,0.408 v 23.613 c 0,0.227 -0.183,0.408 -0.408,0.408 h -24.123 c -0.226,0 -0.408,-0.182 -0.408,-0.408 v -23.613 c 0,-0.225 0.183,-0.408 0.408,-0.408 z"
         id="path3719"
         inkscape:connector-curvature="0"
         style="fill:#ffffff;fill-opacity:0.50800003" />
      <path
         d="m 427.072,216.557 h 28.467 c 0.266,0 0.481,0.216 0.481,0.481 v 26.952 c 0,0.267 -0.216,0.482 -0.481,0.482 h -28.467 c -0.267,0 -0.481,-0.216 -0.481,-0.482 v -26.952 c 0,-0.265 0.215,-0.481 0.481,-0.481 z"
         id="path3721"
         inkscape:connector-curvature="0"
         style="fill:#b7b7b5;fill-opacity:0.99199997" />
      <path
         d="m 427.717,217.028 h 24.123 c 0.226,0 0.408,0.183 0.408,0.408 v 23.613 c 0,0.227 -0.183,0.408 -0.408,0.408 h -24.123 c -0.226,0 -0.408,-0.182 -0.408,-0.408 v -23.613 c 0,-0.225 0.182,-0.408 0.408,-0.408 z"
         id="path3723"
         inkscape:connector-curvature="0"
         style="fill:#ffffff;fill-opacity:0.50800003" />
      <path
         d="m 458.119,217.067 h 28.467 c 0.266,0 0.481,0.215 0.481,0.48 V 244.5 c 0,0.266 -0.216,0.481 -0.481,0.481 h -28.467 c -0.267,0 -0.481,-0.216 -0.481,-0.481 v -26.953 c 0,-0.265 0.214,-0.48 0.481,-0.48 z"
         id="path3725"
         inkscape:connector-curvature="0"
         style="fill:#b7b7b5;fill-opacity:0.99199997" />
      <path
         d="m 458.764,217.537 h 24.123 c 0.226,0 0.408,0.183 0.408,0.408 v 23.614 c 0,0.225 -0.183,0.408 -0.408,0.408 h -24.123 c -0.226,0 -0.408,-0.184 -0.408,-0.408 v -23.614 c -10e-4,-0.226 0.182,-0.408 0.408,-0.408 z"
         id="path3727"
         inkscape:connector-curvature="0"
         style="fill:#ffffff;fill-opacity:0.50800003" />
      <path
         d="m 489.675,217.067 h 28.467 c 0.266,0 0.481,0.215 0.481,0.48 V 244.5 c 0,0.266 -0.216,0.481 -0.481,0.481 h -28.467 c -0.267,0 -0.481,-0.216 -0.481,-0.481 v -26.953 c -0.001,-0.265 0.214,-0.48 0.481,-0.48 z"
         id="path3729"
         inkscape:connector-curvature="0"
         style="fill:#b7b7b5;fill-opacity:0.99199997" />
      <path
         d="m 490.319,217.537 h 24.123 c 0.226,0 0.408,0.183 0.408,0.408 v 23.614 c 0,0.225 -0.183,0.408 -0.408,0.408 h -24.123 c -0.226,0 -0.408,-0.184 -0.408,-0.408 v -23.614 c 0,-0.226 0.183,-0.408 0.408,-0.408 z"
         id="path3731"
         inkscape:connector-curvature="0"
         style="fill:#ffffff;fill-opacity:0.50800003" />
      <path
         d="m 522.757,217.575 h 28.468 c 0.266,0 0.48,0.217 0.48,0.482 v 26.952 c 0,0.267 -0.215,0.481 -0.48,0.481 h -28.468 c -0.266,0 -0.481,-0.215 -0.481,-0.481 v -26.952 c -10e-4,-0.265 0.215,-0.482 0.481,-0.482 z"
         id="path3733"
         inkscape:connector-curvature="0"
         style="fill:#b7b7b5;fill-opacity:0.99199997" />
      <path
         d="m 523.402,218.046 h 24.123 c 0.226,0 0.408,0.183 0.408,0.408 v 23.614 c 0,0.226 -0.183,0.407 -0.408,0.407 h -24.123 c -0.226,0 -0.408,-0.182 -0.408,-0.407 v -23.614 c 0,-0.226 0.183,-0.408 0.408,-0.408 z"
         id="path3735"
         inkscape:connector-curvature="0"
         style="fill:#ffffff;fill-opacity:0.50800003" />
      <path
         d="m 554.312,217.067 h 28.468 c 0.266,0 0.481,0.215 0.481,0.48 V 244.5 c 0,0.266 -0.216,0.481 -0.481,0.481 h -28.468 c -0.266,0 -0.481,-0.216 -0.481,-0.481 v -26.953 c 0,-0.265 0.216,-0.48 0.481,-0.48 z"
         id="path3737"
         inkscape:connector-curvature="0"
         style="fill:#b7b7b5;fill-opacity:0.99199997" />
      <path
         d="m 554.958,217.537 h 24.123 c 0.226,0 0.408,0.183 0.408,0.408 v 23.614 c 0,0.225 -0.183,0.408 -0.408,0.408 h -24.123 c -0.226,0 -0.408,-0.184 -0.408,-0.408 v -23.614 c 0,-0.226 0.182,-0.408 0.408,-0.408 z"
         id="path3739"
         inkscape:connector-curvature="0"
         style="fill:#ffffff;fill-opacity:0.50800003" />
      <path
         d="m 587.395,217.575 h 28.467 c 0.267,0 0.481,0.216 0.481,0.482 v 26.952 c 0,0.267 -0.215,0.481 -0.481,0.481 h -28.467 c -0.266,0 -0.481,-0.215 -0.481,-0.481 v -26.952 c 0,-0.266 0.216,-0.482 0.481,-0.482 z"
         id="path3741"
         inkscape:connector-curvature="0"
         style="fill:#b7b7b5;fill-opacity:0.99199997" />
      <path
         d="m 588.041,218.046 h 24.123 c 0.225,0 0.407,0.183 0.407,0.408 v 23.614 c 0,0.226 -0.183,0.407 -0.407,0.407 h -24.123 c -0.226,0 -0.408,-0.182 -0.408,-0.407 v -23.614 c 0,-0.226 0.182,-0.408 0.408,-0.408 z"
         id="path3743"
         inkscape:connector-curvature="0"
         style="fill:#ffffff;fill-opacity:0.50800003" />
      <path
         d="m 242.318,248.622 h 28.467 c 0.266,0 0.481,0.216 0.481,0.482 v 26.952 c 0,0.267 -0.216,0.481 -0.481,0.481 h -28.467 c -0.266,0 -0.481,-0.215 -0.481,-0.481 v -26.952 c 0,-0.266 0.215,-0.482 0.481,-0.482 z"
         id="path3745"
         inkscape:connector-curvature="0"
         style="fill:#b7b7b5;fill-opacity:0.99199997" />
      <path
         d="m 242.963,249.092 h 24.124 c 0.225,0 0.408,0.183 0.408,0.408 v 23.614 c 0,0.226 -0.183,0.407 -0.408,0.407 h -24.124 c -0.225,0 -0.408,-0.182 -0.408,-0.407 V 249.5 c 0,-0.225 0.183,-0.408 0.408,-0.408 z"
         id="path3747"
         inkscape:connector-curvature="0"
         style="fill:#ffffff;fill-opacity:0.50800003" />
      <path
         d="m 274.892,248.622 h 28.467 c 0.266,0 0.481,0.216 0.481,0.482 v 26.952 c 0,0.267 -0.216,0.481 -0.481,0.481 h -28.467 c -0.266,0 -0.481,-0.215 -0.481,-0.481 v -26.952 c -10e-4,-0.266 0.215,-0.482 0.481,-0.482 z"
         id="path3749"
         inkscape:connector-curvature="0"
         style="fill:#b7b7b5;fill-opacity:0.99199997" />
      <path
         d="m 275.537,249.092 h 24.124 c 0.225,0 0.408,0.183 0.408,0.408 v 23.614 c 0,0.226 -0.183,0.407 -0.408,0.407 h -24.124 c -0.225,0 -0.408,-0.182 -0.408,-0.407 V 249.5 c 0,-0.225 0.182,-0.408 0.408,-0.408 z"
         id="path3751"
         inkscape:connector-curvature="0"
         style="fill:#ffffff;fill-opacity:0.50800003" />
      <path
         d="m 306.447,248.622 h 28.467 c 0.267,0 0.482,0.216 0.482,0.482 v 26.952 c 0,0.267 -0.216,0.481 -0.482,0.481 h -28.467 c -0.266,0 -0.481,-0.215 -0.481,-0.481 v -26.952 c 0,-0.266 0.216,-0.482 0.481,-0.482 z"
         id="path3753"
         inkscape:connector-curvature="0"
         style="fill:#b7b7b5;fill-opacity:0.99199997" />
      <path
         d="m 307.093,249.092 h 24.123 c 0.226,0 0.408,0.183 0.408,0.408 v 23.614 c 0,0.226 -0.183,0.407 -0.408,0.407 h -24.123 c -0.226,0 -0.408,-0.182 -0.408,-0.407 V 249.5 c 0,-0.225 0.182,-0.408 0.408,-0.408 z"
         id="path3755"
         inkscape:connector-curvature="0"
         style="fill:#ffffff;fill-opacity:0.50800003" />
      <path
         d="m 338.003,248.622 h 28.468 c 0.266,0 0.481,0.216 0.481,0.482 v 26.952 c 0,0.266 -0.216,0.481 -0.481,0.481 h -28.468 c -0.266,0 -0.481,-0.216 -0.481,-0.481 v -26.952 c -10e-4,-0.266 0.215,-0.482 0.481,-0.482 z"
         id="path3757"
         inkscape:connector-curvature="0"
         style="fill:#b7b7b5;fill-opacity:0.99199997" />
      <path
         d="m 338.648,249.092 h 24.123 c 0.226,0 0.408,0.183 0.408,0.408 v 23.614 c 0,0.226 -0.183,0.407 -0.408,0.407 h -24.123 c -0.226,0 -0.408,-0.182 -0.408,-0.407 V 249.5 c 0,-0.225 0.183,-0.408 0.408,-0.408 z"
         id="path3759"
         inkscape:connector-curvature="0"
         style="fill:#ffffff;fill-opacity:0.50800003" />
      <path
         d="m 369.559,248.622 h 28.468 c 0.266,0 0.481,0.216 0.481,0.482 v 26.952 c 0,0.267 -0.216,0.481 -0.481,0.481 h -28.468 c -0.266,0 -0.48,-0.215 -0.48,-0.481 v -26.952 c -0.001,-0.266 0.214,-0.482 0.48,-0.482 z"
         id="path3761"
         inkscape:connector-curvature="0"
         style="fill:#b7b7b5;fill-opacity:0.99199997" />
      <path
         d="m 370.204,249.092 h 24.123 c 0.226,0 0.408,0.183 0.408,0.408 v 23.614 c 0,0.226 -0.183,0.407 -0.408,0.407 h -24.123 c -0.226,0 -0.408,-0.182 -0.408,-0.407 V 249.5 c 0,-0.225 0.182,-0.408 0.408,-0.408 z"
         id="path3763"
         inkscape:connector-curvature="0"
         style="fill:#ffffff;fill-opacity:0.50800003" />
      <path
         d="m 401.624,249.132 h 28.467 c 0.266,0 0.481,0.215 0.481,0.48 v 26.953 c 0,0.266 -0.216,0.481 -0.481,0.481 h -28.467 c -0.267,0 -0.481,-0.216 -0.481,-0.481 v -26.953 c 0,-0.266 0.214,-0.48 0.481,-0.48 z"
         id="path3765"
         inkscape:connector-curvature="0"
         style="fill:#b7b7b5;fill-opacity:0.99199997" />
      <path
         d="m 402.269,249.601 h 24.123 c 0.226,0 0.408,0.183 0.408,0.408 v 23.614 c 0,0.226 -0.183,0.408 -0.408,0.408 h -24.123 c -0.226,0 -0.408,-0.183 -0.408,-0.408 v -23.614 c -10e-4,-0.225 0.182,-0.408 0.408,-0.408 z"
         id="path3767"
         inkscape:connector-curvature="0"
         style="fill:#ffffff;fill-opacity:0.50800003" />
      <path
         d="m 433.18,249.132 h 28.467 c 0.266,0 0.481,0.215 0.481,0.48 v 26.953 c 0,0.266 -0.216,0.481 -0.481,0.481 H 433.18 c -0.266,0 -0.481,-0.216 -0.481,-0.481 v -26.953 c -0.001,-0.266 0.215,-0.48 0.481,-0.48 z"
         id="path3769"
         inkscape:connector-curvature="0"
         style="fill:#b7b7b5;fill-opacity:0.99199997" />
      <path
         d="m 433.824,249.601 h 24.123 c 0.226,0 0.408,0.183 0.408,0.408 v 23.614 c 0,0.226 -0.183,0.408 -0.408,0.408 h -24.123 c -0.225,0 -0.408,-0.183 -0.408,-0.408 v -23.614 c 0,-0.225 0.184,-0.408 0.408,-0.408 z"
         id="path3771"
         inkscape:connector-curvature="0"
         style="fill:#ffffff;fill-opacity:0.50800003" />
      <path
         d="m 465.753,249.132 h 28.468 c 0.266,0 0.48,0.215 0.48,0.48 v 26.953 c 0,0.266 -0.215,0.481 -0.48,0.481 h -28.468 c -0.266,0 -0.481,-0.216 -0.481,-0.481 v -26.953 c -10e-4,-0.266 0.215,-0.48 0.481,-0.48 z"
         id="path3773"
         inkscape:connector-curvature="0"
         style="fill:#b7b7b5;fill-opacity:0.99199997" />
      <path
         d="m 466.398,249.601 h 24.123 c 0.226,0 0.408,0.183 0.408,0.408 v 23.614 c 0,0.226 -0.183,0.408 -0.408,0.408 h -24.123 c -0.226,0 -0.408,-0.183 -0.408,-0.408 v -23.614 c 0,-0.225 0.183,-0.408 0.408,-0.408 z"
         id="path3775"
         inkscape:connector-curvature="0"
         style="fill:#ffffff;fill-opacity:0.50800003" />
      <path
         d="m 498.327,249.64 h 28.467 c 0.266,0 0.481,0.216 0.481,0.481 v 26.953 c 0,0.266 -0.216,0.48 -0.481,0.48 h -28.467 c -0.267,0 -0.481,-0.215 -0.481,-0.48 v -26.953 c 0,-0.265 0.214,-0.481 0.481,-0.481 z"
         id="path3777"
         inkscape:connector-curvature="0"
         style="fill:#b7b7b5;fill-opacity:0.99199997" />
      <path
         d="m 498.972,250.11 h 24.123 c 0.226,0 0.408,0.184 0.408,0.408 v 23.614 c 0,0.226 -0.183,0.408 -0.408,0.408 h -24.123 c -0.226,0 -0.408,-0.183 -0.408,-0.408 v -23.614 c -0.001,-0.224 0.182,-0.408 0.408,-0.408 z"
         id="path3779"
         inkscape:connector-curvature="0"
         style="fill:#ffffff;fill-opacity:0.50800003" />
      <path
         d="m 530.392,249.64 h 28.467 c 0.267,0 0.481,0.216 0.481,0.481 v 26.953 c 0,0.266 -0.215,0.48 -0.481,0.48 h -28.467 c -0.266,0 -0.481,-0.215 -0.481,-0.48 v -26.953 c -10e-4,-0.265 0.215,-0.481 0.481,-0.481 z"
         id="path3781"
         inkscape:connector-curvature="0"
         style="fill:#b7b7b5;fill-opacity:0.99199997" />
      <path
         d="m 531.037,250.11 h 24.123 c 0.225,0 0.407,0.184 0.407,0.408 v 23.614 c 0,0.226 -0.183,0.408 -0.407,0.408 h -24.123 c -0.226,0 -0.408,-0.183 -0.408,-0.408 v -23.614 c 0,-0.224 0.182,-0.408 0.408,-0.408 z"
         id="path3783"
         inkscape:connector-curvature="0"
         style="fill:#ffffff;fill-opacity:0.50800003" />
      <path
         d="m 562.456,249.64 h 28.467 c 0.267,0 0.481,0.216 0.481,0.481 v 26.953 c 0,0.266 -0.215,0.48 -0.481,0.48 h -28.467 c -0.266,0 -0.481,-0.215 -0.481,-0.48 v -26.953 c 0,-0.265 0.215,-0.481 0.481,-0.481 z"
         id="path3785"
         inkscape:connector-curvature="0"
         style="fill:#b7b7b5;fill-opacity:0.99199997" />
      <path
         d="m 563.102,250.11 h 24.123 c 0.226,0 0.408,0.184 0.408,0.408 v 23.614 c 0,0.226 -0.183,0.408 -0.408,0.408 h -24.123 c -0.226,0 -0.408,-0.183 -0.408,-0.408 v -23.614 c -10e-4,-0.224 0.182,-0.408 0.408,-0.408 z"
         id="path3787"
         inkscape:connector-curvature="0"
         style="fill:#ffffff;fill-opacity:0.50800003" />
      <path
         d="m 594.521,249.64 h 28.467 c 0.266,0 0.481,0.216 0.481,0.481 v 26.953 c 0,0.266 -0.216,0.48 -0.481,0.48 h -28.467 c -0.267,0 -0.481,-0.215 -0.481,-0.48 v -26.953 c 0,-0.265 0.215,-0.481 0.481,-0.481 z"
         id="path3789"
         inkscape:connector-curvature="0"
         style="fill:#b7b7b5;fill-opacity:0.99199997" />
      <path
         d="m 595.166,250.11 h 24.123 c 0.226,0 0.408,0.184 0.408,0.408 v 23.614 c 0,0.226 -0.183,0.408 -0.408,0.408 h -24.123 c -0.226,0 -0.408,-0.183 -0.408,-0.408 v -23.614 c 0,-0.224 0.182,-0.408 0.408,-0.408 z"
         id="path3791"
         inkscape:connector-curvature="0"
         style="fill:#ffffff;fill-opacity:0.50800003" />
      <path
         d="m 227.049,280.687 h 28.467 c 0.266,0 0.481,0.216 0.481,0.481 v 26.952 c 0,0.267 -0.215,0.481 -0.481,0.481 h -28.467 c -0.266,0 -0.481,-0.215 -0.481,-0.481 v -26.952 c 0,-0.265 0.215,-0.481 0.481,-0.481 z"
         id="path3793"
         inkscape:connector-curvature="0"
         style="fill:#b7b7b5;fill-opacity:0.99199997" />
      <path
         d="m 227.694,281.157 h 24.123 c 0.226,0 0.408,0.184 0.408,0.408 v 23.614 c 0,0.226 -0.183,0.408 -0.408,0.408 h -24.123 c -0.226,0 -0.408,-0.183 -0.408,-0.408 v -23.614 c 0,-0.224 0.183,-0.408 0.408,-0.408 z"
         id="path3795"
         inkscape:connector-curvature="0"
         style="fill:#ffffff;fill-opacity:0.50800003" />
      <path
         d="m 258.096,281.196 h 28.467 c 0.266,0 0.481,0.215 0.481,0.481 v 26.953 c 0,0.266 -0.215,0.482 -0.481,0.482 h -28.467 c -0.266,0 -0.481,-0.217 -0.481,-0.482 v -26.952 c 0,-0.267 0.215,-0.482 0.481,-0.482 z"
         id="path3797"
         inkscape:connector-curvature="0"
         style="fill:#b7b7b5;fill-opacity:0.99199997" />
      <path
         d="m 258.741,281.667 h 24.123 c 0.226,0 0.408,0.182 0.408,0.407 v 23.614 c 0,0.226 -0.183,0.408 -0.408,0.408 h -24.123 c -0.226,0 -0.408,-0.183 -0.408,-0.408 v -23.614 c 0,-0.226 0.183,-0.407 0.408,-0.407 z"
         id="path3799"
         inkscape:connector-curvature="0"
         style="fill:#ffffff;fill-opacity:0.50800003" />
      <path
         d="m 290.161,281.196 h 28.467 c 0.266,0 0.481,0.215 0.481,0.481 v 26.953 c 0,0.267 -0.216,0.482 -0.481,0.482 h -28.467 c -0.266,0 -0.481,-0.216 -0.481,-0.482 v -26.952 c -0.001,-0.267 0.215,-0.482 0.481,-0.482 z"
         id="path3801"
         inkscape:connector-curvature="0"
         style="fill:#b7b7b5;fill-opacity:0.99199997" />
      <path
         d="m 290.806,281.667 h 24.123 c 0.226,0 0.408,0.182 0.408,0.407 v 23.614 c 0,0.226 -0.183,0.408 -0.408,0.408 h -24.123 c -0.225,0 -0.408,-0.183 -0.408,-0.408 v -23.614 c -0.001,-0.226 0.183,-0.407 0.408,-0.407 z"
         id="path3803"
         inkscape:connector-curvature="0"
         style="fill:#ffffff;fill-opacity:0.50800003" />
      <path
         d="m 322.226,281.196 h 28.467 c 0.266,0 0.481,0.215 0.481,0.481 v 26.953 c 0,0.266 -0.216,0.482 -0.481,0.482 h -28.467 c -0.266,0 -0.481,-0.217 -0.481,-0.482 v -26.952 c -10e-4,-0.267 0.215,-0.482 0.481,-0.482 z"
         id="path3805"
         inkscape:connector-curvature="0"
         style="fill:#b7b7b5;fill-opacity:0.99199997" />
      <path
         d="m 322.87,281.667 h 24.124 c 0.225,0 0.407,0.182 0.407,0.407 v 23.614 c 0,0.226 -0.183,0.408 -0.407,0.408 H 322.87 c -0.225,0 -0.407,-0.183 -0.407,-0.408 v -23.614 c 0,-0.226 0.182,-0.407 0.407,-0.407 z"
         id="path3807"
         inkscape:connector-curvature="0"
         style="fill:#ffffff;fill-opacity:0.50800003" />
      <path
         d="m 353.781,281.705 h 28.467 c 0.266,0 0.481,0.216 0.481,0.481 v 26.953 c 0,0.266 -0.216,0.48 -0.481,0.48 h -28.467 c -0.266,0 -0.481,-0.215 -0.481,-0.48 v -26.953 c 0,-0.265 0.216,-0.481 0.481,-0.481 z"
         id="path3809"
         inkscape:connector-curvature="0"
         style="fill:#b7b7b5;fill-opacity:0.99199997" />
      <path
         d="m 354.426,282.175 h 24.124 c 0.225,0 0.407,0.184 0.407,0.408 v 23.615 c 0,0.225 -0.183,0.407 -0.407,0.407 h -24.124 c -0.225,0 -0.407,-0.183 -0.407,-0.407 v -23.615 c 0,-0.225 0.182,-0.408 0.407,-0.408 z"
         id="path3811"
         inkscape:connector-curvature="0"
         style="fill:#ffffff;fill-opacity:0.50800003" />
      <path
         d="m 385.337,281.705 h 28.467 c 0.267,0 0.481,0.216 0.481,0.481 v 26.953 c 0,0.266 -0.215,0.48 -0.481,0.48 h -28.467 c -0.266,0 -0.481,-0.215 -0.481,-0.48 v -26.953 c -10e-4,-0.265 0.215,-0.481 0.481,-0.481 z"
         id="path3813"
         inkscape:connector-curvature="0"
         style="fill:#b7b7b5;fill-opacity:0.99199997" />
      <path
         d="m 385.982,282.175 h 24.123 c 0.225,0 0.408,0.184 0.408,0.408 v 23.615 c 0,0.225 -0.184,0.407 -0.408,0.407 h -24.123 c -0.226,0 -0.408,-0.183 -0.408,-0.407 v -23.615 c 0,-0.225 0.183,-0.408 0.408,-0.408 z"
         id="path3815"
         inkscape:connector-curvature="0"
         style="fill:#ffffff;fill-opacity:0.50800003" />
      <path
         d="m 417.91,281.705 h 28.468 c 0.266,0 0.481,0.216 0.481,0.481 v 26.953 c 0,0.266 -0.216,0.48 -0.481,0.48 H 417.91 c -0.266,0 -0.48,-0.215 -0.48,-0.48 v -26.953 c 0,-0.265 0.214,-0.481 0.48,-0.481 z"
         id="path3817"
         inkscape:connector-curvature="0"
         style="fill:#b7b7b5;fill-opacity:0.99199997" />
      <path
         d="m 418.556,282.175 h 24.123 c 0.226,0 0.408,0.184 0.408,0.408 v 23.615 c 0,0.225 -0.183,0.407 -0.408,0.407 h -24.123 c -0.226,0 -0.408,-0.183 -0.408,-0.407 v -23.615 c -0.001,-0.225 0.182,-0.408 0.408,-0.408 z"
         id="path3819"
         inkscape:connector-curvature="0"
         style="fill:#ffffff;fill-opacity:0.50800003" />
      <path
         d="m 449.976,281.705 h 28.467 c 0.266,0 0.481,0.216 0.481,0.481 v 26.953 c 0,0.266 -0.216,0.48 -0.481,0.48 h -28.467 c -0.267,0 -0.481,-0.215 -0.481,-0.48 v -26.953 c -10e-4,-0.265 0.214,-0.481 0.481,-0.481 z"
         id="path3821"
         inkscape:connector-curvature="0"
         style="fill:#b7b7b5;fill-opacity:0.99199997" />
      <path
         d="m 450.62,282.175 h 24.123 c 0.226,0 0.408,0.184 0.408,0.408 v 23.615 c 0,0.225 -0.183,0.407 -0.408,0.407 H 450.62 c -0.226,0 -0.408,-0.183 -0.408,-0.407 v -23.615 c 0,-0.225 0.182,-0.408 0.408,-0.408 z"
         id="path3823"
         inkscape:connector-curvature="0"
         style="fill:#ffffff;fill-opacity:0.50800003" />
      <path
         d="m 482.549,281.705 h 28.467 c 0.267,0 0.481,0.216 0.481,0.481 v 26.953 c 0,0.266 -0.215,0.48 -0.481,0.48 h -28.467 c -0.266,0 -0.481,-0.215 -0.481,-0.48 v -26.953 c -10e-4,-0.265 0.215,-0.481 0.481,-0.481 z"
         id="path3825"
         inkscape:connector-curvature="0"
         style="fill:#b7b7b5;fill-opacity:0.99199997" />
      <path
         d="m 483.194,282.175 h 24.123 c 0.226,0 0.408,0.184 0.408,0.408 v 23.615 c 0,0.225 -0.183,0.407 -0.408,0.407 h -24.123 c -0.226,0 -0.408,-0.183 -0.408,-0.407 v -23.615 c 0,-0.225 0.183,-0.408 0.408,-0.408 z"
         id="path3827"
         inkscape:connector-curvature="0"
         style="fill:#ffffff;fill-opacity:0.50800003" />
      <path
         d="m 513.596,281.705 h 28.467 c 0.267,0 0.481,0.216 0.481,0.481 v 26.953 c 0,0.266 -0.215,0.48 -0.481,0.48 h -28.467 c -0.266,0 -0.481,-0.215 -0.481,-0.48 v -26.953 c -10e-4,-0.265 0.215,-0.481 0.481,-0.481 z"
         id="path3829"
         inkscape:connector-curvature="0"
         style="fill:#b7b7b5;fill-opacity:0.99199997" />
      <path
         d="m 514.241,282.175 h 24.123 c 0.226,0 0.408,0.184 0.408,0.408 v 23.615 c 0,0.225 -0.183,0.407 -0.408,0.407 h -24.123 c -0.226,0 -0.408,-0.183 -0.408,-0.407 v -23.615 c 0,-0.225 0.183,-0.408 0.408,-0.408 z"
         id="path3831"
         inkscape:connector-curvature="0"
         style="fill:#ffffff;fill-opacity:0.50800003" />
      <path
         d="m 546.679,281.705 h 28.467 c 0.266,0 0.481,0.216 0.481,0.481 v 26.953 c 0,0.266 -0.216,0.48 -0.481,0.48 h -28.467 c -0.267,0 -0.481,-0.215 -0.481,-0.48 v -26.953 c -10e-4,-0.265 0.214,-0.481 0.481,-0.481 z"
         id="path3833"
         inkscape:connector-curvature="0"
         style="fill:#b7b7b5;fill-opacity:0.99199997" />
      <path
         d="m 547.323,282.175 h 24.123 c 0.226,0 0.408,0.184 0.408,0.408 v 23.615 c 0,0.225 -0.183,0.407 -0.408,0.407 h -24.123 c -0.226,0 -0.408,-0.183 -0.408,-0.407 v -23.615 c 0,-0.225 0.183,-0.408 0.408,-0.408 z"
         id="path3835"
         inkscape:connector-curvature="0"
         style="fill:#ffffff;fill-opacity:0.50800003" />
      <path
         d="m 570.6,183.984 h 28.467 c 0.267,0 0.481,0.215 0.481,0.481 v 26.952 c 0,0.267 -0.215,0.481 -0.481,0.481 H 570.6 c -0.266,0 -0.481,-0.215 -0.481,-0.481 v -26.952 c -10e-4,-0.266 0.215,-0.481 0.481,-0.481 z"
         id="path3837"
         inkscape:connector-curvature="0"
         style="fill:#b7b7b5;fill-opacity:0.99199997" />
      <path
         d="m 571.245,184.454 h 24.123 c 0.226,0 0.408,0.183 0.408,0.408 v 23.614 c 0,0.226 -0.183,0.408 -0.408,0.408 h -24.123 c -0.226,0 -0.408,-0.183 -0.408,-0.408 v -23.614 c 0,-0.225 0.182,-0.408 0.408,-0.408 z"
         id="path3839"
         inkscape:connector-curvature="0"
         style="fill:#ffffff;fill-opacity:0.50800003" />
      <path
         d="m 539.044,183.984 h 28.467 c 0.267,0 0.481,0.215 0.481,0.481 v 26.952 c 0,0.267 -0.215,0.481 -0.481,0.481 h -28.467 c -0.266,0 -0.481,-0.215 -0.481,-0.481 v -26.952 c -10e-4,-0.266 0.215,-0.481 0.481,-0.481 z"
         id="path3841"
         inkscape:connector-curvature="0"
         style="fill:#b7b7b5;fill-opacity:0.99199997" />
      <path
         d="m 539.689,184.454 h 24.123 c 0.225,0 0.408,0.183 0.408,0.408 v 23.614 c 0,0.226 -0.184,0.408 -0.408,0.408 h -24.123 c -0.226,0 -0.408,-0.183 -0.408,-0.408 v -23.614 c 0,-0.225 0.183,-0.408 0.408,-0.408 z"
         id="path3843"
         inkscape:connector-curvature="0"
         style="fill:#ffffff;fill-opacity:0.50800003" />
      <path
         d="m 506.979,183.984 h 28.467 c 0.266,0 0.481,0.215 0.481,0.481 v 26.952 c 0,0.267 -0.216,0.481 -0.481,0.481 h -28.467 c -0.267,0 -0.481,-0.215 -0.481,-0.481 v -26.952 c 0,-0.266 0.215,-0.481 0.481,-0.481 z"
         id="path3845"
         inkscape:connector-curvature="0"
         style="fill:#b7b7b5;fill-opacity:0.99199997" />
      <path
         d="m 507.624,184.454 h 24.123 c 0.226,0 0.408,0.183 0.408,0.408 v 23.614 c 0,0.226 -0.183,0.408 -0.408,0.408 h -24.123 c -0.226,0 -0.407,-0.183 -0.407,-0.408 v -23.614 c 0,-0.225 0.181,-0.408 0.407,-0.408 z"
         id="path3847"
         inkscape:connector-curvature="0"
         style="fill:#ffffff;fill-opacity:0.50800003" />
      <path
         d="m 473.896,184.493 h 28.467 c 0.267,0 0.481,0.215 0.481,0.481 v 26.952 c 0,0.267 -0.215,0.482 -0.481,0.482 h -28.467 c -0.266,0 -0.481,-0.216 -0.481,-0.482 v -26.952 c 0,-0.266 0.216,-0.481 0.481,-0.481 z"
         id="path3849"
         inkscape:connector-curvature="0"
         style="fill:#b7b7b5;fill-opacity:0.99199997" />
      <path
         d="m 474.542,184.963 h 24.123 c 0.226,0 0.408,0.183 0.408,0.408 v 23.614 c 0,0.226 -0.183,0.408 -0.408,0.408 h -24.123 c -0.226,0 -0.408,-0.183 -0.408,-0.408 v -23.614 c 0,-0.225 0.182,-0.408 0.408,-0.408 z"
         id="path3851"
         inkscape:connector-curvature="0"
         style="fill:#ffffff;fill-opacity:0.50800003" />
      <path
         d="m 440.814,184.493 h 28.467 c 0.266,0 0.481,0.215 0.481,0.481 v 26.952 c 0,0.267 -0.216,0.482 -0.481,0.482 h -28.467 c -0.267,0 -0.482,-0.216 -0.482,-0.482 v -26.952 c 0,-0.266 0.216,-0.481 0.482,-0.481 z"
         id="path3853"
         inkscape:connector-curvature="0"
         style="fill:#b7b7b5;fill-opacity:0.99199997" />
      <path
         d="m 441.459,184.963 h 24.123 c 0.226,0 0.408,0.183 0.408,0.408 v 23.614 c 0,0.226 -0.183,0.408 -0.408,0.408 h -24.123 c -0.226,0 -0.408,-0.183 -0.408,-0.408 v -23.614 c 0,-0.225 0.182,-0.408 0.408,-0.408 z"
         id="path3855"
         inkscape:connector-curvature="0"
         style="fill:#ffffff;fill-opacity:0.50800003" />
      <path
         d="m 408.24,185.002 h 28.467 c 0.267,0 0.481,0.216 0.481,0.481 v 26.953 c 0,0.266 -0.215,0.48 -0.481,0.48 H 408.24 c -0.266,0 -0.481,-0.215 -0.481,-0.48 v -26.953 c 0,-0.265 0.216,-0.481 0.481,-0.481 z"
         id="path3857"
         inkscape:connector-curvature="0"
         style="fill:#b7b7b5;fill-opacity:0.99199997" />
      <path
         d="m 408.886,185.472 h 24.123 c 0.226,0 0.408,0.183 0.408,0.408 v 23.615 c 0,0.225 -0.183,0.407 -0.408,0.407 h -24.123 c -0.226,0 -0.408,-0.183 -0.408,-0.407 V 185.88 c -0.001,-0.225 0.182,-0.408 0.408,-0.408 z"
         id="path3859"
         inkscape:connector-curvature="0"
         style="fill:#ffffff;fill-opacity:0.50800003" />
      <path
         d="m 376.176,184.493 h 28.467 c 0.266,0 0.481,0.215 0.481,0.481 v 26.952 c 0,0.267 -0.216,0.482 -0.481,0.482 h -28.467 c -0.266,0 -0.481,-0.216 -0.481,-0.482 v -26.952 c -10e-4,-0.266 0.215,-0.481 0.481,-0.481 z"
         id="path3861"
         inkscape:connector-curvature="0"
         style="fill:#b7b7b5;fill-opacity:0.99199997" />
      <path
         d="m 376.82,184.963 h 24.123 c 0.226,0 0.408,0.183 0.408,0.408 v 23.614 c 0,0.226 -0.183,0.408 -0.408,0.408 H 376.82 c -0.225,0 -0.408,-0.183 -0.408,-0.408 v -23.614 c 0,-0.225 0.184,-0.408 0.408,-0.408 z"
         id="path3863"
         inkscape:connector-curvature="0"
         style="fill:#ffffff;fill-opacity:0.50800003" />
      <path
         d="m 344.111,184.493 h 28.467 c 0.266,0 0.481,0.215 0.481,0.481 v 26.952 c 0,0.267 -0.216,0.482 -0.481,0.482 h -28.467 c -0.267,0 -0.481,-0.216 -0.481,-0.482 v -26.952 c 0,-0.266 0.215,-0.481 0.481,-0.481 z"
         id="path3865"
         inkscape:connector-curvature="0"
         style="fill:#b7b7b5;fill-opacity:0.99199997" />
      <path
         d="m 344.756,184.963 h 24.123 c 0.226,0 0.408,0.183 0.408,0.408 v 23.614 c 0,0.226 -0.183,0.408 -0.408,0.408 h -24.123 c -0.226,0 -0.408,-0.183 -0.408,-0.408 v -23.614 c 0,-0.225 0.182,-0.408 0.408,-0.408 z"
         id="path3867"
         inkscape:connector-curvature="0"
         style="fill:#ffffff;fill-opacity:0.50800003" />
      <path
         d="m 311.537,184.493 h 28.467 c 0.267,0 0.481,0.215 0.481,0.481 v 26.952 c 0,0.267 -0.215,0.482 -0.481,0.482 h -28.467 c -0.266,0 -0.481,-0.216 -0.481,-0.482 v -26.952 c 0,-0.266 0.215,-0.481 0.481,-0.481 z"
         id="path3869"
         inkscape:connector-curvature="0"
         style="fill:#b7b7b5;fill-opacity:0.99199997" />
      <path
         d="m 312.183,184.963 h 24.123 c 0.226,0 0.408,0.183 0.408,0.408 v 23.614 c 0,0.226 -0.183,0.408 -0.408,0.408 h -24.123 c -0.226,0 -0.408,-0.183 -0.408,-0.408 v -23.614 c -10e-4,-0.225 0.182,-0.408 0.408,-0.408 z"
         id="path3871"
         inkscape:connector-curvature="0"
         style="fill:#ffffff;fill-opacity:0.50800003" />
      <path
         d="m 279.981,184.493 h 28.467 c 0.267,0 0.481,0.215 0.481,0.481 v 26.952 c 0,0.267 -0.215,0.482 -0.481,0.482 h -28.467 c -0.266,0 -0.481,-0.216 -0.481,-0.482 v -26.952 c 0,-0.266 0.216,-0.481 0.481,-0.481 z"
         id="path3873"
         inkscape:connector-curvature="0"
         style="fill:#b7b7b5;fill-opacity:0.99199997" />
      <path
         d="m 280.626,184.963 h 24.123 c 0.226,0 0.408,0.183 0.408,0.408 v 23.614 c 0,0.226 -0.182,0.408 -0.408,0.408 h -24.123 c -0.225,0 -0.408,-0.183 -0.408,-0.408 v -23.614 c 0,-0.225 0.183,-0.408 0.408,-0.408 z"
         id="path3875"
         inkscape:connector-curvature="0"
         style="fill:#ffffff;fill-opacity:0.50800003" />
      <path
         d="m 248.426,184.493 h 28.467 c 0.266,0 0.481,0.215 0.481,0.481 v 26.952 c 0,0.267 -0.215,0.482 -0.481,0.482 h -28.467 c -0.266,0 -0.481,-0.216 -0.481,-0.482 v -26.952 c -0.001,-0.266 0.215,-0.481 0.481,-0.481 z"
         id="path3877"
         inkscape:connector-curvature="0"
         style="fill:#b7b7b5;fill-opacity:0.99199997" />
      <path
         d="m 249.071,184.963 h 24.123 c 0.226,0 0.408,0.183 0.408,0.408 v 23.614 c 0,0.226 -0.183,0.408 -0.408,0.408 h -24.123 c -0.226,0 -0.408,-0.183 -0.408,-0.408 v -23.614 c 0,-0.225 0.182,-0.408 0.408,-0.408 z"
         id="path3879"
         inkscape:connector-curvature="0"
         style="fill:#ffffff;fill-opacity:0.50800003" />
      <path
         d="m 217.379,184.493 h 28.467 c 0.266,0 0.481,0.215 0.481,0.481 v 26.952 c 0,0.267 -0.215,0.482 -0.481,0.482 h -28.467 c -0.266,0 -0.481,-0.216 -0.481,-0.482 v -26.952 c -0.001,-0.266 0.215,-0.481 0.481,-0.481 z"
         id="path3881"
         inkscape:connector-curvature="0"
         style="fill:#b7b7b5;fill-opacity:0.99199997" />
      <path
         d="m 218.024,184.963 h 24.123 c 0.226,0 0.408,0.183 0.408,0.408 v 23.614 c 0,0.226 -0.183,0.408 -0.408,0.408 h -24.123 c -0.225,0 -0.408,-0.183 -0.408,-0.408 v -23.614 c 0,-0.225 0.183,-0.408 0.408,-0.408 z"
         id="path3883"
         inkscape:connector-curvature="0"
         style="fill:#ffffff;fill-opacity:0.50800003" />
      <path
         d="m 186.332,184.493 h 28.467 c 0.266,0 0.481,0.215 0.481,0.481 v 26.952 c 0,0.267 -0.215,0.482 -0.481,0.482 h -28.467 c -0.266,0 -0.481,-0.216 -0.481,-0.482 v -26.952 c 0,-0.266 0.215,-0.481 0.481,-0.481 z"
         id="path3885"
         inkscape:connector-curvature="0"
         style="fill:#b7b7b5;fill-opacity:0.99199997" />
      <path
         d="m 186.977,184.963 h 24.124 c 0.225,0 0.408,0.183 0.408,0.408 v 23.614 c 0,0.226 -0.183,0.408 -0.408,0.408 h -24.124 c -0.225,0 -0.408,-0.183 -0.408,-0.408 v -23.614 c 0,-0.225 0.183,-0.408 0.408,-0.408 z"
         id="path3887"
         inkscape:connector-curvature="0"
         style="fill:#ffffff;fill-opacity:0.50800003" />
      <path
         d="m 788.945,217.067 h 28.467 c 0.266,0 0.481,0.215 0.481,0.48 V 244.5 c 0,0.266 -0.216,0.481 -0.481,0.481 h -28.467 c -0.266,0 -0.481,-0.216 -0.481,-0.481 v -26.953 c 0,-0.265 0.216,-0.48 0.481,-0.48 z"
         id="path3889"
         inkscape:connector-curvature="0"
         style="fill:#b7b7b5;fill-opacity:0.99199997" />
      <path
         d="m 789.59,217.537 h 24.123 c 0.226,0 0.408,0.183 0.408,0.408 v 23.614 c 0,0.225 -0.183,0.408 -0.408,0.408 H 789.59 c -0.225,0 -0.408,-0.184 -0.408,-0.408 v -23.614 c 0,-0.226 0.183,-0.408 0.408,-0.408 z"
         id="path3891"
         inkscape:connector-curvature="0"
         style="fill:#ffffff;fill-opacity:0.50800003" />
      <path
         d="m 819.992,217.575 h 28.467 c 0.266,0 0.481,0.216 0.481,0.482 v 26.952 c 0,0.267 -0.216,0.481 -0.481,0.481 h -28.467 c -0.266,0 -0.481,-0.215 -0.481,-0.481 v -26.952 c 0,-0.266 0.216,-0.482 0.481,-0.482 z"
         id="path3893"
         inkscape:connector-curvature="0"
         style="fill:#b7b7b5;fill-opacity:0.99199997" />
      <path
         d="m 820.637,218.046 h 24.123 c 0.226,0 0.408,0.183 0.408,0.408 v 23.614 c 0,0.226 -0.183,0.407 -0.408,0.407 h -24.123 c -0.225,0 -0.408,-0.182 -0.408,-0.407 v -23.614 c -0.001,-0.226 0.183,-0.408 0.408,-0.408 z"
         id="path3895"
         inkscape:connector-curvature="0"
         style="fill:#ffffff;fill-opacity:0.50800003" />
      <path
         d="m 850.529,217.067 h 28.468 c 0.266,0 0.481,0.215 0.481,0.48 V 244.5 c 0,0.266 -0.216,0.481 -0.481,0.481 h -28.468 c -0.266,0 -0.48,-0.216 -0.48,-0.481 v -26.953 c 0,-0.265 0.215,-0.48 0.48,-0.48 z"
         id="path3897"
         inkscape:connector-curvature="0"
         style="fill:#b7b7b5;fill-opacity:0.99199997" />
      <path
         d="m 851.175,217.537 h 24.123 c 0.226,0 0.408,0.183 0.408,0.407 v 23.615 c 0,0.225 -0.183,0.408 -0.408,0.408 h -24.123 c -0.226,0 -0.408,-0.184 -0.408,-0.408 v -23.615 c 0,-0.225 0.182,-0.407 0.408,-0.407 z"
         id="path3899"
         inkscape:connector-curvature="0"
         style="fill:#ffffff;fill-opacity:0.50800003" />
      <path
         d="m 819.483,186.02 h 28.467 c 0.266,0 0.481,0.215 0.481,0.481 v 26.953 c 0,0.266 -0.216,0.481 -0.481,0.481 h -28.467 c -0.267,0 -0.481,-0.216 -0.481,-0.481 v -26.953 c 0,-0.266 0.215,-0.481 0.481,-0.481 z"
         id="path3901"
         inkscape:connector-curvature="0"
         style="fill:#b7b7b5;fill-opacity:0.99199997" />
      <path
         d="m 820.128,186.49 h 24.123 c 0.226,0 0.408,0.183 0.408,0.408 v 23.614 c 0,0.225 -0.183,0.408 -0.408,0.408 h -24.123 c -0.226,0 -0.408,-0.184 -0.408,-0.408 v -23.614 c 0,-0.225 0.182,-0.408 0.408,-0.408 z"
         id="path3903"
         inkscape:connector-curvature="0"
         style="fill:#ffffff;fill-opacity:0.50800003" />
      <path
         d="m 850.529,186.02 h 28.468 c 0.266,0 0.481,0.215 0.481,0.481 v 26.953 c 0,0.266 -0.216,0.481 -0.481,0.481 h -28.468 c -0.266,0 -0.48,-0.216 -0.48,-0.481 v -26.953 c 0,-0.266 0.215,-0.481 0.48,-0.481 z"
         id="path3905"
         inkscape:connector-curvature="0"
         style="fill:#b7b7b5;fill-opacity:0.99199997" />
      <path
         d="m 851.175,186.49 h 24.123 c 0.226,0 0.408,0.183 0.408,0.408 v 23.614 c 0,0.225 -0.183,0.408 -0.408,0.408 h -24.123 c -0.226,0 -0.408,-0.184 -0.408,-0.408 v -23.614 c 0,-0.225 0.182,-0.408 0.408,-0.408 z"
         id="path3907"
         inkscape:connector-curvature="0"
         style="fill:#ffffff;fill-opacity:0.50800003" />
      <path
         d="m 788.945,185.511 h 28.467 c 0.266,0 0.481,0.215 0.481,0.481 v 26.953 c 0,0.266 -0.216,0.481 -0.481,0.481 h -28.467 c -0.266,0 -0.481,-0.216 -0.481,-0.481 v -26.953 c 0,-0.266 0.216,-0.481 0.481,-0.481 z"
         id="path3909"
         inkscape:connector-curvature="0"
         style="fill:#b7b7b5;fill-opacity:0.99199997" />
      <path
         d="m 789.59,185.981 h 24.123 c 0.226,0 0.408,0.183 0.408,0.408 v 23.614 c 0,0.227 -0.183,0.408 -0.408,0.408 H 789.59 c -0.225,0 -0.408,-0.182 -0.408,-0.408 v -23.614 c 0,-0.225 0.183,-0.408 0.408,-0.408 z"
         id="path3911"
         inkscape:connector-curvature="0"
         style="fill:#ffffff;fill-opacity:0.50800003" />
      <path
         d="m 788.436,248.622 h 28.467 c 0.266,0 0.481,0.216 0.481,0.482 v 26.952 c 0,0.267 -0.216,0.481 -0.481,0.481 h -28.467 c -0.267,0 -0.481,-0.215 -0.481,-0.481 v -26.952 c 0,-0.266 0.215,-0.482 0.481,-0.482 z"
         id="path3913"
         inkscape:connector-curvature="0"
         style="fill:#b7b7b5;fill-opacity:0.99199997" />
      <path
         d="m 789.081,249.092 h 24.123 c 0.226,0 0.408,0.183 0.408,0.408 v 23.614 c 0,0.226 -0.183,0.407 -0.408,0.407 h -24.123 c -0.226,0 -0.408,-0.182 -0.408,-0.407 V 249.5 c 0,-0.225 0.182,-0.408 0.408,-0.408 z"
         id="path3915"
         inkscape:connector-curvature="0"
         style="fill:#ffffff;fill-opacity:0.50800003" />
      <path
         d="m 819.483,249.132 h 28.467 c 0.266,0 0.481,0.215 0.481,0.48 v 26.953 c 0,0.266 -0.216,0.481 -0.481,0.481 h -28.467 c -0.267,0 -0.481,-0.216 -0.481,-0.481 v -26.953 c 0,-0.266 0.215,-0.48 0.481,-0.48 z"
         id="path3917"
         inkscape:connector-curvature="0"
         style="fill:#b7b7b5;fill-opacity:0.99199997" />
      <path
         d="m 820.128,249.601 h 24.123 c 0.226,0 0.408,0.183 0.408,0.408 v 23.614 c 0,0.226 -0.183,0.408 -0.408,0.408 h -24.123 c -0.226,0 -0.408,-0.183 -0.408,-0.408 v -23.614 c 0,-0.225 0.182,-0.408 0.408,-0.408 z"
         id="path3919"
         inkscape:connector-curvature="0"
         style="fill:#ffffff;fill-opacity:0.50800003" />
      <path
         d="m 850.02,248.622 h 28.468 c 0.266,0 0.48,0.216 0.48,0.482 v 26.952 c 0,0.267 -0.215,0.481 -0.48,0.481 H 850.02 c -0.266,0 -0.481,-0.215 -0.481,-0.481 v -26.952 c 0,-0.266 0.216,-0.482 0.481,-0.482 z"
         id="path3921"
         inkscape:connector-curvature="0"
         style="fill:#b7b7b5;fill-opacity:0.99199997" />
      <path
         d="m 850.666,249.092 h 24.123 c 0.226,0 0.408,0.183 0.408,0.408 v 23.614 c 0,0.226 -0.183,0.407 -0.408,0.407 h -24.123 c -0.226,0 -0.408,-0.182 -0.408,-0.407 V 249.5 c 0,-0.225 0.182,-0.408 0.408,-0.408 z"
         id="path3923"
         inkscape:connector-curvature="0"
         style="fill:#ffffff;fill-opacity:0.50800003" />
      <path
         d="m 849.003,280.178 h 28.467 c 0.267,0 0.481,0.215 0.481,0.48 v 26.953 c 0,0.266 -0.215,0.481 -0.481,0.481 h -28.467 c -0.266,0 -0.481,-0.216 -0.481,-0.481 v -26.953 c -0.001,-0.265 0.215,-0.48 0.481,-0.48 z"
         id="path3925"
         inkscape:connector-curvature="0"
         style="fill:#b7b7b5;fill-opacity:0.99199997" />
      <path
         d="m 849.648,280.648 h 24.123 c 0.225,0 0.408,0.183 0.408,0.408 v 23.614 c 0,0.225 -0.184,0.408 -0.408,0.408 h -24.123 c -0.226,0 -0.408,-0.184 -0.408,-0.408 v -23.614 c 0,-0.225 0.183,-0.408 0.408,-0.408 z"
         id="path3927"
         inkscape:connector-curvature="0"
         style="fill:#ffffff;fill-opacity:0.50800003" />
      <path
         d="m 818.465,280.687 h 28.467 c 0.267,0 0.482,0.216 0.482,0.481 v 26.953 c 0,0.266 -0.216,0.48 -0.482,0.48 h -28.467 c -0.266,0 -0.481,-0.215 -0.481,-0.48 v -26.953 c -0.001,-0.265 0.215,-0.481 0.481,-0.481 z"
         id="path3929"
         inkscape:connector-curvature="0"
         style="fill:#b7b7b5;fill-opacity:0.99199997" />
      <path
         d="m 819.11,281.157 h 24.123 c 0.226,0 0.408,0.184 0.408,0.408 v 23.614 c 0,0.226 -0.183,0.408 -0.408,0.408 H 819.11 c -0.226,0 -0.408,-0.183 -0.408,-0.408 v -23.614 c 0,-0.224 0.183,-0.408 0.408,-0.408 z"
         id="path3931"
         inkscape:connector-curvature="0"
         style="fill:#ffffff;fill-opacity:0.50800003" />
      <path
         d="m 787.928,280.687 h 28.467 c 0.266,0 0.481,0.216 0.481,0.481 v 26.952 c 0,0.267 -0.216,0.481 -0.481,0.481 h -28.467 c -0.267,0 -0.482,-0.215 -0.482,-0.481 v -26.952 c -10e-4,-0.265 0.215,-0.481 0.482,-0.481 z"
         id="path3933"
         inkscape:connector-curvature="0"
         style="fill:#b7b7b5;fill-opacity:0.99199997" />
      <path
         d="m 788.572,281.157 h 24.123 c 0.226,0 0.408,0.184 0.408,0.408 v 23.614 c 0,0.226 -0.183,0.408 -0.408,0.408 h -24.123 c -0.226,0 -0.408,-0.183 -0.408,-0.408 v -23.614 c 0,-0.224 0.183,-0.408 0.408,-0.408 z"
         id="path3935"
         inkscape:connector-curvature="0"
         style="fill:#ffffff;fill-opacity:0.50800003" />
      <path
         d="m 849.512,311.733 h 28.467 c 0.267,0 0.481,0.217 0.481,0.482 v 26.952 c 0,0.267 -0.215,0.481 -0.481,0.481 h -28.467 c -0.266,0 -0.481,-0.215 -0.481,-0.481 v -26.952 c -10e-4,-0.265 0.215,-0.482 0.481,-0.482 z"
         id="path3937"
         inkscape:connector-curvature="0"
         style="fill:#b7b7b5;fill-opacity:0.99199997" />
      <path
         d="m 850.157,312.204 h 24.123 c 0.226,0 0.408,0.183 0.408,0.408 v 23.614 c 0,0.226 -0.183,0.408 -0.408,0.408 h -24.123 c -0.226,0 -0.408,-0.183 -0.408,-0.408 v -23.614 c 0,-0.226 0.183,-0.408 0.408,-0.408 z"
         id="path3939"
         inkscape:connector-curvature="0"
         style="fill:#ffffff;fill-opacity:0.50800003" />
      <path
         d="m 712.092,279.669 h 28.467 c 0.266,0 0.481,0.216 0.481,0.482 v 26.952 c 0,0.266 -0.216,0.481 -0.481,0.481 h -28.467 c -0.266,0 -0.481,-0.216 -0.481,-0.481 v -26.952 c -10e-4,-0.267 0.215,-0.482 0.481,-0.482 z"
         id="path3941"
         inkscape:connector-curvature="0"
         style="fill:#b7b7b5;fill-opacity:0.99199997" />
      <path
         d="m 712.736,280.139 h 24.123 c 0.226,0 0.408,0.183 0.408,0.408 v 23.613 c 0,0.227 -0.183,0.408 -0.408,0.408 h -24.123 c -0.225,0 -0.408,-0.182 -0.408,-0.408 v -23.613 c 0,-0.225 0.184,-0.408 0.408,-0.408 z"
         id="path3943"
         inkscape:connector-curvature="0"
         style="fill:#ffffff;fill-opacity:0.50800003" />
      <path
         d="m 680.027,313.26 h 28.467 c 0.266,0 0.481,0.216 0.481,0.481 v 26.952 c 0,0.267 -0.216,0.482 -0.481,0.482 h -28.467 c -0.267,0 -0.481,-0.216 -0.481,-0.482 v -26.952 c 0,-0.265 0.215,-0.481 0.481,-0.481 z"
         id="path3945"
         inkscape:connector-curvature="0"
         style="fill:#b7b7b5;fill-opacity:0.99199997" />
      <path
         d="m 680.672,313.731 h 24.123 c 0.226,0 0.408,0.183 0.408,0.408 v 23.613 c 0,0.227 -0.183,0.408 -0.408,0.408 h -24.123 c -0.226,0 -0.408,-0.182 -0.408,-0.408 v -23.613 c 0,-0.225 0.182,-0.408 0.408,-0.408 z"
         id="path3947"
         inkscape:connector-curvature="0"
         style="fill:#ffffff;fill-opacity:0.50800003" />
      <path
         d="m 712.601,312.752 h 28.467 c 0.267,0 0.481,0.216 0.481,0.481 v 26.953 c 0,0.266 -0.215,0.48 -0.481,0.48 h -28.467 c -0.266,0 -0.481,-0.215 -0.481,-0.48 v -26.953 c -10e-4,-0.265 0.215,-0.481 0.481,-0.481 z"
         id="path3949"
         inkscape:connector-curvature="0"
         style="fill:#b7b7b5;fill-opacity:0.99199997" />
      <path
         d="m 713.246,313.221 h 24.123 c 0.225,0 0.408,0.184 0.408,0.408 v 23.615 c 0,0.225 -0.184,0.407 -0.408,0.407 h -24.123 c -0.226,0 -0.408,-0.183 -0.408,-0.407 V 313.63 c 0,-0.225 0.182,-0.409 0.408,-0.409 z"
         id="path3951"
         inkscape:connector-curvature="0"
         style="fill:#ffffff;fill-opacity:0.50800003" />
      <path
         d="m 744.665,313.26 h 28.468 c 0.266,0 0.48,0.216 0.48,0.481 v 26.952 c 0,0.267 -0.215,0.482 -0.48,0.482 h -28.468 c -0.266,0 -0.481,-0.216 -0.481,-0.482 v -26.952 c 0,-0.265 0.215,-0.481 0.481,-0.481 z"
         id="path3953"
         inkscape:connector-curvature="0"
         style="fill:#b7b7b5;fill-opacity:0.99199997" />
      <path
         d="m 745.31,313.731 h 24.123 c 0.226,0 0.408,0.183 0.408,0.408 v 23.613 c 0,0.227 -0.183,0.408 -0.408,0.408 H 745.31 c -0.226,0 -0.408,-0.182 -0.408,-0.408 v -23.613 c 0,-0.225 0.183,-0.408 0.408,-0.408 z"
         id="path3955"
         inkscape:connector-curvature="0"
         style="fill:#ffffff;fill-opacity:0.50800003" />
      <path
         d="m 189.243,217.073 h 41.985 c 0.392,0 0.71,0.318 0.71,0.71 v 26.991 c 0,0.393 -0.318,0.711 -0.71,0.711 h -41.985 c -0.392,0 -0.71,-0.318 -0.71,-0.711 v -26.991 c 0,-0.392 0.318,-0.71 0.71,-0.71 z"
         id="path3957"
         inkscape:connector-curvature="0"
         style="fill:#b7b7b5;fill-opacity:0.99199997" />
      <path
         d="m 189.392,217.034 h 38.125 c 0.356,0 0.645,0.289 0.645,0.645 v 23.637 c 0,0.357 -0.289,0.646 -0.645,0.646 h -38.125 c -0.356,0 -0.645,-0.288 -0.645,-0.646 v -23.637 c 0,-0.356 0.289,-0.645 0.645,-0.645 z"
         id="path3959"
         inkscape:connector-curvature="0"
         style="fill:#ffffff;fill-opacity:0.50800003" />
      <path
         d="m 188.734,313.012 h 41.985 c 0.392,0 0.71,0.318 0.71,0.711 v 26.991 c 0,0.392 -0.318,0.71 -0.71,0.71 h -41.985 c -0.392,0 -0.71,-0.318 -0.71,-0.71 v -26.991 c 0,-0.392 0.318,-0.711 0.71,-0.711 z"
         id="path3961"
         inkscape:connector-curvature="0"
         style="fill:#b7b7b5;fill-opacity:0.99199997" />
      <path
         d="m 188.883,312.973 h 38.125 c 0.356,0 0.645,0.289 0.645,0.646 v 23.637 c 0,0.356 -0.289,0.646 -0.645,0.646 h -38.125 c -0.356,0 -0.645,-0.289 -0.645,-0.646 v -23.637 c 0,-0.357 0.289,-0.646 0.645,-0.646 z"
         id="path3963"
         inkscape:connector-curvature="0"
         style="fill:#ffffff;fill-opacity:0.50800003" />
      <path
         d="M 235.896,313.522 H 271.1 c 0.329,0 0.596,0.266 0.596,0.595 v 27.222 c 0,0.328 -0.267,0.595 -0.596,0.595 h -35.204 c -0.329,0 -0.595,-0.267 -0.595,-0.595 v -27.222 c 0,-0.329 0.266,-0.595 0.595,-0.595 z"
         id="path3965"
         inkscape:connector-curvature="0"
         style="fill:#b7b7b5;fill-opacity:0.99199997" />
      <path
         d="m 236.02,313.483 h 31.967 c 0.298,0 0.541,0.242 0.541,0.541 v 23.845 c 0,0.298 -0.242,0.54 -0.541,0.54 H 236.02 c -0.298,0 -0.541,-0.242 -0.541,-0.54 v -23.845 c 10e-4,-0.299 0.243,-0.541 0.541,-0.541 z"
         id="path3967"
         inkscape:connector-curvature="0"
         style="fill:#ffffff;fill-opacity:0.50800003" />
      <path
         d="m 275.583,314.03 h 34.72 c 0.324,0 0.587,0.264 0.587,0.588 v 27.237 c 0,0.324 -0.263,0.587 -0.587,0.587 h -34.72 c -0.324,0 -0.587,-0.263 -0.587,-0.587 v -27.237 c 0,-0.324 0.263,-0.588 0.587,-0.588 z"
         id="path3969"
         inkscape:connector-curvature="0"
         style="fill:#b7b7b5;fill-opacity:0.99199997" />
      <path
         d="m 275.706,313.992 h 31.528 c 0.294,0 0.533,0.239 0.533,0.533 v 23.86 c 0,0.295 -0.239,0.533 -0.533,0.533 h -31.528 c -0.294,0 -0.533,-0.238 -0.533,-0.533 v -23.86 c -10e-4,-0.294 0.238,-0.533 0.533,-0.533 z"
         id="path3971"
         inkscape:connector-curvature="0"
         style="fill:#ffffff;fill-opacity:0.50800003" />
      <path
         d="m 188.55,279.93 h 34.72 c 0.324,0 0.587,0.263 0.587,0.587 v 27.237 c 0,0.324 -0.263,0.588 -0.587,0.588 h -34.72 c -0.324,0 -0.587,-0.264 -0.587,-0.588 v -27.237 c 0,-0.324 0.263,-0.587 0.587,-0.587 z"
         id="path3973"
         inkscape:connector-curvature="0"
         style="fill:#b7b7b5;fill-opacity:0.99199997" />
      <path
         d="M 188.673,279.891 H 220.2 c 0.295,0 0.533,0.238 0.533,0.533 v 23.86 c 0,0.294 -0.238,0.533 -0.533,0.533 h -31.527 c -0.294,0 -0.533,-0.239 -0.533,-0.533 v -23.86 c 0,-0.294 0.238,-0.533 0.533,-0.533 z"
         id="path3975"
         inkscape:connector-curvature="0"
         style="fill:#ffffff;fill-opacity:0.50800003" />
      <path
         d="m 189.912,248.884 h 48.282 c 0.451,0 0.816,0.365 0.816,0.816 v 26.779 c 0,0.45 -0.366,0.816 -0.816,0.816 h -48.282 c -0.451,0 -0.816,-0.366 -0.816,-0.816 V 249.7 c 0,-0.451 0.365,-0.816 0.816,-0.816 z"
         id="path3977"
         inkscape:connector-curvature="0"
         style="fill:#b7b7b5;fill-opacity:0.99199997" />
      <path
         d="m 190.083,248.844 h 43.843 c 0.409,0 0.741,0.332 0.741,0.742 v 23.444 c 0,0.409 -0.332,0.741 -0.741,0.741 h -43.843 c -0.409,0 -0.741,-0.332 -0.741,-0.741 v -23.443 c 0,-0.411 0.332,-0.743 0.741,-0.743 z"
         id="path3979"
         inkscape:connector-curvature="0"
         style="fill:#ffffff;fill-opacity:0.50800003" />
      <path
         d="m 498.533,314.03 h 35.688 c 0.333,0 0.604,0.271 0.604,0.604 v 27.205 c 0,0.334 -0.271,0.604 -0.604,0.604 h -35.688 c -0.333,0 -0.604,-0.27 -0.604,-0.604 v -27.205 c 0.001,-0.333 0.271,-0.604 0.604,-0.604 z"
         id="path3981"
         inkscape:connector-curvature="0"
         style="fill:#b7b7b5;fill-opacity:0.99199997" />
      <path
         d="m 498.66,313.992 h 32.407 c 0.303,0 0.548,0.245 0.548,0.548 v 23.83 c 0,0.303 -0.245,0.549 -0.548,0.549 H 498.66 c -0.303,0 -0.549,-0.246 -0.549,-0.549 v -23.83 c 0,-0.303 0.246,-0.548 0.549,-0.548 z"
         id="path3983"
         inkscape:connector-curvature="0"
         style="fill:#ffffff;fill-opacity:0.50800003" />
      <path
         d="m 538.258,314.03 h 36.656 c 0.343,0 0.62,0.278 0.62,0.621 v 27.172 c 0,0.342 -0.277,0.619 -0.62,0.619 h -36.656 c -0.343,0 -0.62,-0.277 -0.62,-0.619 v -27.172 c 0,-0.343 0.277,-0.621 0.62,-0.621 z"
         id="path3985"
         inkscape:connector-curvature="0"
         style="fill:#b7b7b5;fill-opacity:0.99199997" />
      <path
         d="m 538.387,313.992 h 33.287 c 0.311,0 0.563,0.252 0.563,0.563 v 23.801 c 0,0.311 -0.253,0.562 -0.563,0.562 h -33.287 c -0.311,0 -0.562,-0.252 -0.562,-0.562 v -23.801 c -0.001,-0.311 0.251,-0.563 0.562,-0.563 z"
         id="path3987"
         inkscape:connector-curvature="0"
         style="fill:#ffffff;fill-opacity:0.50800003" />
      <path
         d="m 577.969,314.03 h 37.142 c 0.347,0 0.628,0.281 0.628,0.629 v 27.155 c 0,0.347 -0.281,0.628 -0.628,0.628 h -37.142 c -0.347,0 -0.628,-0.281 -0.628,-0.628 v -27.155 c 0,-0.348 0.281,-0.629 0.628,-0.629 z"
         id="path3989"
         inkscape:connector-curvature="0"
         style="fill:#b7b7b5;fill-opacity:0.99199997" />
      <path
         d="m 578.101,313.992 h 33.727 c 0.314,0 0.57,0.255 0.57,0.57 v 23.786 c 0,0.314 -0.256,0.57 -0.57,0.57 h -33.727 c -0.315,0 -0.57,-0.256 -0.57,-0.57 v -23.786 c -10e-4,-0.315 0.254,-0.57 0.57,-0.57 z"
         id="path3991"
         inkscape:connector-curvature="0"
         style="fill:#ffffff;fill-opacity:0.50800003" />
      <path
         d="m 619.317,313.522 h 41.985 c 0.393,0 0.71,0.317 0.71,0.709 v 26.992 c 0,0.393 -0.317,0.71 -0.71,0.71 h -41.985 c -0.392,0 -0.71,-0.317 -0.71,-0.71 v -26.992 c 0,-0.391 0.319,-0.709 0.71,-0.709 z"
         id="path3993"
         inkscape:connector-curvature="0"
         style="fill:#b7b7b5;fill-opacity:0.99199997" />
      <path
         d="m 619.467,313.483 h 38.125 c 0.355,0 0.645,0.289 0.645,0.645 v 23.637 c 0,0.356 -0.289,0.645 -0.645,0.645 h -38.125 c -0.356,0 -0.646,-0.288 -0.646,-0.645 v -23.637 c 0,-0.356 0.289,-0.645 0.646,-0.645 z"
         id="path3995"
         inkscape:connector-curvature="0"
         style="fill:#ffffff;fill-opacity:0.50800003" />
      <path
         d="m 579.038,280.948 h 79.282 c 0.74,0 1.341,0.6 1.341,1.341 v 25.73 c 0,0.74 -0.601,1.341 -1.341,1.341 h -79.282 c -0.74,0 -1.341,-0.601 -1.341,-1.341 v -25.73 c 0,-0.741 0.601,-1.341 1.341,-1.341 z"
         id="path3997"
         inkscape:connector-curvature="0"
         style="fill:#b7b7b5;fill-opacity:0.99199997" />
      <path
         d="m 579.363,280.909 h 73.939 c 0.691,0 1.251,0.561 1.251,1.251 v 22.425 c 0,0.691 -0.56,1.251 -1.251,1.251 h -73.939 c -0.69,0 -1.25,-0.56 -1.25,-1.251 V 282.16 c 0,-0.691 0.56,-1.251 1.25,-1.251 z"
         id="path3999"
         inkscape:connector-curvature="0"
         style="fill:#ffffff;fill-opacity:0.50800003" />
      <path
         d="m 603.896,183.736 h 56.032 c 0.523,0 0.947,0.424 0.947,0.947 V 211.2 c 0,0.523 -0.424,0.947 -0.947,0.947 h -56.032 c -0.523,0 -0.947,-0.424 -0.947,-0.947 v -26.517 c 0,-0.523 0.424,-0.947 0.947,-0.947 z"
         id="path4001"
         inkscape:connector-curvature="0"
         style="fill:#b7b7b5;fill-opacity:0.99199997" />
      <path
         d="m 604.095,183.697 h 50.881 c 0.475,0 0.86,0.386 0.86,0.861 v 23.206 c 0,0.476 -0.386,0.86 -0.86,0.86 h -50.881 c -0.476,0 -0.86,-0.385 -0.86,-0.86 v -23.206 c -10e-4,-0.475 0.384,-0.861 0.86,-0.861 z"
         id="path4003"
         inkscape:connector-curvature="0"
         style="fill:#ffffff;fill-opacity:0.50800003" />
      <path
         d="m 789.159,311.995 h 56.032 c 0.523,0 0.947,0.424 0.947,0.947 v 26.518 c 0,0.522 -0.424,0.947 -0.947,0.947 h -56.032 c -0.523,0 -0.947,-0.425 -0.947,-0.947 v -26.518 c 0,-0.523 0.424,-0.947 0.947,-0.947 z"
         id="path4005"
         inkscape:connector-curvature="0"
         style="fill:#b7b7b5;fill-opacity:0.99199997" />
      <path
         d="m 789.357,311.956 h 50.881 c 0.475,0 0.86,0.386 0.86,0.861 v 23.205 c 0,0.475 -0.386,0.86 -0.86,0.86 h -50.881 c -0.475,0 -0.86,-0.386 -0.86,-0.86 v -23.205 c 0,-0.475 0.386,-0.861 0.86,-0.861 z"
         id="path4007"
         inkscape:connector-curvature="0"
         style="fill:#ffffff;fill-opacity:0.50800003" />
      <path
         d="m 184.828,144.936 h 28.422 c 0.266,0 0.48,0.215 0.48,0.481 v 18.017 c 0,0.265 -0.215,0.48 -0.48,0.48 h -28.422 c -0.266,0 -0.481,-0.215 -0.481,-0.48 v -18.017 c 0,-0.265 0.215,-0.481 0.481,-0.481 z"
         id="path4009"
         inkscape:connector-curvature="0"
         style="fill:#b7b7b5;fill-opacity:0.99199997" />
      <path
         d="m 184.928,144.911 h 25.809 c 0.241,0 0.437,0.195 0.437,0.437 v 15.776 c 0,0.241 -0.195,0.437 -0.437,0.437 h -25.809 c -0.241,0 -0.437,-0.195 -0.437,-0.437 v -15.776 c 10e-4,-0.242 0.196,-0.437 0.437,-0.437 z"
         id="path4011"
         inkscape:connector-curvature="0"
         style="fill:#ffffff;fill-opacity:0.50800003" />
      <path
         d="m 247.939,145.191 h 28.422 c 0.266,0 0.481,0.215 0.481,0.481 v 18.017 c 0,0.265 -0.215,0.48 -0.481,0.48 h -28.422 c -0.266,0 -0.481,-0.215 -0.481,-0.48 v -18.017 c 0,-0.266 0.215,-0.481 0.481,-0.481 z"
         id="path4013"
         inkscape:connector-curvature="0"
         style="fill:#b7b7b5;fill-opacity:0.99199997" />
      <path
         d="m 248.04,145.165 h 25.81 c 0.241,0 0.437,0.196 0.437,0.437 v 15.777 c 0,0.241 -0.196,0.437 -0.437,0.437 h -25.81 c -0.241,0 -0.437,-0.195 -0.437,-0.437 v -15.777 c 0,-0.241 0.195,-0.437 0.437,-0.437 z"
         id="path4015"
         inkscape:connector-curvature="0"
         style="fill:#ffffff;fill-opacity:0.50800003" />
      <path
         d="m 281.531,145.191 h 28.422 c 0.266,0 0.48,0.215 0.48,0.481 v 18.017 c 0,0.265 -0.215,0.48 -0.48,0.48 h -28.422 c -0.266,0 -0.481,-0.215 -0.481,-0.48 v -18.017 c 0,-0.266 0.215,-0.481 0.481,-0.481 z"
         id="path4017"
         inkscape:connector-curvature="0"
         style="fill:#b7b7b5;fill-opacity:0.99199997" />
      <path
         d="m 281.631,145.165 h 25.809 c 0.241,0 0.437,0.196 0.437,0.437 v 15.777 c 0,0.241 -0.195,0.437 -0.437,0.437 h -25.809 c -0.241,0 -0.437,-0.195 -0.437,-0.437 v -15.777 c 10e-4,-0.241 0.196,-0.437 0.437,-0.437 z"
         id="path4019"
         inkscape:connector-curvature="0"
         style="fill:#ffffff;fill-opacity:0.50800003" />
      <path
         d="m 314.104,145.191 h 28.422 c 0.266,0 0.481,0.215 0.481,0.481 v 18.017 c 0,0.265 -0.216,0.48 -0.481,0.48 h -28.422 c -0.266,0 -0.481,-0.215 -0.481,-0.48 v -18.017 c 0,-0.266 0.216,-0.481 0.481,-0.481 z"
         id="path4021"
         inkscape:connector-curvature="0"
         style="fill:#b7b7b5;fill-opacity:0.99199997" />
      <path
         d="m 314.205,145.165 h 25.81 c 0.241,0 0.437,0.196 0.437,0.437 v 15.777 c 0,0.241 -0.195,0.437 -0.437,0.437 h -25.81 c -0.241,0 -0.437,-0.195 -0.437,-0.437 v -15.777 c 0.001,-0.241 0.196,-0.437 0.437,-0.437 z"
         id="path4023"
         inkscape:connector-curvature="0"
         style="fill:#ffffff;fill-opacity:0.50800003" />
      <path
         d="m 345.66,145.7 h 28.422 c 0.266,0 0.481,0.215 0.481,0.48 v 18.017 c 0,0.266 -0.216,0.48 -0.481,0.48 H 345.66 c -0.266,0 -0.48,-0.215 -0.48,-0.48 V 146.18 c 0,-0.265 0.214,-0.48 0.48,-0.48 z"
         id="path4025"
         inkscape:connector-curvature="0"
         style="fill:#b7b7b5;fill-opacity:0.99199997" />
      <path
         d="m 345.761,145.674 h 25.81 c 0.241,0 0.437,0.195 0.437,0.437 v 15.777 c 0,0.241 -0.195,0.437 -0.437,0.437 h -25.81 c -0.241,0 -0.437,-0.196 -0.437,-0.437 v -15.777 c 0,-0.242 0.195,-0.437 0.437,-0.437 z"
         id="path4027"
         inkscape:connector-curvature="0"
         style="fill:#ffffff;fill-opacity:0.50800003" />
      <path
         d="m 391.976,144.682 h 28.422 c 0.266,0 0.48,0.215 0.48,0.481 v 18.016 c 0,0.266 -0.215,0.481 -0.48,0.481 h -28.423 c -0.266,0 -0.48,-0.215 -0.48,-0.481 v -18.016 c 0,-0.266 0.215,-0.481 0.481,-0.481 z"
         id="path4029"
         inkscape:connector-curvature="0"
         style="fill:#b7b7b5;fill-opacity:0.99199997" />
      <path
         d="m 392.076,144.656 h 25.81 c 0.241,0 0.437,0.195 0.437,0.437 v 15.777 c 0,0.241 -0.195,0.437 -0.437,0.437 h -25.81 c -0.241,0 -0.437,-0.195 -0.437,-0.437 v -15.777 c 10e-4,-0.242 0.196,-0.437 0.437,-0.437 z"
         id="path4031"
         inkscape:connector-curvature="0"
         style="fill:#ffffff;fill-opacity:0.50800003" />
      <path
         d="m 425.059,144.682 h 28.422 c 0.266,0 0.481,0.215 0.481,0.481 v 18.016 c 0,0.266 -0.216,0.481 -0.481,0.481 h -28.422 c -0.266,0 -0.48,-0.215 -0.48,-0.481 v -18.016 c -0.001,-0.266 0.214,-0.481 0.48,-0.481 z"
         id="path4033"
         inkscape:connector-curvature="0"
         style="fill:#b7b7b5;fill-opacity:0.99199997" />
      <path
         d="m 425.159,144.656 h 25.81 c 0.24,0 0.437,0.195 0.437,0.437 v 15.777 c 0,0.241 -0.196,0.437 -0.437,0.437 h -25.81 c -0.241,0 -0.437,-0.195 -0.437,-0.437 v -15.777 c 0.001,-0.242 0.196,-0.437 0.437,-0.437 z"
         id="path4035"
         inkscape:connector-curvature="0"
         style="fill:#ffffff;fill-opacity:0.50800003" />
      <path
         d="m 458.141,144.682 h 28.423 c 0.266,0 0.48,0.215 0.48,0.481 v 18.016 c 0,0.266 -0.215,0.481 -0.48,0.481 h -28.423 c -0.266,0 -0.48,-0.215 -0.48,-0.481 v -18.016 c -10e-4,-0.266 0.214,-0.481 0.48,-0.481 z"
         id="path4037"
         inkscape:connector-curvature="0"
         style="fill:#b7b7b5;fill-opacity:0.99199997" />
      <path
         d="m 458.241,144.656 h 25.81 c 0.241,0 0.437,0.195 0.437,0.437 v 15.777 c 0,0.241 -0.195,0.437 -0.437,0.437 h -25.81 c -0.241,0 -0.437,-0.195 -0.437,-0.437 v -15.777 c 0.001,-0.242 0.196,-0.437 0.437,-0.437 z"
         id="path4039"
         inkscape:connector-curvature="0"
         style="fill:#ffffff;fill-opacity:0.50800003" />
      <path
         d="m 490.715,144.682 h 28.422 c 0.266,0 0.481,0.215 0.481,0.481 v 18.016 c 0,0.266 -0.216,0.481 -0.481,0.481 h -28.422 c -0.266,0 -0.48,-0.215 -0.48,-0.481 v -18.016 c -0.001,-0.266 0.214,-0.481 0.48,-0.481 z"
         id="path4041"
         inkscape:connector-curvature="0"
         style="fill:#b7b7b5;fill-opacity:0.99199997" />
      <path
         d="m 490.815,144.656 h 25.81 c 0.241,0 0.437,0.195 0.437,0.437 v 15.777 c 0,0.241 -0.195,0.437 -0.437,0.437 h -25.81 c -0.241,0 -0.437,-0.195 -0.437,-0.437 v -15.777 c 0.001,-0.242 0.196,-0.437 0.437,-0.437 z"
         id="path4043"
         inkscape:connector-curvature="0"
         style="fill:#ffffff;fill-opacity:0.50800003" />
      <path
         d="m 538.558,144.173 h 28.422 c 0.266,0 0.481,0.215 0.481,0.481 v 18.017 c 0,0.266 -0.216,0.48 -0.481,0.48 h -28.422 c -0.266,0 -0.481,-0.215 -0.481,-0.48 v -18.017 c -10e-4,-0.266 0.215,-0.481 0.481,-0.481 z"
         id="path4045"
         inkscape:connector-curvature="0"
         style="fill:#b7b7b5;fill-opacity:0.99199997" />
      <path
         d="m 538.658,144.147 h 25.809 c 0.241,0 0.438,0.195 0.438,0.437 v 15.777 c 0,0.241 -0.196,0.436 -0.438,0.436 h -25.809 c -0.241,0 -0.437,-0.195 -0.437,-0.436 v -15.777 c 10e-4,-0.242 0.196,-0.437 0.437,-0.437 z"
         id="path4047"
         inkscape:connector-curvature="0"
         style="fill:#ffffff;fill-opacity:0.50800003" />
      <path
         d="m 571.131,144.173 h 28.423 c 0.266,0 0.48,0.215 0.48,0.481 v 18.017 c 0,0.266 -0.215,0.48 -0.48,0.48 h -28.423 c -0.266,0 -0.48,-0.215 -0.48,-0.48 v -18.017 c -10e-4,-0.266 0.214,-0.481 0.48,-0.481 z"
         id="path4049"
         inkscape:connector-curvature="0"
         style="fill:#b7b7b5;fill-opacity:0.99199997" />
      <path
         d="m 571.231,144.147 h 25.81 c 0.241,0 0.437,0.195 0.437,0.437 v 15.777 c 0,0.241 -0.195,0.437 -0.437,0.437 h -25.81 c -0.241,0 -0.437,-0.196 -0.437,-0.437 v -15.777 c 10e-4,-0.242 0.196,-0.437 0.437,-0.437 z"
         id="path4051"
         inkscape:connector-curvature="0"
         style="fill:#ffffff;fill-opacity:0.50800003" />
      <path
         d="m 604.214,144.173 h 28.422 c 0.266,0 0.481,0.215 0.481,0.481 v 18.017 c 0,0.266 -0.216,0.48 -0.481,0.48 h -28.422 c -0.266,0 -0.481,-0.215 -0.481,-0.48 v -18.017 c -10e-4,-0.266 0.215,-0.481 0.481,-0.481 z"
         id="path4053"
         inkscape:connector-curvature="0"
         style="fill:#b7b7b5;fill-opacity:0.99199997" />
      <path
         d="m 604.314,144.147 h 25.81 c 0.24,0 0.437,0.195 0.437,0.437 v 15.777 c 0,0.241 -0.196,0.437 -0.437,0.437 h -25.81 c -0.241,0 -0.437,-0.196 -0.437,-0.437 v -15.777 c 0.001,-0.242 0.196,-0.437 0.437,-0.437 z"
         id="path4055"
         inkscape:connector-curvature="0"
         style="fill:#ffffff;fill-opacity:0.50800003" />
      <path
         d="m 636.787,144.173 h 28.423 c 0.266,0 0.48,0.215 0.48,0.48 v 18.017 c 0,0.266 -0.215,0.48 -0.48,0.48 h -28.423 c -0.266,0 -0.48,-0.215 -0.48,-0.48 v -18.017 c 0,-0.265 0.214,-0.48 0.48,-0.48 z"
         id="path4057"
         inkscape:connector-curvature="0"
         style="fill:#b7b7b5;fill-opacity:0.99199997" />
      <path
         d="m 636.888,144.147 h 25.81 c 0.241,0 0.437,0.195 0.437,0.437 v 15.777 c 0,0.241 -0.195,0.437 -0.437,0.437 h -25.81 c -0.241,0 -0.437,-0.196 -0.437,-0.437 v -15.777 c 0,-0.242 0.195,-0.437 0.437,-0.437 z"
         id="path4059"
         inkscape:connector-curvature="0"
         style="fill:#ffffff;fill-opacity:0.50800003" />
      <path
         d="m 681.067,144.173 h 28.422 c 0.266,0 0.481,0.215 0.481,0.481 v 18.017 c 0,0.266 -0.216,0.48 -0.481,0.48 h -28.422 c -0.266,0 -0.481,-0.215 -0.481,-0.48 v -18.017 c 0,-0.266 0.216,-0.481 0.481,-0.481 z"
         id="path4061"
         inkscape:connector-curvature="0"
         style="fill:#b7b7b5;fill-opacity:0.99199997" />
      <path
         d="m 681.168,144.147 h 25.81 c 0.24,0 0.437,0.195 0.437,0.437 v 15.777 c 0,0.241 -0.196,0.437 -0.437,0.437 h -25.81 c -0.241,0 -0.437,-0.196 -0.437,-0.437 v -15.777 c 0,-0.242 0.196,-0.437 0.437,-0.437 z"
         id="path4063"
         inkscape:connector-curvature="0"
         style="fill:#ffffff;fill-opacity:0.50800003" />
      <path
         d="m 714.658,144.682 h 28.423 c 0.266,0 0.481,0.215 0.481,0.481 v 18.016 c 0,0.266 -0.216,0.481 -0.481,0.481 h -28.423 c -0.265,0 -0.48,-0.215 -0.48,-0.481 v -18.016 c 0,-0.266 0.216,-0.481 0.48,-0.481 z"
         id="path4065"
         inkscape:connector-curvature="0"
         style="fill:#b7b7b5;fill-opacity:0.99199997" />
      <path
         d="m 714.76,144.656 h 25.809 c 0.241,0 0.438,0.195 0.438,0.437 v 15.777 c 0,0.241 -0.196,0.437 -0.438,0.437 H 714.76 c -0.241,0 -0.437,-0.195 -0.437,-0.437 v -15.777 c 0,-0.242 0.196,-0.437 0.437,-0.437 z"
         id="path4067"
         inkscape:connector-curvature="0"
         style="fill:#ffffff;fill-opacity:0.50800003" />
      <path
         d="m 746.724,145.191 h 28.423 c 0.265,0 0.48,0.215 0.48,0.481 v 18.017 c 0,0.265 -0.216,0.48 -0.48,0.48 h -28.423 c -0.266,0 -0.481,-0.215 -0.481,-0.48 v -18.017 c -0.001,-0.266 0.215,-0.481 0.481,-0.481 z"
         id="path4069"
         inkscape:connector-curvature="0"
         style="fill:#b7b7b5;fill-opacity:0.99199997" />
      <path
         d="m 746.824,145.165 h 25.81 c 0.241,0 0.437,0.196 0.437,0.437 v 15.777 c 0,0.241 -0.195,0.437 -0.437,0.437 h -25.81 c -0.241,0 -0.437,-0.195 -0.437,-0.437 v -15.777 c 0.001,-0.241 0.196,-0.437 0.437,-0.437 z"
         id="path4071"
         inkscape:connector-curvature="0"
         style="fill:#ffffff;fill-opacity:0.50800003" />
      <path
         d="m 681.067,185.399 h 28.422 c 0.266,0 0.481,0.215 0.481,0.48 v 18.017 c 0,0.266 -0.216,0.48 -0.481,0.48 h -28.422 c -0.266,0 -0.481,-0.215 -0.481,-0.48 V 185.88 c 0,-0.266 0.216,-0.481 0.481,-0.481 z"
         id="path4073"
         inkscape:connector-curvature="0"
         style="fill:#b7b7b5;fill-opacity:0.99199997" />
      <path
         d="m 681.168,185.373 h 25.81 c 0.24,0 0.437,0.195 0.437,0.437 v 15.777 c 0,0.24 -0.196,0.437 -0.437,0.437 h -25.81 c -0.241,0 -0.437,-0.196 -0.437,-0.437 V 185.81 c 0,-0.241 0.196,-0.437 0.437,-0.437 z"
         id="path4075"
         inkscape:connector-curvature="0"
         style="fill:#ffffff;fill-opacity:0.50800003" />
      <path
         d="m 713.132,184.89 h 28.423 c 0.266,0 0.48,0.215 0.48,0.481 v 18.017 c 0,0.266 -0.215,0.48 -0.48,0.48 h -28.423 c -0.266,0 -0.48,-0.215 -0.48,-0.48 v -18.017 c -0.001,-0.266 0.214,-0.481 0.48,-0.481 z"
         id="path4077"
         inkscape:connector-curvature="0"
         style="fill:#b7b7b5;fill-opacity:0.99199997" />
      <path
         d="m 713.232,184.864 h 25.81 c 0.241,0 0.437,0.196 0.437,0.437 v 15.776 c 0,0.242 -0.195,0.438 -0.437,0.438 h -25.81 c -0.241,0 -0.437,-0.195 -0.437,-0.438 v -15.776 c 0.001,-0.241 0.196,-0.437 0.437,-0.437 z"
         id="path4079"
         inkscape:connector-curvature="0"
         style="fill:#ffffff;fill-opacity:0.50800003" />
      <path
         d="m 745.196,185.399 h 28.423 c 0.266,0 0.48,0.215 0.48,0.48 v 18.017 c 0,0.266 -0.215,0.48 -0.48,0.48 h -28.423 c -0.265,0 -0.48,-0.215 -0.48,-0.48 V 185.88 c 0,-0.266 0.216,-0.481 0.48,-0.481 z"
         id="path4081"
         inkscape:connector-curvature="0"
         style="fill:#b7b7b5;fill-opacity:0.99199997" />
      <path
         d="m 745.297,185.373 h 25.81 c 0.241,0 0.437,0.195 0.437,0.437 v 15.777 c 0,0.24 -0.195,0.437 -0.437,0.437 h -25.81 c -0.241,0 -0.437,-0.196 -0.437,-0.437 V 185.81 c 0,-0.241 0.196,-0.437 0.437,-0.437 z"
         id="path4083"
         inkscape:connector-curvature="0"
         style="fill:#ffffff;fill-opacity:0.50800003" />
      <path
         d="m 744.687,211.865 h 28.423 c 0.266,0 0.48,0.216 0.48,0.481 v 18.016 c 0,0.266 -0.215,0.48 -0.48,0.48 h -28.423 c -0.266,0 -0.48,-0.215 -0.48,-0.48 v -18.016 c 0,-0.265 0.215,-0.481 0.48,-0.481 z"
         id="path4085"
         inkscape:connector-curvature="0"
         style="fill:#b7b7b5;fill-opacity:0.99199997" />
      <path
         d="m 744.788,211.839 h 25.81 c 0.241,0 0.437,0.196 0.437,0.438 v 15.776 c 0,0.241 -0.195,0.437 -0.437,0.437 h -25.81 c -0.241,0 -0.437,-0.195 -0.437,-0.437 v -15.776 c 10e-4,-0.242 0.196,-0.438 0.437,-0.438 z"
         id="path4087"
         inkscape:connector-curvature="0"
         style="fill:#ffffff;fill-opacity:0.50800003" />
      <path
         d="m 713.641,211.865 h 28.423 c 0.266,0 0.48,0.216 0.48,0.481 v 18.016 c 0,0.266 -0.215,0.48 -0.48,0.48 h -28.423 c -0.266,0 -0.48,-0.215 -0.48,-0.48 v -18.016 c -10e-4,-0.265 0.214,-0.481 0.48,-0.481 z"
         id="path4089"
         inkscape:connector-curvature="0"
         style="fill:#b7b7b5;fill-opacity:0.99199997" />
      <path
         d="m 713.741,211.84 h 25.81 c 0.241,0 0.437,0.195 0.437,0.437 v 15.776 c 0,0.241 -0.195,0.437 -0.437,0.437 h -25.81 c -0.241,0 -0.437,-0.195 -0.437,-0.437 v -15.776 c 10e-4,-0.242 0.196,-0.437 0.437,-0.437 z"
         id="path4091"
         inkscape:connector-curvature="0"
         style="fill:#ffffff;fill-opacity:0.50800003" />
      <path
         d="m 681.576,211.865 h 28.423 c 0.265,0 0.48,0.216 0.48,0.481 v 18.016 c 0,0.266 -0.216,0.48 -0.48,0.48 h -28.423 c -0.266,0 -0.48,-0.215 -0.48,-0.48 v -18.016 c 0,-0.265 0.214,-0.481 0.48,-0.481 z"
         id="path4093"
         inkscape:connector-curvature="0"
         style="fill:#b7b7b5;fill-opacity:0.99199997" />
      <path
         d="m 681.677,211.84 h 25.81 c 0.241,0 0.437,0.195 0.437,0.437 v 15.776 c 0,0.241 -0.195,0.437 -0.437,0.437 h -25.81 c -0.241,0 -0.437,-0.195 -0.437,-0.437 v -15.776 c 0,-0.242 0.196,-0.437 0.437,-0.437 z"
         id="path4095"
         inkscape:connector-curvature="0"
         style="fill:#ffffff;fill-opacity:0.50800003" />
      <path
         d="m 318.21,313.33 c -1.596,0 -2.881,1.285 -2.881,2.881 l 0.0625,26.237 h 176.12 l -0.0625,-26.237 c 0,-1.596 -1.285,-2.881 -2.881,-2.881 z"
         id="path4097"
         inkscape:connector-curvature="0"
         style="fill:#b7b7b5;fill-opacity:0.99199997" />
      <path
         d="m 319.01,313.28 c -1.546,0 -2.791,1.245 -2.791,2.79 l -0.125,22.762 h 170.56 l 0.125,-22.762 c 0,-1.545 -1.244,-2.79 -2.79,-2.79 z"
         id="path4099"
         inkscape:connector-curvature="0"
         style="fill:#ffffff;fill-opacity:0.50800003" />
      <path
         d="m 881.334,185.944 h 28.468 c 0.266,0 0.481,0.216 0.481,0.481 v 26.952 c 0,0.267 -0.216,0.482 -0.481,0.482 h -28.468 c -0.266,0 -0.48,-0.216 -0.48,-0.482 v -26.952 c -0.001,-0.265 0.214,-0.481 0.48,-0.481 z"
         id="path4101"
         inkscape:connector-curvature="0"
         style="fill:#b7b7b5;fill-opacity:0.99199997" />
      <path
         d="m 881.979,186.414 h 24.123 c 0.226,0 0.408,0.183 0.408,0.408 v 23.614 c 0,0.226 -0.183,0.408 -0.408,0.408 h -24.123 c -0.226,0 -0.408,-0.183 -0.408,-0.408 v -23.614 c 0,-0.225 0.183,-0.408 0.408,-0.408 z"
         id="path4103"
         inkscape:connector-curvature="0"
         style="fill:#ffffff;fill-opacity:0.50800003" />
      <path
         d="m 880.615,217.93 h 28.467 c 0.266,0 0.481,0.215 0.481,0.48 v 57.273 c 0,0.266 -0.216,0.481 -0.481,0.481 h -28.467 c -0.267,0 -0.482,-0.216 -0.482,-0.481 V 218.41 c 0,-0.265 0.216,-0.48 0.482,-0.48 z"
         id="path4105"
         inkscape:connector-curvature="0"
         style="fill:#b7b7b5;fill-opacity:0.99199997" />
      <path
         d="m 881.26,218.931 h 24.123 c 0.226,0 0.408,0.183 0.408,0.407 v 52.988 c 0,0.225 -0.183,0.408 -0.408,0.408 H 881.26 c -0.226,0 -0.408,-0.184 -0.408,-0.408 v -52.988 c 0,-0.224 0.182,-0.407 0.408,-0.407 z"
         id="path4107"
         inkscape:connector-curvature="0"
         style="fill:#ffffff;fill-opacity:0.50800003" />
      <path
         d="m 880.615,280.911 h 28.467 c 0.266,0 0.481,0.216 0.481,0.481 v 57.272 c 0,0.266 -0.216,0.482 -0.481,0.482 h -28.467 c -0.267,0 -0.482,-0.217 -0.482,-0.482 v -57.272 c 0,-0.265 0.216,-0.481 0.482,-0.481 z"
         id="path4109"
         inkscape:connector-curvature="0"
         style="fill:#b7b7b5;fill-opacity:0.99199997" />
      <path
         d="m 881.26,281.913 h 24.123 c 0.226,0 0.408,0.182 0.408,0.407 v 52.987 c 0,0.227 -0.183,0.408 -0.408,0.408 H 881.26 c -0.226,0 -0.408,-0.182 -0.408,-0.408 V 282.32 c 0,-0.226 0.182,-0.407 0.408,-0.407 z"
         id="path4111"
         inkscape:connector-curvature="0"
         style="fill:#ffffff;fill-opacity:0.50800003" />
      <path
         d="m 619.23,217.2 h 41.629 v 58.164 l -31.638,1.531 c -0.277,-10.97 -0.555,-21.939 -0.833,-32.908 l -9.158,-0.766 z"
         id="path4113"
         inkscape:connector-curvature="0"
         style="fill:#b7b7b5;fill-opacity:0.99199997" />
      <path
         d="m 624.21,217.897 h 35.989 V 272.6 l -27.353,1.439 c -0.239,-10.316 -0.479,-20.634 -0.72,-30.951 l -7.917,-0.719 c 0.001,-8.157 0.001,-16.316 0.001,-24.472 z"
         id="path4115"
         inkscape:connector-curvature="0"
         style="fill:#ffffff;fill-opacity:0.50800003" />
    </g>
  </g>
</svg>
