<?xml version="1.0" encoding="UTF-8"?>
<svg viewBox="0 0 691.22449 483.26849" xmlns="http://www.w3.org/2000/svg" xmlns:xlink="http://www.w3.org/1999/xlink">
 <defs>
  <linearGradient id="a">
   <stop offset="0"/>
   <stop stop-opacity="0" offset="1"/>
  </linearGradient>
  <linearGradient id="e" x1="3215" x2="3204.2" y1="-2405.9" y2="-1676.8" gradientTransform="matrix(.32762 .11924 -.11924 .32762 1950.5 -666.4)" gradientUnits="userSpaceOnUse" xlink:href="#a"/>
  <linearGradient id="d" x1="3215" x2="3204.2" y1="-2405.9" y2="-1676.8" gradientTransform="matrix(.32762 .11924 .11924 -.32762 2454.7 -2051.8)" gradientUnits="userSpaceOnUse" xlink:href="#a"/>
  <radialGradient id="b" cx="2000.1" cy="541.23" r="345.61" gradientTransform="matrix(1.0135e-7 .32648 -.72486 -.0013702 2392.4 -111.02)" gradientUnits="userSpaceOnUse">
   <stop stop-color="#483e37" offset="0"/>
   <stop stop-color="#fff" offset="1"/>
  </radialGradient>
  <radialGradient id="c" cx="2966.5" cy="-2368.8" r="728.58" gradientTransform="matrix(-.13083 .3289 -.29934 -.11907 2966.5 -2331.3)" gradientUnits="userSpaceOnUse" xlink:href="#a"/>
 </defs>
 <path transform="matrix(1 0 0 1.119 -1654.5 -253.08)" d="m2345.7 541.22a345.61 116.85 0 1 1 -691.22 0 345.61 116.85 0 1 1 691.22 0z" fill="url(#b)" opacity=".6"/>
 <g transform="translate(-2892.3 1207.4)">
  <path transform="rotate(20)" d="m2473.3-2182.6h497.53a18.213 21.747 0 0 1 18.213 21.747v261.24a18.213 21.747 0 0 1 -18.213 21.747h-497.53a18.213 21.747 0 0 1 -18.213 -21.747v-261.24a18.213 21.747 0 0 1 18.213 -21.747" fill="#de8787"/>
  <path d="m3285.4-1069.5c-2.8762-1.0217-5.9428-1.0043-8.7088 0.2855l-311.74 145.37c-1.1421 0.53259-2.1471 1.2496-3.0138 2.1036l477.39 173.76c-0.1943-1.8628-0.7064-3.7611-1.5685-5.6098l-143.3-307.31c-1.9802-4.2463-5.3577-7.276-9.0556-8.5895z" fill="#de8787" stroke="url(#e)" stroke-width="2.6148"/>
  <path d="m3216.3-879.72c-2.86-1.0661-5.198-3.0506-6.4878-5.8166l-145.37-311.74c-0.5326-1.1421-0.8416-2.3374-0.9566-3.5486l477.39 173.76c-1.3463 1.3021-2.9587 2.4271-4.8074 3.2892l-307.31 143.3c-4.2463 1.9801-8.7811 2.1299-12.458 0.75917z" fill="url(#c)"/>
  <path d="m3218.2-884.96c-2.86-1.0661-5.198-3.0507-6.4878-5.8166l-145.37-311.74c-0.5326-1.1421-0.8416-2.3374-0.9565-3.5486l477.39 173.76c-1.3463 1.3021-2.9587 2.427-4.8074 3.2891l-307.31 143.3c-4.2463 1.9801-8.7811 2.1299-12.458 0.75917z" fill="#de8787" stroke="url(#d)" stroke-width="2.6148"/>
 </g>
</svg>
