<?xml version="1.0" encoding="UTF-8" standalone="no"?>
<svg
   version="1.1"
   width="386.99243"
   height="445.24799"
   viewBox="-213 302 386.99243 445.24798"
   id="svg195"
   sodipodi:docname="sales-page.svg"
   inkscape:version="1.1.1 (3bf5ae0d25, 2021-09-20, custom)"
   xmlns:inkscape="http://www.inkscape.org/namespaces/inkscape"
   xmlns:sodipodi="http://sodipodi.sourceforge.net/DTD/sodipodi-0.dtd"
   xmlns="http://www.w3.org/2000/svg"
   xmlns:svg="http://www.w3.org/2000/svg">
  <defs
     id="defs199">
    <filter
       inkscape:collect="always"
       style="color-interpolation-filters:sRGB"
       id="filter2825"
       x="-0.026856686"
       y="-0.023179894"
       width="1.0537134"
       height="1.0463598">
      <feGaussianBlur
         inkscape:collect="always"
         stdDeviation="4.83935"
         id="feGaussianBlur2827" />
    </filter>
  </defs>
  <sodipodi:namedview
     id="namedview197"
     pagecolor="#505050"
     bordercolor="#eeeeee"
     borderopacity="1"
     inkscape:pageshadow="0"
     inkscape:pageopacity="0"
     inkscape:pagecheckerboard="0"
     showgrid="false"
     inkscape:zoom="0.76894866"
     inkscape:cx="-59.171701"
     inkscape:cy="353.72973"
     inkscape:window-width="1920"
     inkscape:window-height="1008"
     inkscape:window-x="0"
     inkscape:window-y="44"
     inkscape:window-maximized="1"
     inkscape:current-layer="svg195"
     fit-margin-top="0"
     fit-margin-left="0"
     fit-margin-right="0"
     fit-margin-bottom="0" />
  <g
     style="fill:#242424;fill-opacity:1;stroke-linejoin:miter"
     id="g6"
     transform="translate(-256.07097,-260.84147)" />
  <g
     id="g3903"
     transform="translate(-30.733768,-31.904343)">
    <g
       id="g2805"
       transform="matrix(0.84924711,0,0,0.84924711,-182.88003,-107.12895)"
       style="opacity:0.489;mix-blend-mode:normal;fill:#000000;filter:url(#filter2825)">
      <g
         style="fill:#000000;fill-opacity:1;stroke-linejoin:miter"
         id="g2707">
        <path
           d="m 15.488518,539.4291 -3.151322,492.5647 H 441.6621 l 3.13502,-489.819 z"
           id="path2705"
           style="fill:#000000" />
      </g>
      <g
         style="fill:#000000;fill-opacity:1;stroke-linejoin:miter"
         id="g2711">
        <path
           d="M 318.18472,554.61053 38.21747,552.82104 c -5.813356,-0.0389 -10.604044,4.68549 -10.641321,10.5008 -0.03715,5.81326 4.692711,10.60416 10.506065,10.64146 l 279.969026,1.79274 c 5.81876,0.0355 10.60966,-4.68884 10.64686,-10.50784 0.0354,-5.8135 -4.69456,-10.6005 -10.51338,-10.63767 z"
           id="path2709"
           style="fill:#000000" />
      </g>
      <g
         style="fill:#000000;fill-opacity:1;stroke-linejoin:miter"
         id="g2715">
        <path
           d="m 354.37772,556.37994 c 4.98462,0.0319 9.00438,4.10163 8.97253,9.09346 -0.0321,4.9848 -4.10171,9.0048 -9.0881,8.97277 -4.99378,-0.0318 -9.00989,-4.10181 -8.97815,-9.08837 0.0319,-4.9865 4.1017,-9.00966 9.09372,-8.97786 z"
           id="path2713"
           style="fill:#000000" />
      </g>
      <g
         style="fill:#000000;fill-opacity:1;stroke-linejoin:miter"
         id="g2719">
        <path
           d="m 388.1739,556.5961 c 4.9884,0.032 9.00438,4.1018 8.97237,9.0936 -0.0319,4.9847 -4.10147,9.00445 -9.08783,8.97265 -4.98831,-0.0318 -9.00458,-4.1018 -8.97269,-9.08825 0.0318,-4.98645 4.09983,-9.00977 9.08815,-8.978 z"
           id="path2717"
           style="fill:#000000" />
      </g>
      <g
         style="fill:#000000;fill-opacity:1;stroke-linejoin:miter"
         id="g2723">
        <path
           d="m 421.97205,556.8123 c 4.98815,0.0319 9.0043,4.10176 8.97255,9.0936 -0.032,4.9849 -4.10167,9.0047 -9.0881,8.97276 -4.98827,-0.0321 -9.00457,-4.10193 -8.97256,-9.08836 0.0319,-4.98647 4.1015,-9.00966 9.08811,-8.978 z"
           id="path2721"
           style="fill:#000000" />
      </g>
      <g
         style="fill:#000000;fill-opacity:1;stroke-linejoin:miter"
         id="g2727">
        <path
           d="M 41.919518,615.62024 226.26413,616.80145 224.87247,834.32764 40.527855,833.1504 Z"
           id="path2725"
           style="fill:#000000" />
      </g>
      <g
         style="fill:#000000;fill-opacity:1;stroke-linejoin:miter"
         id="g2731">
        <path
           d="m 249.00351,616.9632 -0.0546,8.5346 158.53647,1.01215 0.0545,-8.53255 z"
           id="path2729"
           style="fill:#000000" />
      </g>
      <g
         style="fill:#000000;fill-opacity:1;stroke-linejoin:miter"
         id="g2735">
        <path
           d="m 248.77756,652.29395 -0.0547,8.53285 158.53641,1.01225 0.0546,-8.53285 z"
           id="path2733"
           style="fill:#000000" />
      </g>
      <g
         style="fill:#000000;fill-opacity:1;stroke-linejoin:miter"
         id="g2739">
        <path
           d="m 248.55142,687.6209 -0.0545,8.5347 127.17532,0.8118 0.0547,-8.5328 z"
           id="path2737"
           style="fill:#000000" />
      </g>
      <g
         style="fill:#000000;fill-opacity:1;stroke-linejoin:miter"
         id="g2743">
        <path
           d="m 248.3255,722.95 -0.0546,8.5346 158.53629,1.01217 0.0546,-8.53254 z"
           id="path2741"
           style="fill:#000000" />
      </g>
      <g
         style="fill:#000000;fill-opacity:1;stroke-linejoin:miter"
         id="g2747">
        <path
           d="m 248.09952,758.277 -0.0547,8.53465 158.53637,1.01239 0.0546,-8.53314 z"
           id="path2745"
           style="fill:#000000" />
      </g>
      <g
         style="fill:#000000;fill-opacity:1;stroke-linejoin:miter"
         id="g2751">
        <path
           d="m 247.8735,793.60956 -0.0273,4.26538 -0.0273,4.2655 q 44.54001,0.28396 89.08009,0.56806 l 0.0544,-8.5272 q -44.53989,-0.2861 -89.07993,-0.57174 z"
           id="path2749"
           style="fill:#000000" />
      </g>
      <g
         style="fill:#000000;fill-opacity:1;stroke-linejoin:miter"
         id="g2755">
        <path
           d="m 40.38021,856.20337 -0.05466,8.53443 323.19941,2.0654 0.0547,-8.5325 z"
           id="path2753"
           style="fill:#000000" />
      </g>
      <g
         style="fill:#000000;fill-opacity:1;stroke-linejoin:miter"
         id="g2759">
        <path
           d="m 40.154152,891.53204 -0.05454,8.53466 323.199308,2.0656 0.0546,-8.5328 z"
           id="path2757"
           style="fill:#000000" />
      </g>
      <g
         style="fill:#000000;fill-opacity:1;stroke-linejoin:miter"
         id="g2763">
        <path
           d="m 39.928284,926.86115 -0.05461,8.53435 259.266856,1.6566 0.0546,-8.5328 z"
           id="path2761"
           style="fill:#000000" />
      </g>
      <g
         style="fill:#000000;fill-opacity:1;stroke-linejoin:miter"
         id="g2767">
        <path
           d="m 39.70217,962.1902 -0.05461,8.5344 323.19936,2.06544 0.0546,-8.53284 z"
           id="path2765"
           style="fill:#000000" />
      </g>
      <g
         style="fill:#000000;fill-opacity:1;stroke-linejoin:miter"
         id="g2771">
        <path
           d="m 39.47616,997.5187 -0.05461,8.5345 323.19932,2.0653 0.0546,-8.53244 z"
           id="path2769"
           style="fill:#000000" />
      </g>
      <g
         style="fill:#000000;fill-opacity:1;stroke-linejoin:miter"
         id="g2775">
        <path
           d="m 248.77756,652.29224 v 7.3e-4 l -9e-5,9.8e-4 q 9e-5,3e-4 9e-5,8.5e-4 v -8.5e-4 q 0,-9.8e-4 0,-0.002 z"
           id="path2773"
           style="fill:#000000" />
      </g>
      <g
         style="fill:#000000;fill-opacity:1;stroke-linejoin:miter"
         id="g2779">
        <path
           d="m 14.421455,530.93713 215.042225,3.1e-4 215.04222,4.3e-4 q 0,22.58633 0,45.17273 -215.04222,2e-4 -430.084445,6e-4 0,-22.587 0,-45.17407 z"
           id="path2777"
           style="fill:#000000" />
      </g>
      <g
         style="fill:#000000;fill-opacity:1;stroke-linejoin:miter"
         id="g2783">
        <path
           d="m 21.861042,539.1925 177.494028,10e-5 177.49411,3.3e-4 q 0,13.15737 0,26.31477 -177.49411,4e-4 -354.988138,7e-4 0,-13.1581 0,-26.3159 z"
           id="path2781"
           style="fill:#000000" />
      </g>
      <g
         style="fill:#000000;fill-opacity:1;stroke-linejoin:miter"
         id="g2787">
        <path
           d="m 383.9246,541.9063 17.205,3e-4 17.2051,1.4e-4 q 0,10.44356 0,20.88726 -17.2051,3e-4 -34.4101,3e-4 0,-10.444 0,-20.888 z"
           id="path2785"
           style="fill:#000000" />
      </g>
      <g
         style="fill:#000000;fill-opacity:1;stroke-linejoin:miter"
         id="g2791">
        <path
           d="m 248.50436,692.3601 1.6e-4,2e-4 1.5e-4,10e-4 -1.5e-4,-10e-4 -1.6e-4,-2e-4 1.6e-4,2e-4 1.5e-4,10e-4 q -1.5e-4,-10e-4 -3.1e-4,-10e-4 z"
           id="path2789"
           style="fill:#000000" />
      </g>
      <g
         style="fill:#000000;fill-opacity:1;stroke-linejoin:miter"
         id="g2795">
        <path
           d="m 248.50436,692.3601 1.6e-4,2e-4 1.5e-4,10e-4 -1.5e-4,-10e-4 -1.6e-4,-2e-4 1.6e-4,2e-4 1.5e-4,10e-4 q -1.5e-4,-10e-4 -3.1e-4,-10e-4 z"
           id="path2793"
           style="fill:#000000" />
      </g>
      <g
         style="fill:#000000;fill-opacity:1;stroke-linejoin:miter"
         id="g2799">
        <path
           d="m 287.8966,714.7715 2e-4,2e-4 1.7e-4,3.3e-4 -1.7e-4,-3.3e-4 -2e-4,-2e-4 2e-4,2e-4 1.7e-4,3.3e-4 q -1.7e-4,-3.3e-4 -3.7e-4,-5.3e-4 z"
           id="path2797"
           style="fill:#000000" />
      </g>
      <g
         style="fill:#000000;fill-opacity:1;stroke-linejoin:miter"
         id="g2803">
        <path
           d="m 184.60175,563.9485 1.3e-4,1e-4 8e-5,10e-4 -8e-5,-10e-4 -1.3e-4,-1e-4 1.3e-4,1e-4 8e-5,10e-4 q -8e-5,-10e-4 -2.1e-4,-10e-4 z"
           id="path2801"
           style="fill:#000000" />
      </g>
    </g>
    <g
       id="g1402"
       transform="matrix(0.84522074,0,0,0.84522074,-189.95974,-107.98248)">
      <g
         style="fill:#ffffff;fill-opacity:1;stroke-linejoin:miter"
         id="g70">
        <path
           d="m 15.488518,539.4291 -3.151322,492.5647 H 441.6621 l 3.13502,-489.819 z"
           id="path68" />
      </g>
      <g
         style="fill:#ffffff;fill-opacity:1;stroke-linejoin:miter"
         id="g74">
        <path
           d="M 318.18472,554.61053 38.21747,552.82104 c -5.813356,-0.0389 -10.604044,4.68549 -10.641321,10.5008 -0.03715,5.81326 4.692711,10.60416 10.506065,10.64146 l 279.969026,1.79274 c 5.81876,0.0355 10.60966,-4.68884 10.64686,-10.50784 0.0354,-5.8135 -4.69456,-10.6005 -10.51338,-10.63767 z"
           id="path72" />
      </g>
      <g
         style="fill:#ffffff;fill-opacity:1;stroke-linejoin:miter"
         id="g78">
        <path
           d="m 354.37772,556.37994 c 4.98462,0.0319 9.00438,4.10163 8.97253,9.09346 -0.0321,4.9848 -4.10171,9.0048 -9.0881,8.97277 -4.99378,-0.0318 -9.00989,-4.10181 -8.97815,-9.08837 0.0319,-4.9865 4.1017,-9.00966 9.09372,-8.97786 z"
           id="path76" />
      </g>
      <g
         style="fill:#ffffff;fill-opacity:1;stroke-linejoin:miter"
         id="g82">
        <path
           d="m 388.1739,556.5961 c 4.9884,0.032 9.00438,4.1018 8.97237,9.0936 -0.0319,4.9847 -4.10147,9.00445 -9.08783,8.97265 -4.98831,-0.0318 -9.00458,-4.1018 -8.97269,-9.08825 0.0318,-4.98645 4.09983,-9.00977 9.08815,-8.978 z"
           id="path80" />
      </g>
      <g
         style="fill:#ffffff;fill-opacity:1;stroke-linejoin:miter"
         id="g86">
        <path
           d="m 421.97205,556.8123 c 4.98815,0.0319 9.0043,4.10176 8.97255,9.0936 -0.032,4.9849 -4.10167,9.0047 -9.0881,8.97276 -4.98827,-0.0321 -9.00457,-4.10193 -8.97256,-9.08836 0.0319,-4.98647 4.1015,-9.00966 9.08811,-8.978 z"
           id="path84" />
      </g>
      <g
         style="fill:#ecf0f1;fill-opacity:1;stroke-linejoin:miter"
         id="g90">
        <path
           d="M 41.919518,615.62024 226.26413,616.80145 224.87247,834.32764 40.527855,833.1504 Z"
           id="path88" />
      </g>
      <g
         style="fill:#ecf0f1;fill-opacity:1;stroke-linejoin:miter"
         id="g94">
        <path
           d="m 249.00351,616.9632 -0.0546,8.5346 158.53647,1.01215 0.0545,-8.53255 z"
           id="path92" />
      </g>
      <g
         style="fill:#ecf0f1;fill-opacity:1;stroke-linejoin:miter"
         id="g98">
        <path
           d="m 248.77756,652.29395 -0.0547,8.53285 158.53641,1.01225 0.0546,-8.53285 z"
           id="path96" />
      </g>
      <g
         style="fill:#ecf0f1;fill-opacity:1;stroke-linejoin:miter"
         id="g102">
        <path
           d="m 248.55142,687.6209 -0.0545,8.5347 127.17532,0.8118 0.0547,-8.5328 z"
           id="path100" />
      </g>
      <g
         style="fill:#ecf0f1;fill-opacity:1;stroke-linejoin:miter"
         id="g106">
        <path
           d="m 248.3255,722.95 -0.0546,8.5346 158.53629,1.01217 0.0546,-8.53254 z"
           id="path104" />
      </g>
      <g
         style="fill:#ecf0f1;fill-opacity:1;stroke-linejoin:miter"
         id="g110">
        <path
           d="m 248.09952,758.277 -0.0547,8.53465 158.53637,1.01239 0.0546,-8.53314 z"
           id="path108" />
      </g>
      <g
         style="fill:#ecf0f1;fill-opacity:1;stroke-linejoin:miter"
         id="g114">
        <path
           d="m 247.8735,793.60956 -0.0273,4.26538 -0.0273,4.2655 q 44.54001,0.28396 89.08009,0.56806 l 0.0544,-8.5272 q -44.53989,-0.2861 -89.07993,-0.57174 z"
           id="path112" />
      </g>
      <g
         style="fill:#ecf0f1;fill-opacity:1;stroke-linejoin:miter"
         id="g118">
        <path
           d="m 40.38021,856.20337 -0.05466,8.53443 323.19941,2.0654 0.0547,-8.5325 z"
           id="path116" />
      </g>
      <g
         style="fill:#ecf0f1;fill-opacity:1;stroke-linejoin:miter"
         id="g122">
        <path
           d="m 40.154152,891.53204 -0.05454,8.53466 323.199308,2.0656 0.0546,-8.5328 z"
           id="path120" />
      </g>
      <g
         style="fill:#ecf0f1;fill-opacity:1;stroke-linejoin:miter"
         id="g126">
        <path
           d="m 39.928284,926.86115 -0.05461,8.53435 259.266856,1.6566 0.0546,-8.5328 z"
           id="path124" />
      </g>
      <g
         style="fill:#ecf0f1;fill-opacity:1;stroke-linejoin:miter"
         id="g130">
        <path
           d="m 39.70217,962.1902 -0.05461,8.5344 323.19936,2.06544 0.0546,-8.53284 z"
           id="path128" />
      </g>
      <g
         style="fill:#ecf0f1;fill-opacity:1;stroke-linejoin:miter"
         id="g134">
        <path
           d="m 39.47616,997.5187 -0.05461,8.5345 323.19932,2.0653 0.0546,-8.53244 z"
           id="path132" />
      </g>
      <g
         style="fill:#ecf0f1;fill-opacity:1;stroke-linejoin:miter"
         id="g138">
        <path
           d="m 248.77756,652.29224 v 7.3e-4 l -9e-5,9.8e-4 q 9e-5,3e-4 9e-5,8.5e-4 v -8.5e-4 q 0,-9.8e-4 0,-0.002 z"
           id="path136" />
      </g>
      <g
         style="fill:#154b6f;fill-opacity:1;stroke-linejoin:miter"
         id="g142">
        <path
           d="m 14.421455,530.93713 215.042225,3.1e-4 215.04222,4.3e-4 q 0,22.58633 0,45.17273 -215.04222,2e-4 -430.084445,6e-4 0,-22.587 0,-45.17407 z"
           id="path140" />
      </g>
      <g
         style="fill:#ffffff;fill-opacity:1;stroke-linejoin:miter"
         id="g146">
        <path
           d="m 21.861042,539.1925 177.494028,10e-5 177.49411,3.3e-4 q 0,13.15737 0,26.31477 -177.49411,4e-4 -354.988138,7e-4 0,-13.1581 0,-26.3159 z"
           id="path144" />
      </g>
      <g
         style="fill:#ffffff;fill-opacity:1;stroke-linejoin:miter"
         id="g150">
        <path
           d="m 383.9246,541.9063 17.205,3e-4 17.2051,1.4e-4 q 0,10.44356 0,20.88726 -17.2051,3e-4 -34.4101,3e-4 0,-10.444 0,-20.888 z"
           id="path148" />
      </g>
      <g
         style="fill:#000000;fill-opacity:1;stroke-linejoin:miter"
         id="g154">
        <path
           d="m 248.50436,692.3601 1.6e-4,2e-4 1.5e-4,10e-4 -1.5e-4,-10e-4 -1.6e-4,-2e-4 1.6e-4,2e-4 1.5e-4,10e-4 q -1.5e-4,-10e-4 -3.1e-4,-10e-4 z"
           id="path152" />
      </g>
      <g
         style="fill:#000000;fill-opacity:1;stroke-linejoin:miter"
         id="g158">
        <path
           d="m 248.50436,692.3601 1.6e-4,2e-4 1.5e-4,10e-4 -1.5e-4,-10e-4 -1.6e-4,-2e-4 1.6e-4,2e-4 1.5e-4,10e-4 q -1.5e-4,-10e-4 -3.1e-4,-10e-4 z"
           id="path156" />
      </g>
      <g
         style="fill:#000000;fill-opacity:1;stroke-linejoin:miter"
         id="g162">
        <path
           d="m 287.8966,714.7715 2e-4,2e-4 1.7e-4,3.3e-4 -1.7e-4,-3.3e-4 -2e-4,-2e-4 2e-4,2e-4 1.7e-4,3.3e-4 q -1.7e-4,-3.3e-4 -3.7e-4,-5.3e-4 z"
           id="path160" />
      </g>
      <g
         style="fill:#ff0000;fill-opacity:1;stroke-linejoin:miter"
         id="g166">
        <path
           d="m 184.60175,563.9485 1.3e-4,1e-4 8e-5,10e-4 -8e-5,-10e-4 -1.3e-4,-1e-4 1.3e-4,1e-4 8e-5,10e-4 q -8e-5,-10e-4 -2.1e-4,-10e-4 z"
           id="path164" />
      </g>
    </g>
  </g>
</svg>
