<?xml version="1.0" encoding="UTF-8" standalone="no"?>
<svg
   xmlns:dc="http://purl.org/dc/elements/1.1/"
   xmlns:cc="http://creativecommons.org/ns#"
   xmlns:rdf="http://www.w3.org/1999/02/22-rdf-syntax-ns#"
   xmlns:svg="http://www.w3.org/2000/svg"
   xmlns="http://www.w3.org/2000/svg"
   xmlns:xlink="http://www.w3.org/1999/xlink"
   xmlns:sodipodi="http://sodipodi.sourceforge.net/DTD/sodipodi-0.dtd"
   xmlns:inkscape="http://www.inkscape.org/namespaces/inkscape"
   width="9.0002565mm"
   height="15.196862mm"
   viewBox="0 0 9.0002565 15.196862"
   version="1.1"
   id="svg18945"
   inkscape:version="1.0.2 (e86c870879, 2021-01-15, custom)"
   sodipodi:docname="tube.svg">
  <defs
     id="defs18939">
    <linearGradient
       id="e-367"
       x1="192.12"
       x2="250.06"
       gradientUnits="userSpaceOnUse">
      <stop
         stop-color="#fdffc2"
         stop-opacity=".58333"
         offset="0"
         id="stop13963" />
      <stop
         stop-color="#babf2d"
         stop-opacity=".32292"
         offset=".41509"
         id="stop13965" />
      <stop
         stop-color="#e5ef07"
         stop-opacity="0"
         offset="1"
         id="stop13967" />
    </linearGradient>
    <linearGradient
       id="d-53"
       x1="186.53"
       x2="255.66"
       gradientUnits="userSpaceOnUse">
      <stop
         stop-color="#e5ffff"
         offset="0"
         id="stop13970" />
      <stop
         stop-color="#00609e"
         stop-opacity=".49804"
         offset=".30189"
         id="stop13972" />
      <stop
         stop-color="#00609e"
         stop-opacity="0"
         offset="1"
         id="stop13974" />
    </linearGradient>
    <linearGradient
       id="c-62"
       x1="197.61"
       x2="198.11"
       y1="398.01001"
       y2="452.04999"
       gradientTransform="matrix(1.0714,0,0,1,-22.135,4)"
       gradientUnits="userSpaceOnUse"
       xlink:href="#a-5" />
    <linearGradient
       id="a-5">
      <stop
         stop-color="#fff"
         stop-opacity=".57292"
         offset="0"
         id="stop13977" />
      <stop
         stop-color="#fff"
         stop-opacity="0"
         offset="1"
         id="stop13979" />
    </linearGradient>
    <linearGradient
       id="b-9"
       x1="190.60001"
       x2="217.39"
       y1="398.42001"
       y2="397.23999"
       gradientTransform="matrix(1.3563,0,0,0.17558,-347.49,549.09)"
       gradientUnits="userSpaceOnUse"
       xlink:href="#a-5" />
  </defs>
  <sodipodi:namedview
     id="base"
     pagecolor="#ffffff"
     bordercolor="#666666"
     borderopacity="1.0"
     inkscape:pageopacity="0.0"
     inkscape:pageshadow="2"
     inkscape:zoom="2.8"
     inkscape:cx="70.343802"
     inkscape:cy="4.1995669"
     inkscape:document-units="mm"
     inkscape:current-layer="layer1"
     inkscape:document-rotation="0"
     showgrid="false"
     inkscape:window-width="1920"
     inkscape:window-height="1016"
     inkscape:window-x="0"
     inkscape:window-y="28"
     inkscape:window-maximized="1" />
  <metadata
     id="metadata18942">
    <rdf:RDF>
      <cc:Work
         rdf:about="">
        <dc:format>image/svg+xml</dc:format>
        <dc:type
           rdf:resource="http://purl.org/dc/dcmitype/StillImage" />
        <dc:title></dc:title>
      </cc:Work>
    </rdf:RDF>
  </metadata>
  <g
     inkscape:label="Sample"
     inkscape:groupmode="layer"
     id="layer1"
     transform="translate(-189.77964,-191.21704)">
    <g
       transform="matrix(0.03419313,-0.01675168,0.01675168,0.03419313,180.31912,189.2395)"
       id="g14056"
       style="display:inline;opacity:0.999;mix-blend-mode:normal"
       inkscape:label="Tube">
      <path
         d="m 192.8125,388.53125 c -0.002,10e-4 0.002,0.0298 0,0.0312 h -0.0312 c -10e-4,0.004 8.5e-4,0.0267 0,0.0312 -10e-4,0.0141 -5e-5,0.0494 0,0.0625 -3e-4,0.003 6.5e-4,0.0284 0,0.0312 h -0.0312 -0.0312 l -0.0312,0.0312 c -0.0688,0.16856 -0.0522,0.7517 -0.0625,0.875 -4.5e-4,0.007 8e-5,0.0234 0,0.0312 2.3e-4,0.0163 0,0.0481 0,0.0625 v 182.4375 c 0,0.0192 -8e-4,0.0434 0,0.0625 0.005,0.0856 0.0103,0.19841 0.0312,0.28125 0.001,0.004 -0.002,0.0273 0,0.0312 l 0.0312,0.0312 0.0625,0.125 c 3.3e-4,0.005 1.7e-4,0.026 0,0.0312 -1.4e-4,0.003 5.1e-4,0.0285 0,0.0312 -5.1e-4,0.003 -0.001,0.0286 0,0.0312 h 0.0312 c 0.001,0.003 -9.2e-4,0.0286 0,0.0312 1.06337,15.34714 14.21136,27.13122 29.65625,26.40625 14.55873,-0.68335 26.0464,-12.23345 27,-26.4375 -2.6e-4,-0.003 7e-5,-0.0285 0,-0.0312 3.3e-4,-0.005 1.6e-4,-0.0259 0,-0.0312 l 0.0312,-0.0312 c 0.0217,-0.0535 0.0474,-0.1325 0.0625,-0.1875 0.021,-0.0828 0.0259,-0.1956 0.0312,-0.28125 8e-4,-0.0191 0,-0.0433 0,-0.0625 V 389.6871 c 0,-0.0144 -2.2e-4,-0.0462 0,-0.0625 -8e-5,-0.008 4.5e-4,-0.0241 0,-0.0312 -0.0175,-0.20866 -0.0812,-0.43569 -0.1875,-0.625 l -0.0312,-0.0312 c -0.002,-0.002 0.002,-0.0297 0,-0.0312 h -0.0312 -0.0312 c -0.006,0.004 -0.0256,0.0251 -0.0312,0.0312 -0.004,0.005 -0.0275,0.0254 -0.0312,0.0312 -0.43461,0.76541 -1.01515,7.04975 -4.96875,6.84375 l -12.15625,0.0625 c -0.93964,-1.3651 -2.53739,-2.20831 -4.3125,-2.125 -1.62226,0.0761 -3.02875,0.90679 -3.875,2.15625 L 198.09375,396 c -3.54141,0.37666 -3.9716,-5.85907 -4.40625,-6.90625 -0.007,-0.0159 -0.024,-0.0495 -0.0312,-0.0625 -0.0109,-0.0172 -0.0202,-0.0523 -0.0312,-0.0625 -0.31693,-0.23739 -0.53424,-0.35332 -0.65625,-0.40625 -0.019,-0.008 -0.0473,-0.0271 -0.0625,-0.0312 h -0.0312 -0.0312 -0.0312 z"
         fill="url(#e)"
         stroke="#000000"
         id="path13986"
         style="fill:url(#e-367)" />
      <path
         d="m 190.53125,182.25 c -1.64402,0.0497 -3.0121,0.76407 -3.40625,1.6875 -0.0253,0.0625 -0.0462,0.15432 -0.0625,0.21875 -0.0193,0.0832 -0.0276,0.19532 -0.0312,0.28125 -2e-4,0.01 0,0.0216 0,0.0312 v 387.03125 c 0,0.0769 -0.0126,0.1752 0,0.25 0.0126,0.0748 0.041,0.15542 0.0625,0.21875 0.003,0.009 0.0278,0.0223 0.0312,0.0312 0.003,0.009 1e-4,0.021 0,0.0312 -1e-4,0.0102 -0.004,0.0224 0,0.0312 -0.006,0.63689 8.1e-4,1.29341 0.0312,1.9375 0.8798,18.61641 16.81845,32.99879 35.5625,32.125 18.35746,-0.85578 32.62001,-16.04193 32.375,-34.15625 0.006,-0.0181 -0.005,-0.0442 0,-0.0625 0.0135,-0.0456 0.0537,-0.10967 0.0625,-0.15625 0.0126,-0.0748 0,-0.17314 0,-0.25 V 184.46855 c 0,-0.01 2e-4,-0.0217 0,-0.0312 -0.004,-0.0859 -0.012,-0.19807 -0.0312,-0.28125 -0.0163,-0.0644 -0.0372,-0.15629 -0.0625,-0.21875 -0.40931,-0.95895 -1.8644,-1.6875 -3.59375,-1.6875 h -60.75 -0.1875 z"
         fill="url(#d)"
         stroke="#000000"
         id="path13988"
         style="fill:url(#d-53)" />
      <path
         d="m 195.84,229.05 h 2.1219 a 5.7309,7.2704 0 0 1 5.7309,7.2704 v 286.59 a 5.7309,7.2704 0 0 1 -5.7309,7.2704 H 195.84 a 5.7309,7.2704 0 0 1 -5.7309,-7.2704 v -286.59 A 5.7309,7.2704 0 0 1 195.84,229.05"
         fill="url(#c)"
         id="path13990"
         style="fill:url(#c-62)" />
      <path
         transform="matrix(0.9178,-0.39705,0.44239,0.89682,0,0)"
         d="m -62.049,588.6 a 16.754,23.981 0 0 1 16.754,23.981 16.754,23.981 0 0 1 -16.754,23.981 16.754,23.981 0 0 1 -16.754,-23.981 16.754,23.981 0 0 1 16.754,-23.981"
         fill="url(#b)"
         id="path13992"
         style="fill:url(#b-9)" />
      <path
         transform="translate(1.2799,-33.276)"
         d="m 224.22,566.37 c 0.10157,2.1641 -1.5705,4.0008 -3.7346,4.1024 -2.1641,0.1016 -4.0008,-1.5704 -4.1024,-3.7346 -0.1016,-2.1642 1.5704,-4.0009 3.7346,-4.1024 2.1402,-0.10045 3.965,1.5348 4.0991,3.6731"
         fill="#fcffff"
         fill-opacity="0.63478"
         id="path13994" />
      <path
         transform="translate(1.2799,-33.276)"
         d="m 220.08,553.49 c 0.14435,3.0754 -2.2317,5.6854 -5.307,5.8298 -3.0753,0.1444 -5.6854,-2.2317 -5.8298,-5.307 -0.1444,-3.0753 2.2317,-5.6854 5.307,-5.8298 3.0413,-0.14275 5.6345,2.181 5.825,5.2197"
         fill="#fcffff"
         fill-opacity="0.63478"
         id="path13996" />
      <path
         transform="translate(-0.37185,-34.515)"
         d="m 231.24,550.44 c 0.11762,2.5058 -1.8184,4.6326 -4.3243,4.7502 -2.5059,0.1176 -4.6326,-1.8184 -4.7502,-4.3243 -0.1176,-2.5059 1.8184,-4.6326 4.3243,-4.7502 2.4781,-0.11632 4.5911,1.7771 4.7463,4.253"
         fill="#fcffff"
         fill-opacity="0.63478"
         id="path13998" />
      <path
         transform="translate(-0.63993,-31.357)"
         d="m 224.63,519.2 c 0.15504,3.3032 -2.397,6.1066 -5.7002,6.2616 -3.3032,0.155 -6.1066,-2.397 -6.2616,-5.7002 -0.155,-3.3032 2.397,-6.1066 5.7002,-6.2616 3.2665,-0.15333 6.0519,2.3426 6.2565,5.6063"
         fill="#fcffff"
         fill-opacity="0.63478"
         id="path14000" />
      <path
         transform="translate(-4.7692,-23.511)"
         d="m 237.02,501.5 c 0.12297,2.6197 -1.9011,4.8431 -4.5208,4.9661 -2.6197,0.123 -4.8431,-1.9011 -4.9661,-4.5208 -0.123,-2.6197 1.9011,-4.8431 4.5208,-4.9661 2.5907,-0.1216 4.7998,1.8579 4.962,4.4464"
         fill="#fcffff"
         fill-opacity="0.63478"
         id="path14002" />
      <path
         transform="translate(1.4247,-32.595)"
         d="m 221.74,482.11 c 0.11227,2.3919 -1.7358,4.422 -4.1277,4.5343 -2.3919,0.1123 -4.422,-1.7358 -4.5343,-4.1277 -0.1123,-2.3919 1.7358,-4.422 4.1277,-4.5343 2.3654,-0.11103 4.3824,1.6963 4.5305,4.0597"
         fill="#fcffff"
         fill-opacity="0.63478"
         id="path14004" />
      <path
         transform="translate(-0.63993,-31.357)"
         d="m 224.21,466.36 c 0.14434,3.0754 -2.2317,5.6854 -5.307,5.8298 -3.0753,0.1444 -5.6854,-2.2317 -5.8298,-5.307 -0.1444,-3.0753 2.2317,-5.6854 5.307,-5.8298 3.0413,-0.14275 5.6345,2.181 5.825,5.2197"
         fill="#fcffff"
         fill-opacity="0.63478"
         id="path14006" />
      <path
         transform="translate(-0.63993,-31.357)"
         d="m 214.72,452.32 c 0.14434,3.0754 -2.2317,5.6854 -5.307,5.8298 -3.0753,0.1444 -5.6854,-2.2317 -5.8298,-5.307 -0.1444,-3.0753 2.2317,-5.6854 5.307,-5.8298 3.0413,-0.14275 5.6345,2.181 5.825,5.2197"
         fill="#fcffff"
         fill-opacity="0.63478"
         id="path14008" />
      <path
         transform="translate(-0.63993,-31.357)"
         d="m 232.48,464.83 c 0.0802,1.7085 -1.2398,3.1586 -2.9484,3.2388 -1.7086,0.0802 -3.1586,-1.2398 -3.2388,-2.9484 -0.0802,-1.7086 1.2398,-3.1586 2.9484,-3.2388 1.6896,-0.0793 3.1303,1.2117 3.2361,2.8998"
         fill="#fcffff"
         fill-opacity="0.63478"
         id="path14010" />
      <path
         transform="translate(-0.63993,-31.357)"
         d="m 225.04,476.82 c 0.0695,1.4807 -1.0745,2.7374 -2.5552,2.8069 -1.4807,0.0695 -2.7374,-1.0745 -2.8069,-2.5552 -0.0695,-1.4807 1.0745,-2.7374 2.5552,-2.8069 1.4643,-0.0687 2.7129,1.0501 2.8046,2.5132"
         fill="#fcffff"
         fill-opacity="0.63478"
         id="path14012" />
      <path
         transform="translate(-0.63993,-31.357)"
         d="m 206.05,465.87 c 0.0748,1.5946 -1.1572,2.948 -2.7518,3.0228 -1.5946,0.0748 -2.948,-1.1572 -3.0228,-2.7518 -0.0748,-1.5946 1.1572,-2.948 2.7518,-3.0228 1.577,-0.074 2.9216,1.1309 3.0204,2.7065"
         fill="#fcffff"
         fill-opacity="0.63478"
         id="path14014" />
      <path
         transform="translate(-6.8339,-22.685)"
         d="m 226.28,503.46 c 0.0641,1.3668 -0.99187,2.5269 -2.3587,2.591 -1.36683,0.0641 -2.5268,-0.99186 -2.591,-2.3587 -0.0642,-1.36684 0.99186,-2.5269 2.3587,-2.591 1.3517,-0.0634 2.5042,0.96933 2.5889,2.3198"
         fill="#fcffff"
         fill-opacity="0.63478"
         id="path14016" />
      <path
         transform="translate(-1.4658,-40.854)"
         d="m 227.52,534.61 c 0.0802,1.7085 -1.2398,3.1586 -2.9484,3.2388 -1.7086,0.0802 -3.1586,-1.2398 -3.2388,-2.9484 -0.0802,-1.7086 1.2398,-3.1586 2.9484,-3.2388 1.6896,-0.0793 3.1303,1.2117 3.2361,2.8998"
         fill="#fcffff"
         fill-opacity="0.63478"
         id="path14018" />
      <path
         transform="translate(2.9316,-42.774)"
         d="m 213.07,538.13 c 0.0748,1.5946 -1.1572,2.948 -2.7518,3.0228 -1.5946,0.0748 -2.948,-1.1572 -3.0228,-2.7518 -0.0748,-1.5946 1.1572,-2.948 2.7518,-3.0228 1.577,-0.074 2.9216,1.1309 3.0204,2.7065"
         fill="#fcffff"
         fill-opacity="0.63478"
         id="path14020" />
      <path
         transform="translate(1.2799,-33.276)"
         d="m 226.28,556.97 c 0.0481,1.0251 -0.7439,1.8952 -1.769,1.9433 -1.0251,0.0481 -1.8952,-0.74389 -1.9433,-1.769 -0.0481,-1.02511 0.7439,-1.8951 1.769,-1.9433 1.0138,-0.0476 1.8782,0.72701 1.9417,1.7399"
         fill="#fcffff"
         fill-opacity="0.63478"
         id="path14022" />
      <path
         transform="translate(4.5422,-27.93)"
         d="m 215.95,571.21 c 0.16573,3.531 -2.5623,6.5277 -6.0933,6.6934 -3.531,0.1657 -6.5277,-2.5623 -6.6934,-6.0933 -0.1657,-3.531 2.5623,-6.5277 6.0933,-6.6934 3.4918,-0.16389 6.4693,2.5041 6.688,5.993"
         fill="#fcffff"
         fill-opacity="0.63478"
         id="path14024" />
      <path
         transform="translate(-0.63993,-31.357)"
         d="m 212.65,502.15 c 0.10692,2.278 -1.6531,4.2114 -3.9311,4.3184 -2.278,0.107 -4.2114,-1.6531 -4.3184,-3.9311 -0.107,-2.278 1.6531,-4.2114 3.9311,-4.3184 2.2528,-0.10574 4.1737,1.6156 4.3148,3.8664"
         fill="#fcffff"
         fill-opacity="0.63478"
         id="path14026" />
      <path
         transform="translate(-0.63993,-31.357)"
         d="m 215.96,495.8 c 0.0802,1.7085 -1.2398,3.1586 -2.9484,3.2388 -1.7086,0.0802 -3.1586,-1.2398 -3.2388,-2.9484 -0.0802,-1.7086 1.2398,-3.1586 2.9484,-3.2388 1.6896,-0.0793 3.1303,1.2117 3.2361,2.8998"
         fill="#fcffff"
         fill-opacity="0.63478"
         id="path14028" />
      <path
         transform="translate(-0.63993,-31.357)"
         d="m 231.24,489.17 c 0.0909,1.9363 -1.4051,3.5797 -3.3415,3.6706 -1.9364,0.0909 -3.5797,-1.4052 -3.6706,-3.3415 -0.0909,-1.9363 1.4051,-3.5797 3.3415,-3.6706 1.9149,-0.0899 3.5476,1.3732 3.6676,3.2864"
         fill="#fcffff"
         fill-opacity="0.63478"
         id="path14030" />
      <path
         d="m 232.47,428.16 c 0.1497,3.1892 -2.3144,5.896 -5.5036,6.0457 -3.1892,0.1497 -5.896,-2.3144 -6.0457,-5.5036 -0.1497,-3.1892 2.3144,-5.896 5.5036,-6.0457 3.1539,-0.14803 5.8432,2.2618 6.0407,5.413"
         fill="#fcffff"
         fill-opacity="0.63478"
         id="path14032" />
      <path
         transform="translate(-5.1194,-19.838)"
         d="m 225.04,580.27 c 0.0641,1.3668 -0.99187,2.5269 -2.3587,2.591 -1.36683,0.0641 -2.5268,-0.99186 -2.591,-2.3587 -0.0642,-1.36684 0.99186,-2.5269 2.3587,-2.591 1.3517,-0.0634 2.5042,0.96934 2.5889,2.3198"
         fill="#fcffff"
         fill-opacity="0.63478"
         id="path14034" />
      <path
         transform="translate(-10.879,-18.558)"
         d="m 239.49,568.04 c 0.0909,1.9363 -1.4051,3.5797 -3.3415,3.6706 -1.9364,0.0909 -3.5797,-1.4051 -3.6706,-3.3415 -0.0909,-1.9364 1.4051,-3.5797 3.3415,-3.6706 1.9149,-0.0899 3.5477,1.3732 3.6676,3.2864"
         fill="#fcffff"
         fill-opacity="0.63478"
         id="path14036" />
      <path
         transform="translate(1.2799,-33.276)"
         d="m 209.35,535.77 c 0.12296,2.6197 -1.9011,4.8431 -4.5208,4.9661 -2.6197,0.123 -4.8431,-1.9011 -4.9661,-4.5208 -0.123,-2.6197 1.9011,-4.8431 4.5208,-4.9661 2.5907,-0.1216 4.7998,1.8579 4.962,4.4464"
         fill="#fcffff"
         fill-opacity="0.63478"
         id="path14038" />
      <path
         transform="translate(-0.63993,-31.357)"
         d="m 203.98,483.6 c 0.0855,1.8224 -1.3225,3.3691 -3.1449,3.4547 -1.8224,0.0856 -3.3691,-1.3225 -3.4547,-3.1449 -0.0856,-1.8224 1.3225,-3.3691 3.1449,-3.4547 1.8022,-0.0846 3.339,1.2924 3.4518,3.0931"
         fill="#fcffff"
         fill-opacity="0.63478"
         id="path14040" />
      <path
         transform="translate(-0.63993,-31.357)"
         d="m 238.26,437.99 c 0.0802,1.7085 -1.2398,3.1586 -2.9484,3.2388 -1.7086,0.0802 -3.1586,-1.2398 -3.2388,-2.9484 -0.0802,-1.7086 1.2398,-3.1586 2.9484,-3.2388 1.6896,-0.0793 3.1303,1.2117 3.2361,2.8998"
         fill="#fcffff"
         fill-opacity="0.63478"
         id="path14042" />
      <path
         d="m 218.02,406.15 c 0.10158,2.1641 -1.5704,4.0008 -3.7346,4.1024 -2.1642,0.1016 -4.0009,-1.5704 -4.1024,-3.7346 -0.1015,-2.1642 1.5704,-4.0009 3.7346,-4.1024 2.1402,-0.10045 3.965,1.5348 4.0991,3.6731"
         fill="#fcffff"
         fill-opacity="0.63478"
         id="path14044" />
      <path
         transform="translate(-0.82586,0.82586)"
         d="m 233.71,397.64 c 0.12831,2.7336 -1.9837,5.0537 -4.7174,5.182 -2.7337,0.1283 -5.0537,-1.9837 -5.182,-4.7174 -0.1283,-2.7337 1.9837,-5.0537 4.7174,-5.182 2.7034,-0.12689 5.0085,1.9387 5.1778,4.6397"
         fill="#fcffff"
         fill-opacity="0.63478"
         id="path14046" />
      <path
         d="m 216.93,567.76 c 0.0994,2.1182 -1.5371,3.916 -3.6553,4.0154 -2.1182,0.0994 -3.916,-1.5371 -4.0154,-3.6553 -0.0994,-2.1182 1.5371,-3.916 3.6553,-4.0154 2.0947,-0.0983 3.8809,1.5022 4.0121,3.5952"
         fill="#fcffff"
         fill-opacity="0.63478"
         id="path14048" />
      <path
         d="m 231.61,586.94 c -3.0759,1.7405 -6.9804,0.65794 -8.721,-2.418 -1.7406,-3.07594 -0.65794,-6.9805 2.418,-8.721 3.07594,-1.7405 6.9805,-0.65794 8.721,2.418 1.7298,3.0571 0.67215,6.9372 -2.3698,8.6934 l -3.1996,-5.542 z"
         fill="#fcffff"
         fill-opacity="0.63478"
         id="path14050" />
      <path
         d="m 231.92,578.54 c -3.3835,1.9146 -7.6785,0.72373 -9.5931,-2.6598 -1.9146,-3.38353 -0.72373,-7.6785 2.6598,-9.5931 3.38353,-1.9146 7.6785,-0.72373 9.5931,2.6598 1.9028,3.3628 0.73937,7.6309 -2.6068,9.5628 l -3.5196,-6.0962 z"
         fill="#fcffff"
         fill-opacity="0.63478"
         id="path14052" />
      <path
         d="m 213.39,581.6 c -1.538,0.87026 -3.4902,0.32897 -4.3605,-1.209 -0.8703,-1.53797 -0.32897,-3.4902 1.209,-4.3605 1.53797,-0.8703 3.4902,-0.32897 4.3605,1.209 0.86493,1.5286 0.33608,3.4686 -1.1849,4.3467 l -1.5998,-2.771 z"
         fill="#fcffff"
         fill-opacity="0.63478"
         id="path14054" />
    </g>
  </g>
</svg>
