<?xml version="1.0" encoding="UTF-8" standalone="no"?>
<svg
   width="64"
   height="64"
   viewBox="0 0 16.933333 16.933333"
   version="1.1"
   id="svg4904"
   inkscape:version="1.2 (dc2aedaf03, 2022-05-15)"
   sodipodi:docname="twitter.svg"
   xmlns:inkscape="http://www.inkscape.org/namespaces/inkscape"
   xmlns:sodipodi="http://sodipodi.sourceforge.net/DTD/sodipodi-0.dtd"
   xmlns="http://www.w3.org/2000/svg"
   xmlns:svg="http://www.w3.org/2000/svg"
   xmlns:rdf="http://www.w3.org/1999/02/22-rdf-syntax-ns#"
   xmlns:cc="http://creativecommons.org/ns#"
   xmlns:dc="http://purl.org/dc/elements/1.1/">
  <defs
     id="defs4898" />
  <sodipodi:namedview
     id="base"
     pagecolor="#fad1d1"
     bordercolor="#666666"
     borderopacity="1.0"
     inkscape:pageopacity="0"
     inkscape:pageshadow="2"
     inkscape:zoom="5.6"
     inkscape:cx="35.982143"
     inkscape:cy="34.821429"
     inkscape:document-units="mm"
     inkscape:current-layer="layer1"
     inkscape:document-rotation="0"
     showgrid="false"
     inkscape:window-width="1920"
     inkscape:window-height="1020"
     inkscape:window-x="0"
     inkscape:window-y="32"
     inkscape:window-maximized="1"
     units="px"
     inkscape:pagecheckerboard="0"
     inkscape:showpageshadow="0"
     inkscape:deskcolor="#fad1d1" />
  <metadata
     id="metadata4901">
    <rdf:RDF>
      <cc:Work
         rdf:about="">
        <dc:format>image/svg+xml</dc:format>
        <dc:type
           rdf:resource="http://purl.org/dc/dcmitype/StillImage" />
      </cc:Work>
    </rdf:RDF>
  </metadata>
  <g
     inkscape:label="Layer 1"
     inkscape:groupmode="layer"
     id="layer1"
     transform="translate(-94.8953,-99.929952)">
    <path
       d="m 106.16755,102.39672 v -0.003 h 0.67758 l 0.24759,0.0545 q 0.24758,0.0531 0.44957,0.1393 0.20197,0.0861 0.39092,0.20107 0.18895,0.11491 0.34271,0.23412 0.15246,0.11778 0.27364,0.24991 0.11988,0.13357 0.37398,0.069 0.2541,-0.0646 0.5473,-0.17953 0.2932,-0.1149 0.57986,-0.25852 0.28669,-0.14362 0.34923,-0.18239 0.0612,-0.0403 0.0651,-0.0431 l 0.003,-0.004 0.013,-0.008 0.013,-0.008 0.013,-0.008 0.013,-0.008 0.003,-0.004 0.004,-0.003 0.004,-0.003 0.003,-0.004 0.013,-0.004 0.013,-0.003 -0.003,0.0216 -0.004,0.0216 -0.006,0.0216 -0.006,0.0216 -0.006,0.0144 -0.006,0.0144 -0.006,0.0216 q -0.006,0.0216 -0.013,0.0575 -0.006,0.0359 -0.12378,0.28724 -0.11728,0.25135 -0.29319,0.50988 -0.17591,0.25851 -0.31535,0.39065 -0.14072,0.13357 -0.18636,0.18671 -0.0457,0.0545 -0.11074,0.10056 l -0.0651,0.0474 -0.013,0.008 -0.013,0.008 -0.003,0.004 -0.004,0.003 -0.004,0.003 -0.003,0.004 -0.013,0.008 -0.013,0.008 -0.003,0.004 -0.004,0.003 -0.004,0.003 -0.003,0.004 -0.003,0.004 -0.004,0.003 -0.004,0.003 -0.003,0.004 h 0.0651 l 0.36486,-0.0861 q 0.36486,-0.0862 0.69715,-0.20827 0.33228,-0.12207 0.35182,-0.12925 0.0196,-0.008 0.0391,-0.0144 l 0.0195,-0.008 0.013,-0.008 0.013,-0.008 0.013,-0.008 0.013,-0.008 0.0261,-0.004 0.0261,-0.003 v 0.0287 l -0.006,0.003 -0.006,0.004 -0.003,0.004 -0.004,0.003 -0.004,0.003 -0.003,0.004 -0.003,0.004 -0.004,0.003 -0.004,0.003 -0.003,0.004 -0.003,0.004 -0.004,0.003 -0.006,0.0144 -0.006,0.0144 -0.004,0.003 q -0.003,0.004 -0.1655,0.24416 -0.16286,0.24129 -0.17589,0.24417 -0.013,0.004 -0.0365,0.0431 -0.022,0.0403 -0.27625,0.3203 -0.2541,0.28005 -0.49779,0.49834 -0.24497,0.21976 -0.24756,0.54005 -0.004,0.31884 -0.0299,0.72099 -0.0261,0.40216 -0.0977,0.86893 -0.0716,0.46677 -0.22153,1.05562 -0.14985,0.58889 -0.36487,1.14902 -0.21499,0.56013 -0.44953,1.00536 -0.23457,0.44524 -0.43003,0.75403 -0.19545,0.30879 -0.39745,0.58169 -0.20197,0.27288 -0.51079,0.61471 -0.31012,0.34039 -0.33879,0.37342 -0.0299,0.0316 -0.2554,0.23555 -0.22414,0.20538 -0.48215,0.41076 -0.25671,0.20396 -0.47171,0.34039 -0.21501,0.13644 -0.51863,0.31166 -0.3023,0.17666 -0.65413,0.32746 -0.35183,0.1508 -0.74275,0.28008 -0.39094,0.12926 -0.75579,0.20107 -0.36486,0.0719 -0.82744,0.12208 l -0.4626,0.0502 v 0.008 h -0.84738 v -0.008 l -0.11075,-0.008 q -0.11077,-0.008 -0.18244,-0.0144 -0.0716,-0.008 -0.54077,-0.0789 -0.469108,-0.0719 -0.736237,-0.14361 -0.267129,-0.0719 -0.794873,-0.2729 -0.527744,-0.20107 -0.903029,-0.40646 -0.373981,-0.20394 -0.469106,-0.25852 -0.09382,-0.0531 -0.211098,-0.13213 l -0.117276,-0.0789 -0.0025,-0.004 -0.0039,-0.003 -0.0039,-0.003 -0.0025,-0.004 -0.01304,-0.008 -0.01305,-0.008 -0.0025,-0.004 -0.0039,-0.003 -0.0039,-0.003 -0.0025,-0.004 -0.0025,-0.004 -0.0039,-0.003 h -0.0065 v -0.0287 l 0.01304,0.003 0.01304,0.004 0.05863,0.008 q 0.05864,0.008 0.319252,0.0216 0.260615,0.0143 0.553806,0 0.293191,-0.0144 0.599414,-0.0647 0.306222,-0.0503 0.723204,-0.17236 0.416984,-0.12206 0.766207,-0.29013 0.347919,-0.16946 0.495166,-0.25277 0.14595,-0.0818 0.44566,-0.30448 l 0.29969,-0.22262 0.003,-0.004 0.004,-0.003 0.004,-0.003 0.002,-0.004 0.002,-0.004 0.004,-0.003 0.004,-0.003 0.003,-0.004 0.013,-0.004 0.013,-0.003 0.002,-0.0144 0.004,-0.0144 0.004,-0.003 0.002,-0.004 -0.10424,-0.008 q -0.10424,-0.008 -0.20197,-0.0144 -0.0977,-0.008 -0.30623,-0.0647 -0.20849,-0.0574 -0.449555,-0.17234 -0.241069,-0.11489 -0.469106,-0.27288 -0.228038,-0.158 -0.329677,-0.26283 -0.100337,-0.10341 -0.260615,-0.29299 -0.158974,-0.19102 -0.276252,-0.3921 -0.117275,-0.20107 -0.224127,-0.46391 l -0.108155,-0.26139 -0.0065,-0.0216 -0.0065,-0.0216 -0.0039,-0.0144 -0.0025,-0.0144 0.01955,0.003 0.01955,0.004 0.143337,0.0216 q 0.143338,0.0216 0.44956,0.0144 0.306223,-0.008 0.4235,-0.0287 0.117274,-0.0216 0.143336,-0.0287 l 0.02605,-0.008 0.03257,-0.008 0.03257,-0.008 0.0025,-0.004 0.0039,-0.003 0.0039,-0.003 0.0025,-0.004 -0.02606,-0.008 -0.02605,-0.008 -0.02606,-0.008 -0.02606,-0.008 -0.02605,-0.008 q -0.02606,-0.008 -0.09122,-0.0287 -0.06516,-0.0216 -0.351828,-0.15801 -0.286677,-0.13644 -0.456076,-0.26568 -0.169399,-0.12927 -0.323163,-0.28294 -0.15246,-0.15514 -0.33489,-0.39929 -0.182428,-0.24415 -0.325767,-0.5673 -0.143338,-0.32317 -0.215006,-0.61759 -0.07167,-0.29444 -0.09382,-0.59605 l -0.02345,-0.30163 0.01304,0.003 0.01304,0.004 0.01304,0.008 0.01305,0.008 0.01304,0.008 0.01305,0.008 0.201977,0.10053 q 0.201975,0.10055 0.501682,0.17236 0.299708,0.0719 0.358346,0.079 l 0.05864,0.008 h 0.117277 l -0.0025,-0.004 -0.0039,-0.003 -0.0039,-0.003 -0.0025,-0.004 -0.0025,-0.004 -0.0039,-0.003 -0.0039,-0.003 -0.0025,-0.004 -0.01304,-0.008 -0.01304,-0.008 -0.0025,-0.004 -0.0039,-0.003 -0.0039,-0.003 -0.0025,-0.004 -0.01305,-0.008 -0.01304,-0.008 -0.0025,-0.004 q -0.0039,-0.003 -0.112064,-0.0919 -0.106852,-0.0905 -0.224129,-0.23411 -0.117277,-0.14363 -0.234553,-0.30162 -0.117276,-0.15798 -0.208492,-0.33753 -0.09121,-0.17951 -0.192855,-0.4567 -0.100335,-0.27577 -0.152458,-0.55583 -0.05211,-0.28008 -0.05864,-0.55296 -0.0065,-0.27289 0.01304,-0.46678 0.01955,-0.19391 0.07819,-0.43808 0.05864,-0.24414 0.1694,-0.51703 l 0.110761,-0.27289 0.0065,-0.0216 0.0065,-0.0216 0.0039,-0.003 0.0025,-0.004 0.0025,-0.004 0.0039,-0.003 0.0039,0.003 0.0025,0.004 0.0025,0.004 0.0039,0.003 0.0039,0.003 0.0025,0.004 0.0025,0.004 0.0039,0.003 0.0065,0.0144 0.0065,0.0144 0.0039,0.003 0.0025,0.004 0.175915,0.21544 q 0.175915,0.21544 0.416983,0.48114 0.241067,0.26571 0.26713,0.27577 0.02605,0.0115 0.06516,0.0661 0.03909,0.0531 0.260614,0.25424 0.221523,0.20107 0.579867,0.46678 0.358345,0.2657 0.794873,0.52423 0.43653,0.25851 0.9382,0.46678 0.5017,0.20825 0.70367,0.27288 0.20197,0.0647 0.69062,0.16515 0.48867,0.10055 0.73625,0.12927 0.24758,0.0288 0.33879,0.0331 l 0.0912,0.003 -0.003,-0.0216 -0.004,-0.0216 -0.0261,-0.17955 q -0.0261,-0.17951 -0.0261,-0.50267 0,-0.32315 0.0456,-0.59603 0.0457,-0.2729 0.13683,-0.55296 0.0912,-0.28007 0.17852,-0.44957 0.0886,-0.16803 0.23196,-0.38347 0.14332,-0.21543 0.37136,-0.44523 0.22803,-0.2298 0.52123,-0.40933 0.29319,-0.17955 0.54079,-0.27291 0.24758,-0.0934 0.41699,-0.12206 0.16939,-0.0287 0.16939,-0.033 z"
       fill="#5da8dc"
       stroke="#5da8dc"
       id="path2346"
       style="fill:#ffffff;fill-rule:evenodd;stroke-width:0.0068402" />
  </g>
</svg>
