<?xml version="1.0" encoding="UTF-8" standalone="no"?>
<svg
   width="64"
   height="64"
   viewBox="0 0 16.933333 16.933333"
   version="1.1"
   id="svg4904"
   inkscape:version="1.1 (c4e8f9ed74, 2021-05-24)"
   sodipodi:docname="youtube.svg"
   xmlns:inkscape="http://www.inkscape.org/namespaces/inkscape"
   xmlns:sodipodi="http://sodipodi.sourceforge.net/DTD/sodipodi-0.dtd"
   xmlns="http://www.w3.org/2000/svg"
   xmlns:svg="http://www.w3.org/2000/svg"
   xmlns:rdf="http://www.w3.org/1999/02/22-rdf-syntax-ns#"
   xmlns:cc="http://creativecommons.org/ns#"
   xmlns:dc="http://purl.org/dc/elements/1.1/">
  <defs
     id="defs4898" />
  <sodipodi:namedview
     id="base"
     pagecolor="#e5b8b8"
     bordercolor="#666666"
     borderopacity="1.0"
     inkscape:pageopacity="0"
     inkscape:pageshadow="2"
     inkscape:zoom="3.6856289"
     inkscape:cx="4.4148434"
     inkscape:cy="44.832145"
     inkscape:document-units="mm"
     inkscape:current-layer="layer1"
     inkscape:document-rotation="0"
     showgrid="false"
     inkscape:window-width="1920"
     inkscape:window-height="1052"
     inkscape:window-x="0"
     inkscape:window-y="28"
     inkscape:window-maximized="1"
     units="px"
     inkscape:pagecheckerboard="0"
     inkscape:rotation="-1" />
  <metadata
     id="metadata4901">
    <rdf:RDF>
      <cc:Work
         rdf:about="">
        <dc:format>image/svg+xml</dc:format>
        <dc:type
           rdf:resource="http://purl.org/dc/dcmitype/StillImage" />
      </cc:Work>
    </rdf:RDF>
  </metadata>
  <g
     inkscape:label="Layer 1"
     inkscape:groupmode="layer"
     id="layer1"
     transform="translate(-94.8953,-99.929952)">
    <circle
       id="path993"
       style="fill:#ffffff;stroke:#000000;stroke-width:0.264583"
       cx="50.418179"
       cy="80.185966"
       r="0.0021693932" />
    <circle
       id="path995"
       style="fill:#ffffff;stroke:#000000;stroke-width:0.264583"
       cx="50.418179"
       cy="80.185966"
       r="0.0021693932" />
    <path
       id="path1165"
       style="fill:#ffffff;stroke:none;stroke-width:0.106313px;stroke-linecap:butt;stroke-linejoin:miter;stroke-opacity:1"
       d="m 102.49833,101.87976 c -0.23923,6.7e-4 -0.48562,0.0458 -0.8428,0.15526 -0.43961,0.1348 -0.70699,0.19743 -1.01185,0.41821 -0.30486,0.22078 -0.69746,0.59484 -0.69746,0.59484 l -0.285583,0.43978 c -0.111997,0.38464 -0.23352,0.77715 -0.151058,1.35209 0.08246,0.5749 0.147126,0.84724 0.249788,1.18051 0.102663,0.33329 0.251533,0.50699 0.233256,0.71044 -0.01829,0.20346 -0.467577,0.4475 -0.467577,0.4475 0,0 -1.321933,0.50386 -1.8663,0.80039 -0.544367,0.29652 -0.746193,0.46599 -1.131559,0.78572 -0.385367,0.31975 -0.511649,0.34406 -0.624572,0.57308 -0.112923,0.22901 -0.05835,0.59253 -0.04471,0.80831 0.01365,0.21576 0.093,0.60943 0.278811,0.81219 0.18581,0.20276 0.231538,0.27767 0.488979,0.26028 0.257441,-0.0174 0.595784,-0.12181 0.833681,-0.29956 0.237898,-0.17774 0.52803,-0.41926 0.84067,-0.68764 0.312643,-0.26837 0.52277,-0.41768 0.986857,-0.66342 0.464079,-0.24575 0.621466,-0.32454 0.893007,-0.40436 0.27154,-0.0798 0.45462,-0.0877 0.48835,0.009 0.0337,0.0968 0.46575,0.74921 0.60042,1.01813 0.13464,0.26893 0.42,0.40265 0.46609,0.65488 0.046,0.25223 0.24255,0.45024 0.2392,0.67238 -0.004,0.22213 0.0322,0.43313 -0.16484,0.66769 -0.19703,0.23459 -0.24346,0.33621 -0.5678,0.41087 -0.32431,0.0747 -1.00313,0.0937 -1.295113,0.20595 -0.291984,0.11223 -0.523686,0.25972 -0.589822,0.56575 -0.06614,0.30602 -0.14058,0.62239 0.05106,0.93734 0.191639,0.31494 0.368037,0.48379 0.643845,0.62557 0.27583,0.14178 0.70789,0.18825 0.99322,0.15549 0.28534,-0.0328 0.81884,-0.0311 1.16058,-0.16241 0.34175,-0.13138 0.68798,-0.10576 1.05826,-0.44201 0.37028,-0.33623 0.51064,-0.42862 0.69342,-0.62924 0.18279,-0.20061 0.28977,-0.58571 0.35064,-0.84392 0.0609,-0.25823 0.092,-0.81109 0.0941,-1.09465 0.002,-0.28357 0.0207,-0.68533 0.053,-0.79897 0.0323,-0.11362 0.38037,-0.18001 0.54153,-0.046 0.16114,0.13403 0.47054,0.0724 0.5735,0.3716 0.10297,0.29934 0.46053,0.76733 0.51187,1.06269 0.0513,0.29537 0.0968,0.70532 0.0651,0.9636 -0.0317,0.25827 0.0778,0.53498 0.18918,0.68927 0.1113,0.15428 0.63044,0.28091 0.83221,0.26252 0.20176,-0.0185 0.32346,-0.0189 0.47498,-0.0729 0.15153,-0.0541 0.37041,-0.3272 0.55254,-0.41393 0.18213,-0.0868 0.43513,-0.39812 0.59979,-0.54864 0.16465,-0.15054 0.17238,-0.27478 0.15,-0.38606 -0.0223,-0.11127 -0.57847,-0.83957 -0.65699,-1.21918 -0.0785,-0.37964 -0.34974,-0.66674 -0.34999,-0.95159 -2.7e-4,-0.28485 0.0196,-0.47715 -0.0348,-0.60075 -0.0544,-0.12359 -0.27105,-0.5625 -0.63814,-0.91618 -0.36708,-0.35367 -0.6821,-0.52791 -0.86397,-0.70188 -0.18189,-0.17398 -0.39829,-0.20817 -0.37309,-0.38808 0.0251,-0.17991 -0.0286,-0.35404 0.15127,-0.49025 0.17993,-0.1362 0.55757,-0.54575 0.8269,-0.76599 0.26933,-0.22023 0.76996,-0.79593 1.01842,-1.09994 0.24845,-0.304 0.44967,-0.74033 0.5233,-1.16628 0.0737,-0.42594 0.0966,-0.88101 0.0674,-1.01691 -0.0292,-0.13591 -0.28797,-0.3865 -0.39703,-0.52198 -0.10908,-0.1355 -0.52576,-0.39666 -0.67373,-0.476 -0.14798,-0.0793 -0.29737,-0.14128 -0.36695,-0.082 -0.0696,0.0593 -0.38074,0.3267 -0.4502,0.62698 -0.0694,0.30029 -0.26216,1.02927 -0.36568,1.29734 -0.10351,0.26809 -0.341,0.63763 -0.5269,0.72407 -0.18592,0.0865 -0.56678,0.30576 -0.73157,0.12435 -0.16479,-0.18143 -0.3591,-1.07074 -0.49173,-1.37895 -0.13265,-0.30821 -0.36668,-1.15194 -0.52987,-1.39787 -0.16319,-0.24593 -0.55447,-0.50845 -0.74003,-0.57755 -0.18559,-0.0691 -0.38039,-0.10997 -0.67754,-0.13289 -0.0558,-0.005 -0.11069,-0.007 -0.16588,-0.007 z m 0.48325,0.79509 c 0.0432,-0.002 0.079,-2.1e-4 0.10446,0.006 0.20414,0.0391 0.53066,0.27089 0.60974,0.41555 0.079,0.14466 0.38059,0.73064 0.40528,0.78675 0.0247,0.0562 0.0805,0.69792 0.009,0.87221 -0.0713,0.17431 -0.21721,0.27453 -0.43093,0.39032 -0.21371,0.1158 -0.6144,0.30827 -0.95528,0.3769 -0.3409,0.0686 -0.68753,0.12015 -0.91356,0.0592 -0.22602,-0.0609 -0.43964,-0.25659 -0.56673,-0.36631 -0.12709,-0.1097 -0.2039,-0.46167 -0.24281,-0.67604 -0.0388,-0.21435 0.0365,-0.55178 0.11018,-0.83559 0.0736,-0.2838 0.31256,-0.56068 0.44555,-0.6567 0,0 0.24161,-0.1647 0.35593,-0.19008 0.1,-0.0222 0.76692,-0.1704 1.06885,-0.18092 z" />
  </g>
</svg>
